<?xml version="1.0" encoding="utf-8"?>
<!-- Generator: Adobe Illustrator 16.0.0, SVG Export Plug-In . SVG Version: 6.00 Build 0)  -->
<!DOCTYPE svg PUBLIC "-//W3C//DTD SVG 1.1//EN" "http://www.w3.org/Graphics/SVG/1.1/DTD/svg11.dtd">
<svg version="1.1" id="Layer_1" xmlns="http://www.w3.org/2000/svg" xmlns:xlink="http://www.w3.org/1999/xlink" x="0px" y="0px"
	 width="170px" height="148px" viewBox="0 0 170 148" enable-background="new 0 0 170 148" xml:space="preserve">
<g>
	<g>
		<g>
			<path fill="#282828" d="M15.51,138.994c0,1.639-0.52,2.961-1.555,3.969c-1.036,1.008-2.366,1.512-3.99,1.512
				c-1.609,0-2.943-0.507-4-1.521c-1.058-1.016-1.586-2.335-1.586-3.959v-7.729c0-1.498,0.525-2.781,1.575-3.854
				c1.05-1.07,2.387-1.605,4.011-1.605s2.954,0.528,3.99,1.585c1.035,1.058,1.555,2.349,1.555,3.874V138.994z M11.414,131.329
				c0-0.784-0.133-1.379-0.398-1.785c-0.267-0.405-0.617-0.608-1.051-0.608s-0.787,0.207-1.061,0.619
				c-0.273,0.413-0.409,1.005-0.409,1.774v7.644c0,0.756,0.136,1.338,0.409,1.744s0.627,0.608,1.061,0.608
				c0.448,0,0.801-0.2,1.061-0.599s0.389-0.983,0.389-1.754V131.329z"/>
			<path fill="#282828" d="M21.41,144.244v-12.936c-0.406,0.308-0.924,0.633-1.555,0.977c-0.63,0.343-1.232,0.57-1.806,0.682v-3.57
				c0.573-0.223,1.235-0.64,1.984-1.249c0.749-0.608,1.249-1.319,1.501-2.132h3.97v16.759c0,0.434-0.169,0.787-0.505,1.06
				c-0.336,0.273-0.728,0.41-1.176,0.41H21.41z"/>
			<path fill="#282828" d="M40.625,138.994c0,1.639-0.519,2.961-1.555,3.969c-1.035,1.008-2.365,1.512-3.99,1.512
				c-1.609,0-2.943-0.507-4-1.521c-1.057-1.016-1.586-2.335-1.586-3.959v-7.729c0-1.498,0.525-2.781,1.576-3.854
				c1.049-1.07,2.387-1.605,4.01-1.605c1.625,0,2.955,0.528,3.99,1.585c1.036,1.058,1.555,2.349,1.555,3.874V138.994z
				 M36.529,131.329c0-0.784-0.133-1.379-0.398-1.785c-0.266-0.405-0.616-0.608-1.051-0.608c-0.434,0-0.787,0.207-1.061,0.619
				c-0.272,0.413-0.408,1.005-0.408,1.774v7.644c0,0.756,0.136,1.338,0.408,1.744c0.273,0.406,0.627,0.608,1.061,0.608
				c0.449,0,0.802-0.2,1.061-0.599c0.26-0.398,0.389-0.983,0.389-1.754V131.329z"/>
			<path fill="#282828" d="M46.903,144.916c-0.21,0.182-0.532,0.273-0.966,0.273h-3.15v-4.326h4.432v3.234
				C47.219,144.461,47.113,144.734,46.903,144.916z"/>
			<path fill="#282828" d="M65.667,143.961c-0.203,0.189-0.508,0.283-0.913,0.283h-9.955c-0.014-1.4,0.147-2.475,0.483-3.224
				c0.337-0.749,0.966-1.697,1.89-2.845l3.886-4.852c0.28-0.363,0.479-0.742,0.599-1.135c0.119-0.391,0.178-0.727,0.178-1.008
				c0-0.672-0.143-1.186-0.43-1.543s-0.627-0.535-1.02-0.535c-0.434,0-0.791,0.217-1.07,0.65c-0.28,0.435-0.42,1.135-0.42,2.1
				h-4.096c0-1.791,0.477-3.236,1.429-4.336c0.952-1.099,2.331-1.648,4.137-1.648c1.708,0,3.06,0.486,4.054,1.459
				c0.993,0.974,1.49,2.266,1.49,3.875c0,0.854-0.182,1.604-0.546,2.247s-0.812,1.295-1.344,1.953l-4.599,5.712h6.552v1.953
				C65.972,143.475,65.869,143.771,65.667,143.961z"/>
			<path fill="#282828" d="M78.383,138.994c0,1.639-0.52,2.961-1.555,3.969c-1.036,1.008-2.366,1.512-3.99,1.512
				c-1.609,0-2.943-0.507-4-1.521c-1.058-1.016-1.586-2.335-1.586-3.959v-7.729c0-1.498,0.525-2.781,1.575-3.854
				c1.05-1.07,2.387-1.605,4.011-1.605s2.954,0.528,3.99,1.585c1.035,1.058,1.555,2.349,1.555,3.874V138.994z M74.287,131.329
				c0-0.784-0.133-1.379-0.398-1.785c-0.267-0.405-0.617-0.608-1.051-0.608s-0.787,0.207-1.061,0.619
				c-0.273,0.413-0.409,1.005-0.409,1.774v7.644c0,0.756,0.136,1.338,0.409,1.744s0.627,0.608,1.061,0.608
				c0.448,0,0.801-0.2,1.061-0.599s0.389-0.983,0.389-1.754V131.329z"/>
			<path fill="#282828" d="M90.783,143.961c-0.203,0.189-0.508,0.283-0.914,0.283h-9.954c-0.015-1.4,0.147-2.475,0.483-3.224
				s0.966-1.697,1.89-2.845l3.886-4.852c0.279-0.363,0.479-0.742,0.598-1.135c0.119-0.391,0.179-0.727,0.179-1.008
				c0-0.672-0.144-1.186-0.431-1.543s-0.627-0.535-1.019-0.535c-0.435,0-0.791,0.217-1.071,0.65c-0.279,0.435-0.42,1.135-0.42,2.1
				h-4.095c0-1.791,0.476-3.236,1.429-4.336c0.951-1.099,2.33-1.648,4.137-1.648c1.707,0,3.059,0.486,4.053,1.459
				c0.994,0.974,1.491,2.266,1.491,3.875c0,0.854-0.183,1.604-0.546,2.247c-0.365,0.644-0.813,1.295-1.344,1.953l-4.6,5.712h6.553
				v1.953C91.088,143.475,90.985,143.771,90.783,143.961z"/>
			<path fill="#282828" d="M103.771,138.932c0,1.638-0.522,2.967-1.564,3.99c-1.044,1.021-2.461,1.532-4.254,1.532
				c-1.791,0-3.209-0.511-4.252-1.532c-1.043-1.023-1.564-2.353-1.564-3.99c0-0.77,0.207-1.523,0.619-2.258
				c0.413-0.735,0.977-1.34,1.691-1.816c-0.729-0.434-1.264-0.998-1.607-1.691c-0.343-0.692-0.514-1.396-0.514-2.109
				c0-1.471,0.527-2.713,1.585-3.729c1.058-1.014,2.405-1.521,4.042-1.521c1.75,0,3.119,0.508,4.105,1.521
				c0.988,1.016,1.481,2.258,1.481,3.729c0,0.713-0.187,1.414-0.557,2.1c-0.371,0.686-0.886,1.253-1.544,1.701
				c0.715,0.434,1.281,1.032,1.701,1.795C103.561,137.416,103.771,138.176,103.771,138.932z M99.676,138.889
				c0-0.699-0.176-1.283-0.525-1.753c-0.35-0.469-0.748-0.704-1.197-0.704c-0.434,0-0.828,0.231-1.186,0.693
				c-0.357,0.463-0.535,1.051-0.535,1.764c0,0.687,0.171,1.261,0.514,1.723c0.344,0.462,0.746,0.693,1.207,0.693
				c0.463,0,0.865-0.231,1.208-0.693S99.676,139.575,99.676,138.889z M99.445,131.182c0-0.657-0.137-1.193-0.41-1.605
				c-0.273-0.413-0.633-0.62-1.082-0.62c-0.42,0-0.776,0.207-1.07,0.62c-0.294,0.412-0.441,0.948-0.441,1.605
				c0,0.672,0.154,1.208,0.463,1.607c0.307,0.398,0.657,0.598,1.049,0.598c0.406,0,0.757-0.202,1.051-0.608
				S99.445,131.84,99.445,131.182z"/>
			<path fill="#282828" d="M109.776,144.916c-0.21,0.182-0.532,0.273-0.966,0.273h-3.15v-4.326h4.432v3.234
				C110.092,144.461,109.986,144.734,109.776,144.916z"/>
			<path fill="#282828" d="M128.697,138.994c0,1.639-0.518,2.961-1.554,3.969s-2.366,1.512-3.99,1.512
				c-1.61,0-2.943-0.507-4.001-1.521c-1.057-1.016-1.585-2.335-1.585-3.959v-7.729c0-1.498,0.524-2.781,1.575-3.854
				c1.05-1.07,2.387-1.605,4.011-1.605s2.954,0.528,3.99,1.585c1.036,1.058,1.554,2.349,1.554,3.874V138.994z M124.603,131.329
				c0-0.784-0.134-1.379-0.399-1.785c-0.266-0.405-0.615-0.608-1.05-0.608s-0.787,0.207-1.061,0.619
				c-0.272,0.413-0.409,1.005-0.409,1.774v7.644c0,0.756,0.137,1.338,0.409,1.744c0.273,0.406,0.626,0.608,1.061,0.608
				c0.448,0,0.802-0.2,1.061-0.599s0.389-0.983,0.389-1.754V131.329z"/>
			<path fill="#282828" d="M135.669,137.608c-0.153,0.014-0.308,0.024-0.462,0.031s-0.287,0.003-0.398-0.011
				c-1.428-0.168-2.572-0.752-3.434-1.754c-0.861-1-1.292-2.306-1.292-3.916c0-1.861,0.519-3.335,1.554-4.42
				c1.036-1.085,2.408-1.628,4.116-1.628c1.735,0,3.115,0.543,4.138,1.628c1.021,1.085,1.519,2.502,1.49,4.252
				c-0.014,0.938-0.108,1.768-0.283,2.488c-0.176,0.722-0.529,1.628-1.061,2.72c-0.561,1.19-1.197,2.481-1.911,3.874
				c-0.714,1.394-1.33,2.523-1.848,3.393h-4.326c0.644-0.938,1.302-1.996,1.974-3.172S135.179,138.756,135.669,137.608z
				 M134.178,131.917c0,0.868,0.154,1.571,0.463,2.11c0.307,0.539,0.678,0.809,1.112,0.809c0.448,0,0.826-0.266,1.134-0.798
				c0.309-0.532,0.463-1.239,0.463-2.121s-0.145-1.593-0.432-2.132c-0.287-0.538-0.675-0.809-1.165-0.809
				c-0.476,0-0.857,0.271-1.145,0.809C134.321,130.324,134.178,131.035,134.178,131.917z"/>
			<path fill="#282828" d="M153.981,138.973c0,1.652-0.522,2.979-1.565,3.98c-1.043,1-2.445,1.501-4.21,1.501
				c-1.819,0-3.241-0.497-4.263-1.491c-1.022-0.994-1.541-2.457-1.555-4.389h4.117c0.014,0.938,0.174,1.627,0.482,2.068
				c0.308,0.441,0.714,0.662,1.218,0.662c0.435,0,0.819-0.2,1.155-0.6c0.336-0.398,0.504-1.004,0.504-1.816
				c0-0.783-0.172-1.389-0.515-1.816c-0.343-0.426-0.759-0.641-1.249-0.641h-0.987v-3.045h0.987c0.363,0,0.71-0.202,1.039-0.608
				s0.494-0.938,0.494-1.597c0-0.741-0.147-1.298-0.441-1.669c-0.294-0.37-0.616-0.557-0.967-0.557c-0.42,0-0.773,0.21-1.061,0.63
				s-0.451,1.071-0.492,1.953h-4.096c0.027-1.834,0.553-3.248,1.575-4.242c1.021-0.994,2.358-1.49,4.011-1.49
				c1.708,0,3.059,0.496,4.053,1.49s1.491,2.24,1.491,3.738c0,0.77-0.21,1.533-0.63,2.289s-0.959,1.253-1.617,1.49
				c0.715,0.309,1.313,0.865,1.796,1.67C153.74,137.29,153.981,138.119,153.981,138.973z"/>
			<path fill="#282828" d="M166.371,138.994c0,1.639-0.519,2.961-1.555,3.969c-1.035,1.008-2.365,1.512-3.99,1.512
				c-1.609,0-2.943-0.507-4-1.521c-1.057-1.016-1.586-2.335-1.586-3.959v-7.729c0-1.498,0.525-2.781,1.576-3.854
				c1.049-1.07,2.387-1.605,4.01-1.605c1.625,0,2.955,0.528,3.99,1.585c1.036,1.058,1.555,2.349,1.555,3.874V138.994z
				 M162.275,131.329c0-0.784-0.133-1.379-0.398-1.785c-0.266-0.405-0.616-0.608-1.051-0.608c-0.434,0-0.787,0.207-1.061,0.619
				c-0.272,0.413-0.408,1.005-0.408,1.774v7.644c0,0.756,0.136,1.338,0.408,1.744c0.273,0.406,0.627,0.608,1.061,0.608
				c0.449,0,0.802-0.2,1.061-0.599c0.26-0.398,0.389-0.983,0.389-1.754V131.329z"/>
		</g>
	</g>
	<g>
		<path fill="#FECB66" d="M103.865,45.127V21.354c0-10.212-8.277-18.491-18.489-18.491l0,0c-10.212,0-18.489,8.279-18.489,18.491
			v23.772H103.865z"/>
		<g>
			<path fill="#F5AD76" d="M90.657,9.758c-9.243,5.15-17.497,6.313-22.451,5.996c-0.434,1.385-0.655,2.827-0.661,4.28v4.067
				l3.304-0.105L90.657,13.43V9.758z"/>
			<rect x="66.887" y="27.959" fill="#F5AD76" width="18.489" height="17.168"/>
		</g>
		<path fill="#787D82" d="M103.865,54.53l-5.638-0.699l-2.484-0.304L85.376,76.825L75.021,53.527l-2.483,0.304l-5.651,0.699
			c-5.286,0.665-9.248,5.16-9.246,10.487v15.769h55.471V65.018C113.111,59.69,109.149,55.195,103.865,54.53z"/>
		<g>
			<polygon fill="#868C91" points="76.131,66.26 74.811,71.541 85.376,76.825 75.021,53.514 72.538,53.831 66.887,66.26 			"/>
			<polygon fill="#868C91" points="94.619,66.26 103.865,66.26 98.214,53.831 95.729,53.514 85.376,76.825 95.941,71.541 			"/>
		</g>
		<polygon fill="#EBEBEB" points="85.376,76.825 90.657,64.938 80.093,64.938 		"/>
		<path fill="#FEDAC6" d="M94.291,53.343c-1.33-0.17-2.323-1.304-2.312-2.644v-5.572H78.773v5.588
			c0.009,1.338-0.982,2.473-2.311,2.64l-1.441,0.186l5.071,11.398H90.66l5.069-11.411L94.291,53.343z"/>
		<path fill="#F5C4B0" d="M91.979,51.124v-5.997H78.773v5.997C83.726,53.698,87.027,53.698,91.979,51.124z"/>
		<path fill="#FEDAC6" d="M70.849,22.676l0.726,11.885c0.335,7.622,6.782,13.531,14.405,13.199
			c7.156-0.314,12.884-6.044,13.199-13.199l0.726-11.885l-9.247-9.246L70.849,22.676z"/>
		<path fill="#F5C4B0" d="M77.848,28.301l-0.396-9.245c-2.116,1.36-4.321,2.568-6.604,3.62l1.108,12.242
			c0.289,6.222,4.7,11.482,10.777,12.851l-1.757-3.262C78.046,39.079,77.848,34.482,77.848,28.301z"/>
		<path fill="#FEDAC6" d="M101.225,23.996h-1.32v7.925h1.32c2.188,0,3.963-1.774,3.963-3.962
			C105.188,25.769,103.412,23.996,101.225,23.996z"/>
		<path fill="#F5C4B0" d="M65.564,27.959c0,2.188,1.773,3.962,3.962,3.962h1.322v-7.925h-1.322
			C67.338,23.996,65.564,25.769,65.564,27.959z"/>
		<path d="M84.957,34.493l-3.962-1.32c-0.691-0.229-1.065-0.979-0.834-1.671l2.643-7.924l2.504,0.836l-2.223,6.672l2.708,0.902
			L84.957,34.493z"/>
		<path d="M101.225,33.24h-1.32V30.6h1.32c1.457,0,2.641-1.186,2.641-2.641c0-1.459-1.184-2.644-2.641-2.644h-1.32v-2.642h1.32
			c2.912,0,5.282,2.369,5.282,5.283S104.137,33.24,101.225,33.24z"/>
		<path d="M85.376,49.09c-8.12,0-14.765-6.357-15.121-14.471l-0.726-11.865l2.637-0.16l0.727,11.887
			c0.295,6.721,5.779,11.967,12.483,11.967c6.703,0,12.187-5.246,12.481-11.943l0.729-11.91l2.635,0.162l-0.726,11.887
			C100.141,42.734,93.496,49.09,85.376,49.09z"/>
		<path d="M83.742,39.844H83.74h-1.006v-2.642h1.004h0.004c1.729,0,3.461-0.408,5.006-1.182l1.181,2.362
			C88.019,39.341,85.879,39.844,83.742,39.844z"/>
		<path d="M71.471,25.16l-1.244-2.331l19.811-10.565c0.541-0.287,1.213-0.166,1.617,0.296l9.245,10.564l-1.989,1.741l-8.555-9.778
			L71.471,25.16z"/>
		<path d="M70.849,33.24h-1.322c-2.912,0-5.282-2.368-5.282-5.281c0-2.916,2.37-5.283,5.282-5.283h1.322v2.64h-1.322
			c-1.456,0-2.64,1.185-2.64,2.644c0,1.455,1.184,2.641,2.64,2.641h1.322V33.24L70.849,33.24z"/>
		<path id="SVGCleanerId_0_3_" d="M105.188,25.315h-2.644v-3.961c0-9.468-7.702-17.17-17.168-17.17
			c-9.468,0-17.17,7.702-17.17,17.17v3.961h-2.642v-3.961c0-10.925,8.887-19.812,19.812-19.812s19.812,8.887,19.812,19.812V25.315z"
			/>
		<rect x="89.338" y="4.185" width="2.642" height="9.245"/>
		<path id="SVGCleanerId_1_3_" d="M77.452,46.447H66.887c-0.73,0-1.322-0.591-1.322-1.32V30.6h2.642v13.207h9.246V46.447z"/>
		<path id="SVGCleanerId_2_3_" d="M103.865,46.447H93.301v-2.641h9.243V30.6h2.644v14.527
			C105.188,45.856,104.598,46.447,103.865,46.447z"/>
		<path d="M85.376,78.145c-0.521,0-0.995-0.306-1.205-0.784L73.603,53.587l2.412-1.073l9.361,21.059l9.359-21.058l2.412,1.075
			L86.583,77.362C86.37,77.839,85.898,78.145,85.376,78.145z"/>
		<path d="M58.962,80.786h-2.644V65.018c0-5.979,4.471-11.051,10.401-11.798l9.566-1.188c0.66-0.083,1.158-0.652,1.152-1.322v-4.263
			h2.644v4.252c0.015,2.001-1.476,3.704-3.469,3.952l-9.563,1.189c-4.613,0.581-8.09,4.526-8.089,9.177V80.786z"/>
		<path d="M114.432,80.786h-2.642V65.018c0.003-4.65-3.475-8.596-8.089-9.176l-9.562-1.188c-1.992-0.249-3.483-1.953-3.467-3.962
			v-4.244h2.641v4.252c-0.006,0.681,0.491,1.25,1.154,1.333l9.562,1.188c5.933,0.747,10.403,5.818,10.402,11.798V80.786z"/>
		<path d="M84.785,78.006l-10.564-5.281c-0.554-0.278-0.843-0.902-0.692-1.503l0.91-3.644h-7.552c-0.447,0-0.865-0.225-1.105-0.6
			c-0.246-0.375-0.284-0.848-0.102-1.256l5.284-11.887l2.411,1.073l-4.456,10.029h7.212c0.407,0,0.791,0.188,1.042,0.508
			c0.247,0.32,0.338,0.738,0.238,1.132l-1.064,4.255l9.62,4.811L84.785,78.006z"/>
		<rect x="84.055" y="76.825" width="2.644" height="3.961"/>
		<path d="M85.967,78.006l-1.183-2.362l9.617-4.811l-1.062-4.255c-0.101-0.395-0.012-0.812,0.238-1.132
			c0.252-0.32,0.637-0.508,1.045-0.508h7.211l-4.458-10.029l2.415-1.075l5.281,11.887c0.184,0.41,0.145,0.881-0.098,1.257
			c-0.242,0.374-0.66,0.601-1.109,0.601h-7.552l0.907,3.644c0.15,0.601-0.136,1.225-0.688,1.503L85.967,78.006z"/>
		<rect x="80.093" y="63.616" width="10.567" height="2.644"/>
		<g>
			<path id="SVGCleanerId_0_2_" d="M105.188,25.315h-2.644v-3.961c0-9.468-7.702-17.17-17.168-17.17
				c-9.468,0-17.17,7.702-17.17,17.17v3.961h-2.642v-3.961c0-10.925,8.887-19.812,19.812-19.812s19.812,8.887,19.812,19.812V25.315z
				"/>
		</g>
		<g>
			<path id="SVGCleanerId_1_2_" d="M77.452,46.447H66.887c-0.73,0-1.322-0.591-1.322-1.32V30.6h2.642v13.207h9.246V46.447z"/>
		</g>
		<g>
			<path id="SVGCleanerId_2_2_" d="M103.865,46.447H93.301v-2.641h9.243V30.6h2.644v14.527
				C105.188,45.856,104.598,46.447,103.865,46.447z"/>
		</g>
		<circle cx="92.708" cy="24.868" r="2.642"/>
		<path d="M76.858,22.227c1.459,0,2.642,1.184,2.642,2.642s-1.183,2.642-2.642,2.642c-1.456,0-2.64-1.184-2.64-2.642
			S75.402,22.227,76.858,22.227z"/>
	</g>
	<path fill="#282828" d="M145.393,108.359H25.357c-8.709,0-15.768-7.06-15.768-15.767l0,0c0-8.708,7.059-15.768,15.768-15.768
		h120.035c8.709,0,15.768,7.06,15.768,15.768l0,0C161.16,101.3,154.102,108.359,145.393,108.359z"/>
	<g>
		<g>
			<path fill="#FFFFFF" d="M46.496,85.936c0.113,0,0.195,0.029,0.246,0.086s0.076,0.136,0.076,0.238
				c-0.227,1.779-0.908,3.326-2.048,4.641s-2.763,2.346-4.87,3.094l-0.816-0.833c1.938-0.612,3.453-1.442,4.547-2.491
				c1.094-1.047,1.771-2.32,2.032-3.816h-5.661v-0.918H46.496z M46.207,94.555c1.598,0,2.839,0.289,3.723,0.867
				c0.885,0.578,1.326,1.293,1.326,2.143c0,0.861-0.441,1.578-1.326,2.15c-0.884,0.572-2.125,0.858-3.723,0.858
				c-1.576,0-2.809-0.286-3.697-0.858c-0.891-0.572-1.335-1.289-1.335-2.15c0-0.85,0.444-1.564,1.335-2.143
				C43.398,94.844,44.631,94.555,46.207,94.555z M46.207,95.439c-0.544,0-1.055,0.048-1.53,0.145
				c-0.476,0.096-0.89,0.234-1.241,0.416c-0.362,0.17-0.643,0.389-0.841,0.654c-0.198,0.267-0.298,0.57-0.298,0.91
				s0.102,0.64,0.307,0.9c0.203,0.261,0.48,0.482,0.832,0.663s0.766,0.32,1.241,0.417c0.476,0.096,0.986,0.145,1.53,0.145
				c0.555,0,1.07-0.049,1.547-0.145c0.477-0.097,0.89-0.236,1.241-0.417c0.351-0.181,0.629-0.402,0.833-0.663s0.306-0.561,0.306-0.9
				c0-0.68-0.374-1.205-1.122-1.572C48.264,95.623,47.329,95.439,46.207,95.439z M49.861,85.205h1.055v3.842h2.193v0.918h-2.193
				v4.387h-1.055V85.205z"/>
			<path fill="#FFFFFF" d="M54.894,86.123h7.905v0.918h-3.451v1.547c0,1.53,0.343,2.907,1.028,4.131
				c0.687,1.225,1.811,2.301,3.374,3.23l-0.866,0.816c-0.907-0.602-1.72-1.338-2.439-2.211c-0.72-0.872-1.267-1.842-1.641-2.906
				c-0.317,1.11-0.841,2.142-1.572,3.094s-1.544,1.768-2.44,2.447l-1.02-0.748c1.428-0.918,2.53-2.064,3.307-3.441
				s1.164-2.961,1.164-4.752v-1.207h-3.349V86.123z M65.502,85.205h1.088v15.096h-1.088V85.205z"/>
			<path fill="#FFFFFF" d="M68.545,93.654h13.838v0.918h-6.324v5.729h-1.088v-5.729h-6.426V93.654z M74.886,85.596h1.14v0.731
				c0,0.589,0.146,1.134,0.441,1.632c0.295,0.499,0.703,0.947,1.225,1.344c0.51,0.396,1.107,0.742,1.793,1.037
				c0.686,0.294,1.414,0.521,2.185,0.68l-0.782,0.918c-0.59-0.147-1.164-0.34-1.725-0.578c-0.562-0.238-1.086-0.516-1.573-0.833
				c-0.476-0.317-0.898-0.675-1.267-1.071s-0.648-0.833-0.842-1.309c-0.498,0.986-1.229,1.779-2.192,2.38
				c-0.964,0.601-2.046,1.071-3.247,1.411l-0.833-0.885c0.771-0.17,1.501-0.398,2.192-0.688s1.293-0.633,1.803-1.029
				c0.521-0.396,0.932-0.844,1.232-1.343c0.3-0.499,0.45-1.048,0.45-1.649V85.596z"/>
			<path fill="#FFFFFF" d="M94.844,96.051c0,0.137-0.023,0.225-0.068,0.264c-0.045,0.04-0.125,0.06-0.238,0.06h-4.726
				c-0.136,0-0.224-0.02-0.264-0.06c-0.04-0.039-0.06-0.127-0.06-0.264V86.6c0-0.125,0.02-0.21,0.06-0.256
				c0.04-0.045,0.128-0.067,0.264-0.067h4.726c0.113,0,0.193,0.022,0.238,0.067c0.045,0.046,0.068,0.131,0.068,0.256V96.051z
				 M90.508,87.178v8.278h3.315v-8.278H90.508z M96.611,85.46h1.088v5.101h2.21v-5.355h1.089v15.096h-1.089v-8.755h-2.21v8.041
				h-1.088V85.46z"/>
			<path fill="#FFFFFF" d="M104.856,96.307c-0.124,0-0.21-0.025-0.255-0.077c-0.045-0.051-0.068-0.133-0.068-0.247V85.885h1.105
				v9.418l3.35-0.033c0.361-0.012,0.764-0.04,1.206-0.086c0.442-0.045,0.878-0.102,1.31-0.17c0.441-0.057,0.858-0.119,1.249-0.187
				c0.392-0.067,0.717-0.13,0.978-0.187v1.002c-0.25,0.058-0.561,0.117-0.936,0.18c-0.373,0.063-0.775,0.121-1.207,0.178
				c-0.441,0.057-0.892,0.111-1.351,0.162c-0.46,0.051-0.893,0.082-1.301,0.094c-0.51,0.021-1.006,0.036-1.487,0.042
				c-0.482,0.006-0.91,0.009-1.283,0.009c-0.386,0.011-0.697,0.014-0.936,0.008S104.867,96.307,104.856,96.307z M114.428,85.205
				h1.088v15.096h-1.088V85.205z"/>
			<path fill="#FFFFFF" d="M119.119,86.123h7.905v0.918h-3.451v1.547c0,1.53,0.343,2.907,1.028,4.131
				c0.686,1.225,1.811,2.301,3.375,3.23l-0.867,0.816c-0.906-0.602-1.721-1.338-2.439-2.211c-0.72-0.872-1.267-1.842-1.641-2.906
				c-0.317,1.11-0.842,2.142-1.572,3.094c-0.731,0.952-1.545,1.768-2.439,2.447l-1.021-0.748c1.429-0.918,2.53-2.064,3.307-3.441
				s1.165-2.961,1.165-4.752v-1.207h-3.35V86.123z M129.728,85.205h1.088v15.096h-1.088v-9.367h-3.451v-0.935h3.451V85.205z"/>
		</g>
	</g>
</g>
</svg>
