<?xml version="1.0" encoding="utf-8"?>
<!-- Generator: Adobe Illustrator 16.0.0, SVG Export Plug-In . SVG Version: 6.00 Build 0)  -->
<!DOCTYPE svg PUBLIC "-//W3C//DTD SVG 1.1//EN" "http://www.w3.org/Graphics/SVG/1.1/DTD/svg11.dtd">
<svg version="1.1" id="Layer_1" xmlns="http://www.w3.org/2000/svg" xmlns:xlink="http://www.w3.org/1999/xlink" x="0px" y="0px"
	 width="135px" height="135px" viewBox="0 0 135 135" enable-background="new 0 0 135 135" xml:space="preserve">
<g>
	<g>
		<g>
			<path d="M112.606,64.247c-0.107-1.487-1.396-2.604-2.886-2.498c-1.487,0.106-2.605,1.398-2.499,2.886
				c0.067,0.918,0.099,1.861,0.099,2.8c0,21.519-17.506,39.025-39.023,39.025c-21.519,0-39.025-17.507-39.025-39.025
				S46.778,28.41,68.297,28.41c8.522,0,16.615,2.697,23.404,7.799c1.192,0.896,2.885,0.654,3.78-0.537s0.655-2.884-0.536-3.779
				c-7.732-5.81-16.947-8.881-26.648-8.881c-24.495,0-44.424,19.928-44.424,44.423s19.929,44.423,44.424,44.423
				s44.424-19.928,44.424-44.423C112.721,66.367,112.682,65.294,112.606,64.247z"/>
		</g>
	</g>
	<path d="M121.816,29.111c-4.105-4.105-10.785-4.105-14.892,0L68.034,68.003L54.247,54.216c-4.105-4.105-10.786-4.105-14.892,0
		s-4.105,10.786,0,14.892L63.1,92.852c1.361,1.36,3.147,2.041,4.935,2.041c1.788,0,3.573-0.681,4.933-2.041l48.85-48.849
		C125.922,39.897,125.922,33.218,121.816,29.111z"/>
	<path fill="#E8454A" d="M118,40.186l-48.849,48.85c-0.616,0.615-1.618,0.615-2.234,0L43.173,65.291
		c-2.001-2.001-2.001-5.257,0-7.258c1-1.001,2.314-1.501,3.629-1.501c1.313,0,2.628,0.501,3.628,1.501l14.182,14.184
		c0.915,0.913,2.131,1.416,3.423,1.416c1.293,0,2.507-0.503,3.422-1.417l39.287-39.287c2-2.001,5.256-2.001,7.257,0
		C120,34.93,120,38.186,118,40.186z"/>
</g>
</svg>
