<?xml version="1.0" encoding="utf-8"?>
<!-- Generator: Adobe Illustrator 16.0.0, SVG Export Plug-In . SVG Version: 6.00 Build 0)  -->
<!DOCTYPE svg PUBLIC "-//W3C//DTD SVG 1.1//EN" "http://www.w3.org/Graphics/SVG/1.1/DTD/svg11.dtd">
<svg version="1.1" id="Layer_1" xmlns="http://www.w3.org/2000/svg" xmlns:xlink="http://www.w3.org/1999/xlink" x="0px" y="0px"
	 width="24px" height="24px" viewBox="0 0 24 24" enable-background="new 0 0 24 24" xml:space="preserve">
<g>
	<path fill="#4FBCBC" d="M11.994,22.002c-2.629,0-5.175-1.035-7.069-2.931c-3.9-3.898-3.9-10.245,0-14.145
		c1.889-1.888,4.4-2.929,7.072-2.929s5.185,1.042,7.072,2.929c2.354,2.353,3.381,5.712,2.747,8.981
		c-0.033,0.153-0.726,3.079-2.956,4.625c-0.397,0.274-0.945,0.178-1.222-0.219c-0.277-0.398-0.179-0.945,0.22-1.223
		c1.65-1.146,2.233-3.52,2.239-3.545c0.517-2.668-0.33-5.436-2.269-7.376c-3.214-3.213-8.445-3.214-11.663,0
		c-3.214,3.214-3.214,8.445,0,11.66c1.94,1.943,4.709,2.791,7.408,2.262c0.474-0.088,0.935,0.22,1.028,0.698
		c0.092,0.476-0.22,0.938-0.694,1.029C13.27,21.942,12.63,22.002,11.994,22.002z"/>
	<path fill="#282828" d="M11.734,10.494c-0.343-0.343-0.899-0.343-1.24,0c-0.345,0.343-0.345,0.899,0,1.243l9.4,9.403
		c0.173,0.17,0.397,0.256,0.621,0.256c0.225,0,0.449-0.086,0.621-0.256c0.345-0.344,0.345-0.899,0-1.243L11.734,10.494z"/>
</g>
</svg>
