<?xml version="1.0" encoding="utf-8"?>
<!-- Generator: Adobe Illustrator 21.0.0, SVG Export Plug-In . SVG Version: 6.00 Build 0)  -->
<svg version="1.1" id="Layer_1" xmlns="http://www.w3.org/2000/svg" xmlns:xlink="http://www.w3.org/1999/xlink" x="0px" y="0px"
	 viewBox="0 0 126 24" style="enable-background:new 0 0 126 24;" xml:space="preserve">
<style type="text/css">
	.st0{fill:#383838;}
	.st1{fill:#FFFFFF;}
</style>
<g>
	<polygon class="st0" points="108.4,1.5 108.4,22.5 124.6,12.2 	"/>
	<rect x="1.4" y="11.6" class="st0" width="1.5" height="1"/>
	<rect x="36.3" y="11.6" class="st0" width="3" height="1"/>
	<rect x="42.4" y="11.6" class="st0" width="3" height="1"/>
	<rect x="48.4" y="11.6" class="st0" width="3" height="1"/>
	<rect x="30.2" y="11.6" class="st0" width="3" height="1"/>
	<rect x="12" y="11.6" class="st0" width="3" height="1"/>
	<rect x="24.2" y="11.6" class="st0" width="3" height="1"/>
	<rect x="6" y="11.6" class="st0" width="3" height="1"/>
	<rect x="18.1" y="11.6" class="st0" width="3" height="1"/>
	<rect x="54.5" y="11.6" class="st0" width="3" height="1"/>
	<rect x="97" y="11.6" class="st0" width="3" height="1"/>
	<rect x="84.8" y="11.6" class="st0" width="3" height="1"/>
	<rect x="90.9" y="11.6" class="st0" width="3" height="1"/>
	<rect x="103" y="11.6" class="st0" width="3" height="1"/>
	<rect x="60.6" y="11.6" class="st0" width="3" height="1"/>
	<rect x="78.8" y="11.6" class="st0" width="3" height="1"/>
	<rect x="66.6" y="11.6" class="st0" width="3" height="1"/>
	<rect x="72.7" y="11.6" class="st0" width="3" height="1"/>
</g>
</svg>
