<?xml version="1.0" encoding="utf-8"?>
<!-- Generator: Adobe Illustrator 21.0.0, SVG Export Plug-In . SVG Version: 6.00 Build 0)  -->
<svg version="1.1" id="Layer_1" xmlns="http://www.w3.org/2000/svg" xmlns:xlink="http://www.w3.org/1999/xlink" x="0px" y="0px"
	 viewBox="0 0 34 34" style="enable-background:new 0 0 34 34;" xml:space="preserve">
<style type="text/css">
	.st0{fill:#383838;}
	.st1{fill:#FFFFFF;}
</style>
<g>
	<path class="st1" d="M32,33c-0.3,0-0.5-0.1-0.7-0.3l-30-30c-0.4-0.4-0.4-1,0-1.4s1-0.4,1.4,0l30,30c0.4,0.4,0.4,1,0,1.4
		C32.5,32.9,32.3,33,32,33z"/>
	<path class="st1" d="M2,33c-0.3,0-0.5-0.1-0.7-0.3c-0.4-0.4-0.4-1,0-1.4l30-30c0.4-0.4,1-0.4,1.4,0s0.4,1,0,1.4l-30,30
		C2.5,32.9,2.3,33,2,33z"/>
</g>
</svg>
