<?xml version="1.0" encoding="utf-8"?>
<!-- Generator: Adobe Illustrator 21.0.0, SVG Export Plug-In . SVG Version: 6.00 Build 0)  -->
<svg version="1.1" id="Layer_1" xmlns="http://www.w3.org/2000/svg" xmlns:xlink="http://www.w3.org/1999/xlink" x="0px" y="0px"
	 viewBox="0 0 126 24" style="enable-background:new 0 0 126 24;" xml:space="preserve">
<style type="text/css">
	.st0{fill:#383838;}
	.st1{fill:#FFFFFF;}
</style>
<g>
	<polygon class="st0" points="17.7,22.5 17.7,1.5 1.5,11.8 	"/>
	<rect x="50.2" y="11.7" class="st0" width="3" height="1"/>
	<rect x="44.1" y="11.7" class="st0" width="3" height="1"/>
	<rect x="56.3" y="11.7" class="st0" width="3" height="1"/>
	<rect x="62.3" y="11.7" class="st0" width="3" height="1"/>
	<rect x="68.4" y="11.7" class="st0" width="3" height="1"/>
	<rect x="38.1" y="11.7" class="st0" width="3" height="1"/>
	<rect x="19.9" y="11.7" class="st0" width="3" height="1"/>
	<rect x="32" y="11.7" class="st0" width="3" height="1"/>
	<rect x="25.9" y="11.7" class="st0" width="3" height="1"/>
	<rect x="98.7" y="11.7" class="st0" width="3" height="1"/>
	<rect x="74.5" y="11.7" class="st0" width="3" height="1"/>
	<rect x="110.9" y="11.7" class="st0" width="3" height="1"/>
	<rect x="116.9" y="11.7" class="st0" width="3" height="1"/>
	<rect x="104.8" y="11.7" class="st0" width="3" height="1"/>
	<rect x="92.7" y="11.7" class="st0" width="3" height="1"/>
	<rect x="80.5" y="11.7" class="st0" width="3" height="1"/>
	<rect x="86.6" y="11.7" class="st0" width="3" height="1"/>
	<rect x="123" y="11.7" class="st0" width="1.5" height="1"/>
</g>
</svg>
