<?xml version="1.0" encoding="utf-8"?>
<!-- Generator: Adobe Illustrator 21.0.0, SVG Export Plug-In . SVG Version: 6.00 Build 0)  -->
<svg version="1.1" id="Layer_1" xmlns="http://www.w3.org/2000/svg" xmlns:xlink="http://www.w3.org/1999/xlink" x="0px" y="0px"
	 viewBox="0 0 34 24" style="enable-background:new 0 0 34 24;" xml:space="preserve">
<style type="text/css">
	.st0{fill:#383838;}
	.st1{fill:#FFFFFF;}
</style>
<g>
	<path class="st1" d="M32,3H2C1.4,3,1,2.6,1,2s0.4-1,1-1h30c0.6,0,1,0.4,1,1S32.6,3,32,3z"/>
	<path class="st1" d="M32,13H2c-0.6,0-1-0.4-1-1s0.4-1,1-1h30c0.6,0,1,0.4,1,1S32.6,13,32,13z"/>
	<path class="st1" d="M32,23H2c-0.6,0-1-0.4-1-1s0.4-1,1-1h30c0.6,0,1,0.4,1,1S32.6,23,32,23z"/>
</g>
</svg>
