<?xml version="1.0" encoding="utf-8"?>
<!-- Generator: Adobe Illustrator 16.0.0, SVG Export Plug-In . SVG Version: 6.00 Build 0)  -->
<!DOCTYPE svg PUBLIC "-//W3C//DTD SVG 1.1//EN" "http://www.w3.org/Graphics/SVG/1.1/DTD/svg11.dtd">
<svg version="1.1" id="Layer_1" xmlns="http://www.w3.org/2000/svg" xmlns:xlink="http://www.w3.org/1999/xlink" x="0px" y="0px"
	 width="174px" height="48px" viewBox="0 0 174 48" enable-background="new 0 0 174 48" xml:space="preserve">
<g>
	<path fill="#4FBCBC" d="M48.774,43.539c-2.593,0-5.106-1.021-6.976-2.892c-3.847-3.847-3.847-10.108,0-13.956
		c1.864-1.863,4.343-2.891,6.978-2.891c2.637,0,5.116,1.027,6.979,2.891c2.322,2.321,3.335,5.636,2.709,8.861
		c-0.034,0.15-0.715,3.037-2.916,4.565c-0.393,0.269-0.934,0.173-1.206-0.219c-0.273-0.393-0.176-0.933,0.217-1.207
		c1.628-1.13,2.203-3.473,2.209-3.497c0.509-2.633-0.326-5.363-2.239-7.278c-3.17-3.17-8.333-3.172-11.506,0
		c-3.172,3.172-3.172,8.333,0,11.505c1.914,1.916,4.646,2.755,7.308,2.232c0.469-0.088,0.924,0.217,1.016,0.688
		c0.091,0.47-0.216,0.925-0.686,1.016C50.032,43.479,49.401,43.539,48.774,43.539z"/>
	<g>
		<path fill="#FFFFFF" d="M15.68,41.904c-4.689,0-8.342-2.727-8.342-8.67v-9.722h8.615v-1.636H7.337V5.21H5.701v16.667H3.248v1.636
			h2.453v9.722c0,7.034,4.417,10.305,9.979,10.305c0.436,0,0.981,0,1.473-0.055l-0.219-1.635
			C16.443,41.904,16.007,41.904,15.68,41.904z"/>
		<path fill="#FFFFFF" d="M134.219,41.904c-4.689,0-8.342-2.727-8.342-8.67v-9.722h8.615v-1.636h-8.615V5.21h-1.636v16.667h-2.454
			v1.636h2.454v9.722c0,7.034,4.416,10.305,9.978,10.305c0.436,0,0.981,0,1.472-0.055l-0.219-1.635
			C134.982,41.904,134.546,41.904,134.219,41.904z"/>
		<path fill="#FFFFFF" d="M24.715,22.338c-0.368,0-0.812,0.007-1.237,0.04V5.268h-1.635v38.217h1.635V24.027
			c0.483-0.053,0.914-0.054,1.237-0.054c4.689,0,8.342,2.726,8.342,8.67v10.841h1.636V32.644
			C34.693,25.609,30.277,22.338,24.715,22.338z"/>
		<path fill="#FFFFFF" d="M167.945,22.333c-3.515,0.001-6.567,1.313-8.341,4.05l-0.002-4.513l-1.635,0.001l0.004,10.77v0.001
			l0.003,10.842l1.636-0.001l-0.004-10.842c-0.002-5.943,3.65-8.671,8.339-8.672c0.327,0,0.763-0.001,1.254,0.054l0.218-1.636
			C168.927,22.332,168.381,22.332,167.945,22.333z"/>
		<polygon fill="#FFFFFF" points="89.448,5.317 64.039,5.317 64.039,6.953 75.925,6.953 75.925,43.484 77.561,43.484 77.561,6.953 
			89.448,6.953 		"/>
		<path fill="#FFFFFF" d="M93.012,21.855c-4.685,0-8.496,4.279-8.496,9.538v0.833h0.021v1.072c0,7.033,4.416,10.305,9.977,10.305
			c0.437,0,0.982,0,1.473-0.054l-0.219-1.636c-0.49,0.055-0.926,0.055-1.254,0.055c-4.688,0-8.342-2.727-8.342-8.67v-1.072h15.336
			v-0.833C101.508,26.135,97.697,21.855,93.012,21.855z M86.22,30.561c0.362-3.95,3.27-7.038,6.792-7.038s6.43,3.088,6.792,7.038
			H86.22z"/>
		<path fill="#FFFFFF" d="M154.114,31.394c-0.002-5.259-3.813-9.535-8.498-9.535c0,0-0.001,0-0.002,0
			c-2.29,0.001-4.436,1.008-6.043,2.834c-1.581,1.798-2.451,4.179-2.45,6.707l0,0.833h0.021l0,1.072
			c0.002,7.033,4.42,10.304,9.982,10.302c0.436-0.001,0.981-0.001,1.472-0.055l-0.219-1.636c-0.491,0.055-0.927,0.055-1.254,0.055
			c-4.689,0.002-8.343-2.724-8.345-8.667l0-1.071l15.336-0.006L154.114,31.394z M138.825,30.565
			c0.163-1.806,0.857-3.477,1.997-4.772c1.287-1.462,2.988-2.268,4.793-2.269h0.001c3.521,0,6.429,3.087,6.793,7.036L138.825,30.565
			z"/>
		<path fill="#FFFFFF" d="M111.827,32.204c-2.539-0.436-5.565-1.431-5.565-3.694c0-2.614,2.903-4.441,7.06-4.441
			c0.979,0,2.585,0.313,3.582,0.696l0.214,0.082l0.635-1.48l-0.223-0.092c-1.089-0.451-2.938-0.804-4.208-0.804
			c-5.017,0-8.659,2.54-8.659,6.039c0,2.67,2.463,4.548,6.935,5.287c2.539,0.436,5.566,1.431,5.566,3.695
			c0,2.613-2.904,4.439-7.06,4.439c-0.979,0-2.585-0.312-3.582-0.695l-0.214-0.082l-0.635,1.48l0.223,0.092
			c1.089,0.451,2.937,0.804,4.208,0.804c5.017,0,8.659-2.54,8.659-6.038C118.762,34.82,116.299,32.943,111.827,32.204z"/>
		<path fill="#FFFFFF" d="M48.518,32.185c-0.338-0.339-0.887-0.339-1.226,0c-0.338,0.338-0.338,0.887,0,1.226l9.278,9.277
			c0.169,0.169,0.391,0.254,0.612,0.254c0.222,0,0.444-0.085,0.613-0.254c0.338-0.339,0.338-0.887,0-1.226L48.518,32.185z"/>
	</g>
</g>
</svg>
