<?xml version="1.0" encoding="utf-8"?>
<!-- Generator: Adobe Illustrator 16.0.0, SVG Export Plug-In . SVG Version: 6.00 Build 0)  -->
<!DOCTYPE svg PUBLIC "-//W3C//DTD SVG 1.1//EN" "http://www.w3.org/Graphics/SVG/1.1/DTD/svg11.dtd">
<svg version="1.1" id="Layer_1" xmlns="http://www.w3.org/2000/svg" xmlns:xlink="http://www.w3.org/1999/xlink" x="0px" y="0px"
	 width="266px" height="86px" viewBox="0 0 266 86" enable-background="new 0 0 266 86" xml:space="preserve">
<g>
	<g>
		<path fill="#FFFFFF" d="M53.128,41.114l13.55,36.95h-3.5l-3.6-10.25h-17.4l-3.6,10.25h-3.5l13.5-36.95
			c0.1-0.2,0.225-0.375,0.375-0.525c0.149-0.149,0.375-0.225,0.675-0.225h2.45c0.3,0,0.524,0.075,0.675,0.225
			C52.903,40.739,53.028,40.914,53.128,41.114z M43.128,65.014h15.5l-5.75-16.199l-2-6.101l-2,6.101L43.128,65.014z"/>
		<path fill="#FFFFFF" d="M74.228,74.564l-0.2,3.5h-3.2c0.101-0.301,0.184-0.859,0.25-1.676s0.101-1.524,0.101-2.125V40.114h3v17
			c0.666-1.633,1.767-2.925,3.3-3.875s3.166-1.425,4.9-1.425c1.5,0,2.916,0.258,4.25,0.774c1.332,0.518,2.5,1.325,3.5,2.425
			c1,1.067,1.791,2.442,2.375,4.125c0.582,1.684,0.875,3.676,0.875,5.976c0,4.467-1.018,7.875-3.051,10.225
			c-2.033,2.351-4.684,3.525-7.949,3.525c-1.968,0-3.625-0.367-4.976-1.101C76.053,77.03,74.994,75.964,74.228,74.564z
			 M82.228,54.414c-1.033,0-2.042,0.225-3.025,0.675s-1.842,1.108-2.574,1.976c-0.768,0.867-1.375,1.949-1.825,3.25
			c-0.45,1.3-0.675,2.8-0.675,4.5c0,3.934,0.657,6.816,1.975,8.649c1.316,1.834,3.491,2.75,6.525,2.75c2.366,0,4.241-1,5.625-3
			c1.383-2,2.074-4.75,2.074-8.25c0-1.866-0.217-3.466-0.649-4.8c-0.434-1.333-1.018-2.433-1.75-3.3
			c-0.768-0.833-1.634-1.45-2.601-1.851C84.36,54.614,83.327,54.414,82.228,54.414z"/>
		<path fill="#FFFFFF" d="M109.177,51.664c2,0,3.733,0.384,5.2,1.15s2.683,1.767,3.65,3c0.966,1.267,1.691,2.708,2.175,4.324
			c0.482,1.617,0.725,3.293,0.725,5.025c0,1.768-0.242,3.459-0.725,5.075c-0.483,1.617-1.209,3.059-2.175,4.325
			c-0.968,1.233-2.184,2.225-3.65,2.975s-3.2,1.125-5.2,1.125s-3.717-0.375-5.149-1.125c-1.434-0.75-2.617-1.741-3.55-2.975
			c-0.934-1.267-1.617-2.708-2.051-4.325c-0.434-1.616-0.649-3.308-0.649-5.075c0-1.732,0.216-3.408,0.649-5.025
			c0.434-1.616,1.117-3.058,2.051-4.324c0.933-1.233,2.116-2.233,3.55-3C105.46,52.048,107.177,51.664,109.177,51.664z
			 M117.978,65.164c0-1.2-0.176-2.45-0.525-3.75s-0.875-2.467-1.575-3.5c-0.733-1.066-1.649-1.941-2.75-2.625
			c-1.1-0.683-2.417-1.025-3.95-1.025s-2.842,0.343-3.925,1.025c-1.083,0.684-1.958,1.559-2.625,2.625c-0.7,1.033-1.2,2.2-1.5,3.5
			s-0.45,2.55-0.45,3.75c0,1.268,0.15,2.542,0.45,3.825s0.8,2.442,1.5,3.475c0.667,1.067,1.542,1.925,2.625,2.575
			s2.392,0.975,3.925,0.975s2.851-0.324,3.95-0.975c1.101-0.65,2.017-1.508,2.75-2.575c0.7-1.032,1.226-2.191,1.575-3.475
			S117.978,66.432,117.978,65.164z"/>
		<path fill="#FFFFFF" d="M144.178,78.064l0.149-4.301c-0.867,1.7-2.024,2.941-3.475,3.726c-1.45,0.782-3.075,1.175-4.875,1.175
			c-2.768,0-4.884-0.792-6.351-2.375s-2.199-3.908-2.199-6.975v-16.9h3v16.05c0,2.534,0.482,4.442,1.449,5.726
			s2.601,1.925,4.9,1.925c0.9,0,1.8-0.183,2.7-0.55c0.899-0.367,1.7-0.917,2.399-1.65c0.7-0.732,1.275-1.642,1.726-2.725
			s0.675-2.325,0.675-3.726v-15.05h2.7v25.65H144.178z"/>
		<path fill="#FFFFFF" d="M160.527,45.014v7.45h5.75v2.65h-5.75v17.25c0,1.7,0.332,2.783,1,3.25c0.666,0.467,1.5,0.7,2.5,0.7
			c0.3,0,0.591-0.009,0.875-0.025c0.282-0.018,0.524-0.042,0.725-0.075c0.232-0.033,0.433-0.075,0.6-0.125s0.301-0.091,0.4-0.125
			v2.4c-0.4,0.1-0.858,0.191-1.375,0.274c-0.518,0.083-1.042,0.125-1.575,0.125c-0.899,0-1.733-0.092-2.5-0.274
			c-0.767-0.184-1.417-0.525-1.95-1.025s-0.949-1.192-1.25-2.075c-0.3-0.883-0.449-2.024-0.449-3.425v-16.85h-5.051v-2.65h5.051
			v-7.45H160.527z"/>
		<path fill="#FFFFFF" d="M203.826,78.064l0.149-4.301c-0.867,1.7-2.024,2.941-3.475,3.726c-1.45,0.782-3.075,1.175-4.875,1.175
			c-2.768,0-4.884-0.792-6.351-2.375s-2.199-3.908-2.199-6.975v-16.9h3v16.05c0,2.534,0.482,4.442,1.449,5.726
			s2.601,1.925,4.9,1.925c0.9,0,1.8-0.183,2.7-0.55c0.899-0.367,1.7-0.917,2.399-1.65c0.7-0.732,1.275-1.642,1.726-2.725
			s0.675-2.325,0.675-3.726v-15.05h2.7v25.65H203.826z"/>
		<path fill="#FFFFFF" d="M214.125,58.764c0-1.3,0.258-2.407,0.775-3.324c0.517-0.917,1.208-1.642,2.075-2.176
			c0.833-0.566,1.791-0.975,2.875-1.225c1.083-0.25,2.175-0.375,3.274-0.375c2.4,0,4.458,0.5,6.176,1.5
			c1.716,1,2.707,2.817,2.975,5.45h-3.15c-0.133-1.667-0.824-2.816-2.074-3.45c-1.25-0.633-2.643-0.95-4.176-0.95
			c-0.699,0-1.399,0.075-2.1,0.226c-0.7,0.149-1.317,0.408-1.85,0.774c-0.567,0.334-1.018,0.784-1.351,1.351s-0.5,1.25-0.5,2.05
			c0,1.067,0.275,1.85,0.825,2.35s1.325,0.9,2.325,1.2c1,0.334,2.2,0.65,3.6,0.95c1.4,0.3,2.95,0.767,4.65,1.399
			c1.732,0.567,2.95,1.334,3.649,2.301c0.7,0.967,1.051,2.149,1.051,3.55c0,1.467-0.284,2.725-0.851,3.774
			c-0.567,1.051-1.333,1.909-2.3,2.575c-0.967,0.7-2.092,1.2-3.375,1.5s-2.643,0.45-4.075,0.45c-1.1,0-2.192-0.125-3.274-0.375
			c-1.084-0.25-2.075-0.675-2.976-1.275c-0.899-0.6-1.642-1.383-2.225-2.35c-0.584-0.967-0.893-2.15-0.925-3.55h3.149
			c0.033,1,0.267,1.817,0.7,2.45c0.433,0.633,0.967,1.149,1.6,1.55c0.667,0.367,1.4,0.617,2.2,0.75c0.8,0.134,1.616,0.2,2.45,0.2
			c0.8,0,1.607-0.092,2.425-0.275c0.816-0.183,1.558-0.491,2.226-0.925c0.633-0.4,1.149-0.933,1.55-1.601
			c0.399-0.666,0.6-1.482,0.6-2.449c0-1-0.242-1.792-0.725-2.375c-0.483-0.583-1.108-1.042-1.875-1.375
			c-0.8-0.367-1.684-0.65-2.65-0.851s-1.934-0.433-2.899-0.7c-1-0.232-1.976-0.482-2.926-0.75c-0.949-0.266-1.774-0.633-2.475-1.1
			c-0.733-0.5-1.317-1.133-1.75-1.9C214.342,60.998,214.125,59.998,214.125,58.764z"/>
	</g>
	<path fill="#4FBCBC" d="M31.868,57.992c-0.248,0-0.5-0.062-0.732-0.191C22.54,52.978,17.2,43.865,17.2,34.02
		c0-15.025,12.225-27.25,27.25-27.25c15.026,0,27.25,12.225,27.25,27.25c0,0.828-0.671,1.5-1.5,1.5c-0.828,0-1.5-0.672-1.5-1.5
		c0-13.371-10.878-24.25-24.25-24.25c-13.371,0-24.25,10.879-24.25,24.25c0,8.763,4.753,16.872,12.403,21.164
		c0.723,0.406,0.979,1.32,0.574,2.043C32.903,57.717,32.394,57.992,31.868,57.992z"/>
</g>
</svg>
