<?xml version="1.0" encoding="utf-8"?>
<!-- Generator: Adobe Illustrator 16.0.0, SVG Export Plug-In . SVG Version: 6.00 Build 0)  -->
<!DOCTYPE svg PUBLIC "-//W3C//DTD SVG 1.1//EN" "http://www.w3.org/Graphics/SVG/1.1/DTD/svg11.dtd">
<svg version="1.1" id="Layer_1" xmlns="http://www.w3.org/2000/svg" xmlns:xlink="http://www.w3.org/1999/xlink" x="0px" y="0px"
	 width="135px" height="135px" viewBox="0 0 135 135" enable-background="new 0 0 135 135" xml:space="preserve">
<g>
	<g>
		<g>
			<path fill="#E8454A" d="M61.827,46.148c0,2.357-1.914,4.248-4.248,4.248H16.59c-2.358,0-4.249-1.914-4.249-4.248V16.714
				c0-2.357,1.915-4.249,4.249-4.249h40.966c2.357,0,4.248,1.914,4.248,4.249v29.435H61.827z"/>
			<path d="M10.241,16.714v29.435c0,3.501,2.848,6.373,6.372,6.373h18.37v6.372h-6.139c-1.168,0-2.125,0.957-2.125,2.125
				c0,1.167,0.957,2.124,2.125,2.124h16.479c1.167,0,2.124-0.957,2.124-2.124c0-1.167-0.957-2.125-2.124-2.125h-6.139v-6.372h18.37
				c3.502,0,6.373-2.848,6.373-6.373V16.714c0-3.502-2.848-6.373-6.373-6.373H16.59C13.089,10.341,10.241,13.212,10.241,16.714z
				 M59.703,16.714v29.435c0,1.167-0.957,2.124-2.124,2.124H16.59c-1.167,0-2.124-0.957-2.124-2.124V16.714
				c0-1.167,0.957-2.125,2.124-2.125h40.966C58.746,14.589,59.703,15.546,59.703,16.714z"/>
			<path d="M75.202,33.543h20.309v22.246c0,0.256,0.047,0.513,0.14,0.747l-3.897-3.898c-0.818-0.817-2.172-0.817-2.988,0
				s-0.816,2.171,0,2.988l7.375,7.376c0.421,0.42,0.958,0.63,1.495,0.63c0.536,0,1.073-0.21,1.493-0.63l7.377-7.376
				c0.816-0.817,0.816-2.171,0-2.988s-2.172-0.817-2.988,0l-3.898,3.898c0.094-0.233,0.141-0.49,0.141-0.747V31.442
				c0-1.167-0.957-2.124-2.124-2.124H75.202c-1.166,0-2.124,0.957-2.124,2.124C73.103,32.61,74.036,33.543,75.202,33.543z"/>
			<path d="M34.96,103.827c0,1.167,0.957,2.125,2.125,2.125h22.432c1.167,0,2.124-0.958,2.124-2.125s-0.957-2.124-2.124-2.124
				H39.208V79.458c0-0.257-0.046-0.514-0.14-0.747l3.898,3.898c0.421,0.42,0.957,0.63,1.493,0.63c0.537,0,1.074-0.21,1.494-0.63
				c0.817-0.817,0.817-2.171,0-2.988l-7.375-7.376c-0.818-0.817-2.172-0.817-2.988,0l-7.377,7.376c-0.816,0.817-0.816,2.171,0,2.988
				c0.817,0.817,2.172,0.817,2.988,0l3.898-3.898c-0.094,0.233-0.141,0.49-0.141,0.747V103.827L34.96,103.827z"/>
			<path fill="#E8454A" d="M122.366,106.624c0,2.357-1.914,4.248-4.248,4.248h-40.99c-2.357,0-4.248-1.914-4.248-4.248V77.188
				c0-2.357,1.914-4.248,4.248-4.248h40.967c2.357,0,4.248,1.914,4.248,4.248v29.436H122.366z"/>
			<path d="M118.129,70.915H77.14c-3.502,0-6.372,2.848-6.372,6.373v29.411c0,3.501,2.848,6.373,6.372,6.373h18.371v6.372h-6.139
				c-1.168,0-2.125,0.957-2.125,2.124c0,1.168,0.957,2.124,2.125,2.124h16.502c1.168,0,2.125-0.956,2.125-2.124
				c0-1.167-0.957-2.124-2.125-2.124h-6.139v-6.372h18.371c3.5,0,6.372-2.848,6.372-6.373V77.264
				C124.479,73.762,121.63,70.915,118.129,70.915z M120.253,106.698c0,1.167-0.957,2.124-2.124,2.124H77.14
				c-1.167,0-2.124-0.957-2.124-2.124V77.264c0-1.167,0.957-2.124,2.124-2.124h40.967c1.166,0,2.123,0.957,2.123,2.124v29.435
				H120.253z"/>
		</g>
	</g>
	<path fill="#FFFFFF" d="M45.845,38.95c0,0.593-0.148,1.009-0.445,1.246s-0.762,0.356-1.395,0.356h-4.36
		c-0.634,0-1.097-0.119-1.394-0.356s-0.445-0.653-0.445-1.246c0-1.048,0.613-1.572,1.839-1.572h0.505l-0.594-1.69h-6.259
		l-0.622,1.69h0.504c0.633,0,1.098,0.114,1.395,0.341c0.296,0.228,0.444,0.638,0.444,1.231s-0.148,1.009-0.444,1.246
		c-0.297,0.237-0.762,0.356-1.395,0.356H29.44c-0.633,0-1.098-0.119-1.394-0.356c-0.297-0.237-0.444-0.653-0.444-1.246
		c0-1.048,0.533-1.572,1.602-1.572h0.236l3.886-10.797H32.14c-0.652,0-1.117-0.112-1.395-0.338
		c-0.276-0.226-0.414-0.642-0.414-1.249c0-1.058,0.612-1.587,1.838-1.587h5.43c0.612,0,1.027,0.097,1.245,0.291
		c0.158,0.135,0.346,0.503,0.563,1.103l4.598,12.577h0.237C45.31,37.378,45.845,37.902,45.845,38.95z M38.531,32.687l-2.104-6.104
		l-2.116,6.11L38.531,32.687z"/>
	<path fill="#FFFFFF" d="M105.542,95.553c0,1.577-0.622,2.839-1.868,3.784c-0.634,0.473-1.384,0.799-2.254,0.976
		c-0.594,0.119-1.444,0.178-2.552,0.178H97.86h-6.348c-0.633,0-1.094-0.123-1.379-0.371c-0.287-0.248-0.431-0.658-0.431-1.231
		c0-1.048,0.523-1.572,1.571-1.572h0.238V86.542h-0.238c-1.048,0-1.571-0.533-1.571-1.598c0-1.066,0.603-1.599,1.81-1.599h6.674
		c2.036,0,3.584,0.401,4.643,1.202c1.057,0.801,1.586,1.953,1.586,3.455c0,1.523-0.643,2.66-1.928,3.412
		C104.524,92.162,105.542,93.542,105.542,95.553z M100.292,88.269c0-1.206-0.935-1.81-2.804-1.81h-2.417v3.649h1.939
		C99.198,90.108,100.292,89.496,100.292,88.269z M101.45,95.225c0-0.844-0.318-1.424-0.955-1.738
		c-0.635-0.314-1.669-0.471-3.099-0.471h-2.325v4.39h2.176c1.471,0,2.539-0.157,3.204-0.471S101.45,96.05,101.45,95.225z"/>
</g>
</svg>
