<?xml version="1.0" encoding="utf-8"?>
<!-- Generator: Adobe Illustrator 16.0.0, SVG Export Plug-In . SVG Version: 6.00 Build 0)  -->
<!DOCTYPE svg PUBLIC "-//W3C//DTD SVG 1.1//EN" "http://www.w3.org/Graphics/SVG/1.1/DTD/svg11.dtd">
<svg version="1.1" id="Layer_1" xmlns="http://www.w3.org/2000/svg" xmlns:xlink="http://www.w3.org/1999/xlink" x="0px" y="0px"
	 width="266px" height="86px" viewBox="0 0 266 86" enable-background="new 0 0 266 86" xml:space="preserve">
<g>
	<g>
		<path fill="#FFFFFF" d="M75.875,48.864h-3.25c-0.333-2.066-1.367-3.658-3.1-4.775c-1.733-1.116-3.733-1.675-6-1.675
			c-2.3,0-4.217,0.509-5.75,1.525s-2.768,2.324-3.7,3.925c-0.934,1.6-1.592,3.399-1.975,5.399c-0.384,2-0.575,3.984-0.575,5.95
			c0,1.968,0.191,3.95,0.575,5.95c0.383,2,1.041,3.8,1.975,5.4c0.933,1.6,2.158,2.899,3.675,3.899s3.426,1.5,5.726,1.5
			s4.3-0.541,6-1.625c1.7-1.083,2.8-2.841,3.3-5.274h3.3c-0.167,1.566-0.608,2.958-1.325,4.175s-1.642,2.242-2.774,3.075
			c-1.101,0.832-2.375,1.466-3.825,1.899c-1.45,0.433-2.992,0.65-4.625,0.65c-2.7,0-5.018-0.509-6.95-1.525
			c-1.934-1.017-3.517-2.407-4.75-4.175c-1.233-1.8-2.142-3.892-2.725-6.275c-0.584-2.383-0.875-4.941-0.875-7.675
			c0-2.7,0.291-5.241,0.875-7.625c0.583-2.383,1.491-4.475,2.725-6.274c1.233-1.767,2.816-3.176,4.75-4.226
			c1.933-1.05,4.25-1.575,6.95-1.575c1.566,0,3.058,0.192,4.475,0.575c1.417,0.384,2.691,0.959,3.825,1.726
			c1.101,0.767,2.008,1.733,2.726,2.899C75.267,45.881,75.708,47.264,75.875,48.864z"/>
		<path fill="#FFFFFF" d="M91.075,51.664c2,0,3.733,0.384,5.2,1.15s2.683,1.767,3.65,3c0.966,1.267,1.691,2.708,2.175,4.324
			c0.482,1.617,0.725,3.293,0.725,5.025c0,1.768-0.242,3.459-0.725,5.075c-0.483,1.617-1.209,3.059-2.175,4.325
			c-0.968,1.233-2.184,2.225-3.65,2.975s-3.2,1.125-5.2,1.125s-3.717-0.375-5.149-1.125c-1.434-0.75-2.617-1.741-3.55-2.975
			c-0.934-1.267-1.617-2.708-2.051-4.325c-0.434-1.616-0.649-3.308-0.649-5.075c0-1.732,0.216-3.408,0.649-5.025
			c0.434-1.616,1.117-3.058,2.051-4.324c0.933-1.233,2.116-2.233,3.55-3C87.358,52.048,89.075,51.664,91.075,51.664z M99.876,65.164
			c0-1.2-0.176-2.45-0.525-3.75s-0.875-2.467-1.575-3.5c-0.733-1.066-1.649-1.941-2.75-2.625c-1.1-0.683-2.417-1.025-3.95-1.025
			s-2.842,0.343-3.925,1.025c-1.083,0.684-1.958,1.559-2.625,2.625c-0.7,1.033-1.2,2.2-1.5,3.5s-0.45,2.55-0.45,3.75
			c0,1.268,0.15,2.542,0.45,3.825s0.8,2.442,1.5,3.475c0.667,1.067,1.542,1.925,2.625,2.575s2.392,0.975,3.925,0.975
			s2.851-0.324,3.95-0.975c1.101-0.65,2.017-1.508,2.75-2.575c0.7-1.032,1.226-2.191,1.575-3.475S99.876,66.432,99.876,65.164z"/>
		<path fill="#FFFFFF" d="M112.325,52.464l-0.15,3.9c0.666-1.333,1.7-2.45,3.1-3.351c1.4-0.899,3-1.35,4.801-1.35
			c2.8,0,4.975,0.783,6.524,2.35c1.55,1.567,2.325,3.867,2.325,6.9v17.15h-2.95v-16.2c0-2.5-0.542-4.4-1.625-5.7
			s-2.742-1.95-4.975-1.95c-0.9,0-1.784,0.192-2.65,0.575c-0.867,0.384-1.634,0.942-2.3,1.675c-0.7,0.733-1.259,1.643-1.675,2.726
			c-0.417,1.083-0.625,2.309-0.625,3.675v15.2h-2.95V52.464H112.325z"/>
		<path fill="#FFFFFF" d="M142.425,45.014v7.45h5.75v2.65h-5.75v17.25c0,1.7,0.332,2.783,1,3.25c0.666,0.467,1.5,0.7,2.5,0.7
			c0.3,0,0.591-0.009,0.875-0.025c0.282-0.018,0.524-0.042,0.725-0.075c0.232-0.033,0.433-0.075,0.6-0.125s0.301-0.091,0.4-0.125
			v2.4c-0.4,0.1-0.858,0.191-1.375,0.274c-0.518,0.083-1.042,0.125-1.575,0.125c-0.899,0-1.733-0.092-2.5-0.274
			c-0.767-0.184-1.417-0.525-1.95-1.025s-0.949-1.192-1.25-2.075c-0.3-0.883-0.449-2.024-0.449-3.425v-16.85h-5.051v-2.65h5.051
			v-7.45H142.425z"/>
		<path fill="#FFFFFF" d="M168.475,62.414v-2.25c-0.167-2.232-0.817-3.783-1.95-4.65c-1.133-0.866-2.566-1.3-4.3-1.3
			c-1.567,0-2.934,0.325-4.1,0.976c-1.167,0.649-1.817,1.875-1.95,3.675h-3.45c0.066-1.233,0.375-2.3,0.925-3.2
			c0.551-0.9,1.258-1.65,2.125-2.25c0.867-0.566,1.858-1,2.976-1.3c1.116-0.3,2.291-0.45,3.524-0.45
			c2.833,0,5.059,0.692,6.676,2.075c1.616,1.384,2.407,3.575,2.375,6.575v13.949c0,0.601,0.032,1.309,0.1,2.125
			c0.066,0.816,0.15,1.375,0.25,1.676h-3.1l-0.2-3.45c-0.567,1.134-1.617,2.091-3.15,2.875c-1.533,0.782-3.2,1.175-5,1.175
			c-2.467,0-4.483-0.625-6.05-1.875c-1.567-1.25-2.35-3.175-2.35-5.775c0-1.766,0.433-3.266,1.3-4.5c0.866-1.232,2.1-2.183,3.7-2.85
			c0.832-0.366,1.732-0.642,2.699-0.825c0.967-0.183,1.967-0.308,3-0.375c1.033-0.032,2.059-0.05,3.075-0.05
			S167.575,62.414,168.475,62.414z M154.875,71.064c0,1.867,0.616,3.167,1.85,3.899c1.233,0.733,2.601,1.101,4.101,1.101
			c1.532,0,2.808-0.309,3.824-0.926c1.017-0.616,1.809-1.441,2.375-2.475c0.601-1.066,1.017-2.267,1.25-3.6s0.351-2.733,0.351-4.2
			c-1.233,0-2.643,0.009-4.226,0.024c-1.583,0.018-3.074,0.192-4.475,0.525c-1.434,0.367-2.634,0.975-3.6,1.825
			C155.357,68.089,154.875,69.364,154.875,71.064z"/>
		<path fill="#FFFFFF" d="M198.625,60.314h-3.051c-0.1-2-0.809-3.508-2.125-4.525c-1.316-1.017-3.008-1.525-5.074-1.525
			c-1.134,0-2.184,0.284-3.15,0.851c-0.967,0.567-1.8,1.333-2.5,2.3s-1.25,2.117-1.65,3.45c-0.399,1.333-0.6,2.75-0.6,4.25
			c0,1.533,0.2,2.967,0.6,4.3c0.4,1.334,0.95,2.483,1.65,3.45c0.7,1,1.533,1.774,2.5,2.325c0.967,0.55,2.017,0.824,3.15,0.824
			c1.933,0,3.558-0.508,4.875-1.524c1.316-1.017,2.074-2.558,2.274-4.625h3.101c-0.434,2.934-1.559,5.134-3.375,6.6
			c-1.817,1.467-4.075,2.2-6.775,2.2c-1.9,0-3.542-0.358-4.925-1.075c-1.384-0.717-2.525-1.708-3.425-2.975
			c-0.934-1.233-1.617-2.667-2.051-4.3s-0.649-3.351-0.649-5.15c0-1.767,0.232-3.467,0.7-5.1c0.466-1.633,1.166-3.066,2.1-4.301
			c0.967-1.232,2.15-2.225,3.55-2.975c1.4-0.75,3.05-1.125,4.95-1.125c2.633,0,4.9,0.768,6.8,2.3
			C197.425,55.498,198.457,57.614,198.625,60.314z"/>
		<path fill="#FFFFFF" d="M209.925,45.014v7.45h5.75v2.65h-5.75v17.25c0,1.7,0.332,2.783,1,3.25c0.666,0.467,1.5,0.7,2.5,0.7
			c0.3,0,0.591-0.009,0.875-0.025c0.282-0.018,0.524-0.042,0.725-0.075c0.232-0.033,0.433-0.075,0.6-0.125s0.301-0.091,0.4-0.125
			v2.4c-0.4,0.1-0.858,0.191-1.375,0.274c-0.518,0.083-1.042,0.125-1.575,0.125c-0.899,0-1.733-0.092-2.5-0.274
			c-0.767-0.184-1.417-0.525-1.95-1.025s-0.949-1.192-1.25-2.075c-0.3-0.883-0.449-2.024-0.449-3.425v-16.85h-5.051v-2.65h5.051
			v-7.45H209.925z"/>
	</g>
	<path fill="#4FBCBC" d="M30.067,57.992c-0.249,0-0.5-0.062-0.732-0.191c-8.596-4.823-13.936-13.936-13.936-23.781
		c0-15.025,12.224-27.25,27.25-27.25s27.25,12.225,27.25,27.25c0,0.828-0.671,1.5-1.5,1.5s-1.5-0.672-1.5-1.5
		c0-13.371-10.878-24.25-24.25-24.25s-24.25,10.879-24.25,24.25c0,8.763,4.753,16.872,12.404,21.164
		c0.723,0.405,0.979,1.32,0.574,2.043C31.102,57.717,30.592,57.992,30.067,57.992z"/>
</g>
</svg>
