<?xml version="1.0" encoding="utf-8"?>
<!-- Generator: Adobe Illustrator 16.0.0, SVG Export Plug-In . SVG Version: 6.00 Build 0)  -->
<!DOCTYPE svg PUBLIC "-//W3C//DTD SVG 1.1//EN" "http://www.w3.org/Graphics/SVG/1.1/DTD/svg11.dtd">
<svg version="1.1" id="Layer_1" xmlns="http://www.w3.org/2000/svg" xmlns:xlink="http://www.w3.org/1999/xlink" x="0px" y="0px"
	 width="135px" height="135px" viewBox="0 0 135 135" enable-background="new 0 0 135 135" xml:space="preserve">
<g>
	<path fill="#FFFFFF" d="M50.929,116.069h53.778c2.184,0,3.955-1.77,3.955-3.954V36.787L90.67,18.799H31.951
		c-2.184,0-3.953,1.77-3.953,3.954v89.362c0,2.185,1.77,3.954,3.953,3.954H50.929z"/>
	<path fill="#FFFFFF" d="M90.67,19.029v13.806c0,2.185,1.771,3.955,3.955,3.955h13.807L90.67,19.029z"/>
	<path fill="#E8454A" d="M42.609,33.788c13.332,0,24.139,10.808,24.139,24.138c0,13.331-10.807,24.139-24.139,24.139
		c-13.33,0-24.137-10.808-24.137-24.139h24.137V33.788L42.609,33.788z"/>
	<path fill="#FFFFFF" d="M42.609,57.926V33.788c6.666,0,12.701,2.702,17.068,7.07L42.609,57.926z"/>
	<path fill="#E8454A" d="M35.528,26.706v24.139H11.391C11.391,37.514,22.197,26.706,35.528,26.706z"/>
	<circle fill="#FFFFFF" cx="96.021" cy="85.148" r="3.954"/>
	<circle fill="#FFFFFF" cx="76.582" cy="104.188" r="3.954"/>
	<circle fill="#FFFFFF" cx="60.961" cy="89.103" r="3.954"/>
	<circle fill="#FFFFFF" cx="45.771" cy="104.195" r="3.954"/>
	<path d="M110.059,35.389L92.068,17.4c-0.371-0.37-0.873-0.579-1.398-0.579H31.951c-3.27,0-5.931,2.661-5.931,5.932v3.769
		c-9.712,3.81-16.606,13.276-16.606,24.323c0,1.092,0.885,1.977,1.977,1.977h24.138c1.092,0,1.978-0.885,1.978-1.977V26.706
		c0-1.091-0.886-1.977-1.978-1.977c-1.905,0-3.763,0.207-5.554,0.597v-2.573c0-1.091,0.887-1.978,1.977-1.978h56.742v12.06
		c0,3.271,2.66,5.932,5.932,5.932h12.06v73.349c0,1.091-0.888,1.978-1.978,1.978H31.951c-1.09,0-1.977-0.887-1.977-1.978V95.179
		c0-1.092-0.885-1.977-1.977-1.977s-1.978,0.885-1.978,1.977v16.937c0,3.271,2.661,5.932,5.931,5.932h72.756
		c3.271,0,5.932-2.661,5.932-5.932V36.787C110.639,36.263,110.43,35.76,110.059,35.389z M33.551,48.868H13.455
		c0.945-10.646,9.45-19.151,20.096-20.097V48.868L33.551,48.868z M92.646,32.835v-9.264l11.244,11.241h-9.266
		C93.535,34.813,92.646,33.926,92.646,32.835z"/>
	<path d="M26.6,86.598c-0.367,0.368-0.579,0.878-0.579,1.397c0,0.521,0.212,1.03,0.579,1.397c0.367,0.368,0.878,0.58,1.398,0.58
		c0.52,0,1.029-0.212,1.396-0.58c0.369-0.367,0.58-0.877,0.58-1.397c0-0.52-0.211-1.029-0.58-1.397
		c-0.367-0.368-0.877-0.579-1.396-0.579C27.478,86.019,26.967,86.229,26.6,86.598z"/>
	<path d="M68.725,57.926c0-14.399-11.715-26.114-26.115-26.114c-1.092,0-1.977,0.885-1.977,1.977v22.161h-22.16
		c-1.092,0-1.979,0.886-1.979,1.977c0,14.4,11.716,26.115,26.115,26.115C57.01,84.041,68.725,72.326,68.725,57.926z M56.813,40.929
		L44.587,53.153V35.853C49.215,36.264,53.438,38.104,56.813,40.929z M20.537,59.903h22.072c0.547,0,1.04-0.221,1.398-0.578v-0.001
		l15.602-15.601c3.221,3.849,5.162,8.803,5.162,14.202c0,12.22-9.941,22.161-22.162,22.161C31.057,80.087,21.539,71.2,20.537,59.903
		z"/>
	<path d="M66.893,89.104c0-3.271-2.66-5.932-5.932-5.932c-3.27,0-5.931,2.661-5.931,5.932c0,0.886,0.196,1.727,0.546,2.482
		l-7.254,7.255c-0.773-0.369-1.638-0.577-2.551-0.577c-3.27,0-5.93,2.661-5.93,5.931c0,3.271,2.66,5.932,5.93,5.932
		c3.271,0,5.932-2.661,5.932-5.932c0-0.916-0.209-1.785-0.582-2.561l7.215-7.215c0.792,0.394,1.684,0.615,2.626,0.615
		c1.065,0,2.063-0.283,2.929-0.776l7.35,7.351c-0.377,0.78-0.59,1.655-0.59,2.578c0,3.271,2.66,5.932,5.932,5.932
		c3.27,0,5.931-2.661,5.931-5.932c0-0.9-0.202-1.756-0.563-2.521l11.283-11.284c0.832,0.445,1.782,0.699,2.791,0.699
		c3.27,0,5.931-2.661,5.931-5.932s-2.661-5.932-5.931-5.932c-3.271,0-5.932,2.661-5.932,5.932c0,0.82,0.168,1.601,0.469,2.312
		L79.17,98.852c-0.782-0.382-1.66-0.596-2.588-0.596c-0.906,0-1.765,0.204-2.533,0.569l-7.564-7.564
		C66.747,90.592,66.893,89.864,66.893,89.104z M45.771,106.172c-1.09,0-1.977-0.887-1.977-1.978c0-1.09,0.887-1.977,1.977-1.977
		c0.531,0,1.014,0.211,1.369,0.553c0.008,0.009,0.014,0.018,0.021,0.025c0.01,0.01,0.021,0.018,0.029,0.027
		c0.345,0.355,0.559,0.839,0.559,1.371C47.75,105.285,46.862,106.172,45.771,106.172z M60.961,91.081
		c-1.09,0-1.977-0.888-1.977-1.978s0.887-1.978,1.977-1.978s1.978,0.888,1.978,1.978S62.051,91.081,60.961,91.081z M96.021,83.172
		c1.092,0,1.979,0.888,1.979,1.978s-0.887,1.977-1.979,1.977c-1.09,0-1.977-0.887-1.977-1.977S94.932,83.172,96.021,83.172z
		 M78.559,104.187c0,1.09-0.887,1.978-1.978,1.978s-1.978-0.888-1.978-1.978s0.887-1.977,1.978-1.977S78.559,103.097,78.559,104.187
		z"/>
	<path d="M75.706,67.236h10.435c1.092,0,1.977-0.886,1.977-1.978s-0.885-1.977-1.977-1.977H75.706c-1.092,0-1.978,0.885-1.978,1.977
		S74.614,67.236,75.706,67.236z"/>
	<path d="M93.744,63.861c-0.367,0.368-0.578,0.878-0.578,1.397c0,0.521,0.211,1.03,0.578,1.398c0.368,0.367,0.877,0.579,1.398,0.579
		c0.52,0,1.029-0.212,1.397-0.579c0.368-0.368,0.579-0.878,0.579-1.398c0-0.52-0.211-1.029-0.579-1.397s-0.878-0.579-1.397-0.579
		S94.112,63.493,93.744,63.861z"/>
	<path d="M75.706,48.257h24.151c1.091,0,1.977-0.886,1.977-1.978s-0.886-1.977-1.977-1.977H75.706c-1.092,0-1.978,0.885-1.978,1.977
		S74.614,48.257,75.706,48.257z"/>
	<path d="M75.706,57.747h24.151c1.091,0,1.977-0.886,1.977-1.978s-0.886-1.978-1.977-1.978H75.706c-1.092,0-1.978,0.886-1.978,1.978
		S74.614,57.747,75.706,57.747z"/>
</g>
</svg>
