<?xml version="1.0" encoding="utf-8"?>
<!-- Generator: Adobe Illustrator 16.0.0, SVG Export Plug-In . SVG Version: 6.00 Build 0)  -->
<!DOCTYPE svg PUBLIC "-//W3C//DTD SVG 1.1//EN" "http://www.w3.org/Graphics/SVG/1.1/DTD/svg11.dtd">
<svg version="1.1" id="Layer_1" xmlns="http://www.w3.org/2000/svg" xmlns:xlink="http://www.w3.org/1999/xlink" x="0px" y="0px"
	 width="266px" height="86px" viewBox="0 0 266 86" enable-background="new 0 0 266 86" xml:space="preserve">
<g>
	<g>
		<path fill="#FFFFFF" d="M95.065,77.414l-9.55-33.851l-9.45,33.851c-0.1,0.232-0.225,0.416-0.375,0.55
			c-0.149,0.133-0.375,0.2-0.675,0.2h-2.35c-0.3,0-0.534-0.067-0.7-0.2c-0.167-0.134-0.283-0.317-0.35-0.55l-10.351-36.95h3.5
			l9.05,34.6l9.5-33.85c0.101-0.2,0.226-0.375,0.375-0.525c0.15-0.149,0.375-0.225,0.676-0.225h2.35c0.3,0,0.525,0.075,0.675,0.225
			c0.15,0.15,0.275,0.325,0.375,0.525l9.5,33.85l9.101-34.6h3.6l-10.45,36.95c-0.1,0.232-0.225,0.416-0.375,0.55
			c-0.149,0.133-0.375,0.2-0.675,0.2h-2.35c-0.301,0-0.534-0.067-0.7-0.2C95.249,77.83,95.132,77.646,95.065,77.414z"/>
		<path fill="#FFFFFF" d="M122.565,51.764c2,0,3.733,0.384,5.2,1.15s2.683,1.767,3.65,3c0.966,1.267,1.691,2.708,2.175,4.324
			c0.482,1.617,0.725,3.293,0.725,5.025c0,1.768-0.242,3.459-0.725,5.075c-0.483,1.617-1.209,3.059-2.175,4.325
			c-0.968,1.233-2.184,2.225-3.65,2.975s-3.2,1.125-5.2,1.125s-3.717-0.375-5.149-1.125c-1.434-0.75-2.617-1.741-3.55-2.975
			c-0.934-1.267-1.617-2.708-2.051-4.325c-0.434-1.616-0.649-3.308-0.649-5.075c0-1.732,0.216-3.408,0.649-5.025
			c0.434-1.616,1.117-3.058,2.051-4.324c0.933-1.233,2.116-2.233,3.55-3C118.849,52.147,120.565,51.764,122.565,51.764z
			 M131.366,65.264c0-1.2-0.176-2.45-0.525-3.75s-0.875-2.467-1.575-3.5c-0.733-1.066-1.649-1.941-2.75-2.625
			c-1.1-0.683-2.417-1.025-3.95-1.025s-2.842,0.343-3.925,1.025c-1.083,0.684-1.958,1.559-2.625,2.625c-0.7,1.033-1.2,2.2-1.5,3.5
			s-0.45,2.55-0.45,3.75c0,1.268,0.15,2.542,0.45,3.825s0.8,2.442,1.5,3.475c0.667,1.067,1.542,1.925,2.625,2.575
			s2.392,0.975,3.925,0.975s2.851-0.324,3.95-0.975c1.101-0.65,2.017-1.508,2.75-2.575c0.7-1.032,1.226-2.191,1.575-3.475
			S131.366,66.531,131.366,65.264z"/>
		<path fill="#FFFFFF" d="M150.915,55.014c-0.9,0-1.792,0.158-2.675,0.475c-0.884,0.317-1.675,0.793-2.375,1.426
			s-1.259,1.449-1.675,2.449c-0.418,1-0.625,2.184-0.625,3.551v15.25h-3V52.563h3.149l-0.149,3.7c0.899-1.633,2-2.791,3.3-3.475
			s2.6-1.025,3.899-1.025c0.4,0,0.801,0.018,1.2,0.05c0.4,0.034,0.667,0.067,0.8,0.101v3.3c-0.133-0.033-0.35-0.075-0.649-0.125
			S151.415,55.014,150.915,55.014z"/>
		<path fill="#FFFFFF" d="M160.915,40.214v22.95l11.6-10.4h4.25l-12.6,10.85l13.649,14.551h-4.149l-12.75-14.101v14.101h-3v-37.95
			H160.915z"/>
		<path fill="#FFFFFF" d="M182.114,58.863c0-1.3,0.258-2.407,0.775-3.324c0.517-0.917,1.208-1.642,2.075-2.176
			c0.833-0.566,1.791-0.975,2.875-1.225c1.083-0.25,2.175-0.375,3.274-0.375c2.4,0,4.458,0.5,6.176,1.5
			c1.716,1,2.707,2.817,2.975,5.45h-3.15c-0.133-1.667-0.824-2.816-2.074-3.45c-1.25-0.633-2.643-0.95-4.176-0.95
			c-0.699,0-1.399,0.075-2.1,0.226c-0.7,0.149-1.317,0.408-1.85,0.774c-0.567,0.334-1.018,0.784-1.351,1.351s-0.5,1.25-0.5,2.05
			c0,1.067,0.275,1.85,0.825,2.35s1.325,0.9,2.325,1.2c1,0.334,2.2,0.65,3.6,0.95c1.4,0.3,2.95,0.767,4.65,1.399
			c1.732,0.567,2.95,1.334,3.649,2.301c0.7,0.967,1.051,2.149,1.051,3.55c0,1.467-0.284,2.725-0.851,3.774
			c-0.567,1.051-1.333,1.909-2.3,2.575c-0.967,0.7-2.092,1.2-3.375,1.5s-2.643,0.45-4.075,0.45c-1.1,0-2.192-0.125-3.274-0.375
			c-1.084-0.25-2.075-0.675-2.976-1.275c-0.899-0.6-1.642-1.383-2.225-2.35c-0.584-0.967-0.893-2.15-0.925-3.55h3.149
			c0.033,1,0.267,1.817,0.7,2.45c0.433,0.633,0.967,1.149,1.6,1.55c0.667,0.367,1.4,0.617,2.2,0.75c0.8,0.134,1.616,0.2,2.45,0.2
			c0.8,0,1.607-0.092,2.425-0.275c0.816-0.183,1.558-0.491,2.226-0.925c0.633-0.4,1.149-0.933,1.55-1.601
			c0.399-0.666,0.6-1.482,0.6-2.449c0-1-0.242-1.792-0.725-2.375c-0.483-0.583-1.108-1.042-1.875-1.375
			c-0.8-0.367-1.684-0.65-2.65-0.851s-1.934-0.433-2.899-0.7c-1-0.232-1.976-0.482-2.926-0.75c-0.949-0.266-1.774-0.633-2.475-1.1
			c-0.733-0.5-1.317-1.133-1.75-1.9C182.331,61.098,182.114,60.098,182.114,58.863z"/>
	</g>
	<path fill="#4FBCBC" d="M43.157,58.092c-0.249,0-0.501-0.062-0.732-0.191c-8.597-4.823-13.937-13.936-13.937-23.781
		c0-15.025,12.224-27.25,27.25-27.25c15.025,0,27.25,12.225,27.25,27.25c0,0.828-0.672,1.5-1.5,1.5s-1.5-0.672-1.5-1.5
		c0-13.371-10.879-24.25-24.25-24.25c-13.372,0-24.25,10.879-24.25,24.25c0,8.763,4.753,16.872,12.403,21.164
		c0.723,0.405,0.98,1.32,0.574,2.043C44.191,57.816,43.682,58.092,43.157,58.092z"/>
</g>
</svg>
