<?xml version="1.0" encoding="utf-8"?>
<!-- Generator: Adobe Illustrator 16.0.0, SVG Export Plug-In . SVG Version: 6.00 Build 0)  -->
<!DOCTYPE svg PUBLIC "-//W3C//DTD SVG 1.1//EN" "http://www.w3.org/Graphics/SVG/1.1/DTD/svg11.dtd">
<svg version="1.1" id="Layer_1" xmlns="http://www.w3.org/2000/svg" xmlns:xlink="http://www.w3.org/1999/xlink" x="0px" y="0px"
	 width="135px" height="135px" viewBox="0 0 135 135" enable-background="new 0 0 135 135" xml:space="preserve">
<g>
	<path fill="#E8454A" d="M83.316,26.706h14.235c4.367,0,7.908,3.541,7.908,7.909v73.546c0,4.368-3.541,7.908-7.908,7.908H37.449
		c-4.368,0-7.908-3.54-7.908-7.908V34.615c0-4.368,3.541-7.909,7.908-7.909h13.51H83.316z"/>
	<path fill="#FFFFFF" d="M95.574,108.161H39.426c-1.092,0-1.977-0.885-1.977-1.977V36.592c0-1.092,0.885-1.977,1.977-1.977h56.148
		c1.092,0,1.977,0.885,1.977,1.977v69.593C97.551,107.276,96.666,108.161,95.574,108.161z"/>
	<path fill="#FFFFFF" d="M75.304,24.631c-0.912-3.36-3.982-5.832-7.631-5.832h-0.347c-3.649,0-6.719,2.472-7.631,5.832h-4.602
		c-1.883,0-3.41,1.526-3.41,3.41v6.574h31.633v-6.574c0-1.884-1.527-3.41-3.411-3.41H75.304z"/>
	<path d="M97.551,24.729h-13.4c-0.987-1.262-2.522-2.076-4.245-2.076H76.69c-1.573-3.498-5.089-5.832-9.017-5.832h-0.347
		c-3.928,0-7.443,2.334-9.017,5.832h-3.216c-1.723,0-3.258,0.814-4.245,2.076h-13.4c-5.451,0-9.885,4.435-9.885,9.886v73.546
		c0,5.451,4.434,9.886,9.885,9.886h60.103c5.45,0,9.885-4.435,9.885-9.886V82.447c0-1.092-0.885-1.978-1.977-1.978
		s-1.977,0.886-1.977,1.978v25.714c0,3.271-2.661,5.932-5.931,5.932H37.449c-3.271,0-5.931-2.661-5.931-5.932V34.615
		c0-3.271,2.661-5.932,5.931-5.932h12.257v3.954h-10.28c-2.181,0-3.954,1.774-3.954,3.954v69.593c0,2.18,1.773,3.954,3.954,3.954
		h56.148c2.18,0,3.954-1.774,3.954-3.954V36.592c0-2.18-1.774-3.954-3.954-3.954H85.293v-3.954h12.258
		c3.271,0,5.931,2.661,5.931,5.932v31.257c0,1.093,0.885,1.978,1.977,1.978s1.977-0.885,1.977-1.978V34.615
		C107.437,29.164,103.001,24.729,97.551,24.729z M95.577,106.185c0,0,0,0-0.002,0H39.426V36.592h12.258h31.633h12.258
		L95.577,106.185z M53.661,32.638v-4.597c0-0.79,0.643-1.434,1.433-1.434h4.602c0.893,0,1.674-0.598,1.908-1.459
		c0.699-2.575,3.052-4.373,5.723-4.373h0.347c2.671,0,5.024,1.798,5.723,4.373c0.234,0.861,1.016,1.459,1.908,1.459h4.602
		c0.79,0,1.433,0.644,1.433,1.434v4.597H53.661z"/>
	<path d="M105.459,72.356c-0.52,0-1.03,0.212-1.398,0.58c-0.368,0.367-0.579,0.878-0.579,1.397c0,0.522,0.211,1.03,0.579,1.397
		c0.368,0.37,0.878,0.58,1.398,0.58s1.03-0.21,1.398-0.58c0.367-0.367,0.579-0.875,0.579-1.397c0-0.52-0.212-1.028-0.579-1.397
		C106.489,72.568,105.979,72.356,105.459,72.356z"/>
	<path d="M68.884,55.571c0.52,0,1.03-0.211,1.398-0.579c0.368-0.368,0.579-0.878,0.579-1.397c0-0.521-0.211-1.03-0.579-1.397
		c-0.368-0.368-0.878-0.58-1.398-0.58s-1.03,0.212-1.398,0.58c-0.368,0.367-0.579,0.877-0.579,1.397c0,0.52,0.211,1.029,0.579,1.397
		C67.854,55.36,68.364,55.571,68.884,55.571z"/>
	<path d="M75.606,53.595c0,1.092,0.885,1.977,1.977,1.977h11.761c1.092,0,1.977-0.885,1.977-1.977s-0.885-1.978-1.977-1.978H77.583
		C76.491,51.617,75.606,52.503,75.606,53.595z"/>
	<path d="M89.343,72.97H68.884c-1.092,0-1.977,0.885-1.977,1.978c0,1.092,0.885,1.977,1.977,1.977h20.459
		c1.092,0,1.977-0.885,1.977-1.977C91.32,73.854,90.435,72.97,89.343,72.97z"/>
	<path d="M89.343,94.322H68.884c-1.092,0-1.977,0.885-1.977,1.977s0.885,1.978,1.977,1.978h20.459c1.092,0,1.977-0.886,1.977-1.978
		S90.435,94.322,89.343,94.322z"/>
	<path d="M46.938,55.571h9.49c1.092,0,1.977-0.885,1.977-1.977s-0.885-1.978-1.977-1.978h-7.513v-7.513
		c0-1.092-0.885-1.977-1.977-1.977s-1.977,0.885-1.977,1.977v9.49C44.961,54.687,45.847,55.571,46.938,55.571z"/>
	<path d="M57.79,42.071l-2.726,2.726l-0.231-0.23c-0.772-0.772-2.024-0.772-2.796,0c-0.772,0.771-0.772,2.023,0,2.796l1.629,1.629
		c0.386,0.386,0.892,0.579,1.398,0.579c0.506,0,1.012-0.193,1.398-0.579l4.124-4.124c0.772-0.771,0.772-2.024,0-2.796
		C59.813,41.299,58.562,41.299,57.79,42.071z"/>
	<path d="M46.938,76.866h9.49c1.092,0,1.977-0.885,1.977-1.977s-0.885-1.978-1.977-1.978h-7.513v-7.513
		c0-1.092-0.885-1.977-1.977-1.977s-1.977,0.885-1.977,1.977v9.49C44.961,75.981,45.847,76.866,46.938,76.866z"/>
	<path d="M57.79,63.366l-2.726,2.726l-0.231-0.231c-0.772-0.771-2.024-0.771-2.796,0c-0.772,0.772-0.772,2.024,0,2.797l1.629,1.629
		c0.386,0.386,0.892,0.579,1.398,0.579c0.506,0,1.012-0.193,1.398-0.579l4.124-4.124c0.772-0.772,0.772-2.024,0-2.796
		C59.813,62.594,58.562,62.594,57.79,63.366z"/>
	<path d="M56.428,94.322h-7.513V86.81c0-1.092-0.885-1.978-1.977-1.978s-1.977,0.886-1.977,1.978v9.489
		c0,1.092,0.885,1.978,1.977,1.978h9.49c1.092,0,1.977-0.886,1.977-1.978S57.521,94.322,56.428,94.322z"/>
	<path d="M57.79,84.775l-2.726,2.726l-0.231-0.23c-0.772-0.771-2.024-0.771-2.796,0s-0.772,2.023,0,2.796l1.629,1.63
		c0.386,0.386,0.892,0.578,1.398,0.578c0.506,0,1.012-0.192,1.398-0.578l4.124-4.125c0.772-0.771,0.772-2.023,0-2.796
		C59.813,84.004,58.562,84.004,57.79,84.775z"/>
</g>
</svg>
