<?xml version="1.0" encoding="utf-8"?>
<!-- Generator: Adobe Illustrator 21.0.0, SVG Export Plug-In . SVG Version: 6.00 Build 0)  -->
<svg version="1.1" id="Layer_1" xmlns="http://www.w3.org/2000/svg" xmlns:xlink="http://www.w3.org/1999/xlink" x="0px" y="0px"
	 viewBox="0 0 376 324" style="enable-background:new 0 0 376 324;" xml:space="preserve">
<style type="text/css">
	.st0{opacity:0.1;fill:#474748;}
	.st1{fill:#D3D0D5;}
	.st2{fill:#BFBDC0;}
	.st3{fill:#474748;}
	.st4{fill:#FFFFFF;}
	.st5{fill:#EBEAED;}
	.st6{fill:#D5D3D7;}
	.st7{fill:#626263;}
	.st8{fill:#F7F7F7;}
	.st9{fill:#282828;}
	.st10{fill:#E8454A;}
	.st11{font-family:'KoPubDotumPL-KSCpc-EUC-H';}
	.st12{font-size:3.2626px;}
	.st13{fill:#E1E1E1;}
	.st14{font-size:4.5314px;}
	.st15{font-size:2.9001px;}
	.st16{font-size:2.3563px;}
	.st17{font-family:'AppleSDGothicNeo-UltraLight-KSCpc-EUC-H';}
	.st18{font-size:2.175px;}
	.st19{fill:#9C9C9C;}
	.st20{fill:#4FBCBC;}
	.st21{font-family:'TmonMonsoriBlack';}
	.st22{font-size:5.4376px;}
	.st23{font-family:'KoPubDotumPM-KSCpc-EUC-H';}
	.st24{fill:#3BD2CF;}
	.st25{fill:#383838;}
	.st26{font-size:4.4293px;}
	.st27{fill:none;stroke:#F0F0F0;stroke-width:0.5;stroke-miterlimit:10;}
	.st28{font-size:4.1129px;}
	.st29{font-family:'KoPubDotumPB-KSCpc-EUC-H';}
	.st30{fill:#646464;}
	.st31{font-size:3.7966px;}
	.st32{fill:#A15D30;}
	.st33{fill:#8F4F24;}
	.st34{fill:#EBEBEB;}
	.st35{fill:#FEDAC6;}
	.st36{fill:#DBDBDB;}
	.st37{fill:#F5C4B0;}
	.st38{fill:#3CACDE;}
	.st39{fill:#329AC7;}
	.st40{font-size:4.9845px;}
	.st41{font-size:3.0478px;}
	.st42{fill:none;stroke:#3BD2CF;stroke-miterlimit:10;}
	.st43{fill:#FF684D;}
	.st44{fill:#FFD4C4;}
</style>
<g>
	<ellipse class="st0" cx="190.3" cy="318.2" rx="89.1" ry="2.9"/>
	<g id="desktop_1_">
		<path class="st1" d="M228,306.5h-80.4l6.3-44.3h68.2L228,306.5z"/>
		<path class="st2" d="M232.1,317l-89,0c-0.8,0-1.4-0.6-1.4-1.4c0-0.3,0.1-0.5,0.2-0.8l5.5-8.6c0.3-0.4,0.7-0.7,1.2-0.7h78.2
			c0.5,0,1,0.3,1.2,0.7l5.2,8.6c0.4,0.7,0.2,1.6-0.5,2C232.6,316.9,232.3,317,232.1,317z"/>
		<path class="st3" d="M366.4,5.3H8.8c-3.7,0-6.7,3-6.7,6.7c0,0,0,220.9,0,223h371.1c0-3.8-0.2-223-0.2-223
			C373.1,8.3,370.1,5.3,366.4,5.3z"/>
		<path class="st4" d="M361.3,19.4H14.2c-0.3,0-0.5,0.2-0.5,0.5v202.6c0,0.3,0.2,0.5,0.5,0.5h347.1c0.3,0,0.5-0.2,0.5-0.5V19.9
			C361.8,19.6,361.6,19.4,361.3,19.4z"/>
		<path class="st5" d="M367.1,264.3H9c-3.7,0-6.7-3-6.7-6.7c0,0,0-21.9,0-22.6h371.1c0,0.3,0,22.6,0,22.6
			C373.4,261.3,370.8,264.3,367.1,264.3z"/>
		<circle class="st6" cx="187.8" cy="249.6" r="5.7"/>
		<circle class="st7" cx="187.8" cy="13.6" r="2.2"/>
	</g>
	<g>
		<rect x="13.8" y="19.8" class="st8" width="348" height="203.3"/>
		<rect x="13.8" y="19.8" class="st4" width="348" height="10.9"/>
		<rect x="13.7" y="19.4" class="st9" width="54.5" height="203.7"/>
		<g>
			<path class="st10" d="M61.6,117.6c0,1.6-1.3,3-3,3H23.4c-1.6,0-3-1.4-3-3v-2.3c0-1.6,1.4-3,3-3h35.2c1.7,0,3,1.4,3,3V117.6z"/>
		</g>
		<text transform="matrix(1 0 0 1 33.1175 117.672)" class="st4 st11 st12">테스트 등록</text>
		<g>
			<text transform="matrix(1 0 0 1 32.6082 77.3585)" class="st13 st11 st14">으뜸기업</text>
		</g>
		<g>
			<text transform="matrix(1 0 0 1 32.117 131.7697)"><tspan x="0" y="0" class="st13 st11 st15">테스트 관리</tspan><tspan x="0" y="8.9" class="st13 st11 st15">리포트</tspan><tspan x="0" y="17.8" class="st13 st11 st15">퀵설문 관리</tspan><tspan x="0" y="26.8" class="st13 st11 st15">포인트 관리</tspan></text>
		</g>
		<g>
			<text transform="matrix(1 0 0 1 25.8948 197.2159)"><tspan x="0" y="0" class="st13 st11 st16">자주 찾는 질문 </tspan><tspan x="14.4" y="0" class="st13 st17 st16">·</tspan><tspan x="15.1" y="0" class="st13 st11 st16"> 고객센터</tspan><tspan x="0" y="4.8" class="st13 st11 st16">이용약관 </tspan><tspan x="8.9" y="4.8" class="st13 st17 st16">·</tspan><tspan x="9.6" y="4.8" class="st13 st11 st16"> 개인정보처리방침</tspan><tspan x="0" y="9.6" class="st13 st11 st16">ⓒ the tester</tspan></text>
		</g>
		<path class="st10" d="M49.2,101.3h-17c-0.3,0-0.6-0.3-0.6-0.6v-3.3c0-0.3,0.3-0.6,0.6-0.6h17c0.3,0,0.6,0.3,0.6,0.6v3.3
			C49.9,101,49.6,101.3,49.2,101.3z M32.2,97c-0.3,0-0.5,0.2-0.5,0.5v3.3c0,0.2,0.2,0.5,0.5,0.5h17c0.3,0,0.5-0.2,0.5-0.5v-3.3
			c0-0.3-0.2-0.5-0.5-0.5H32.2z"/>
		<text transform="matrix(1 0 0 1 36.5945 99.8497)" class="st10 st11 st18">로고 수정</text>
		<g>
			<g>
				<text transform="matrix(1 0 0 1 27.889 91.59)" class="st13 st11 st18">다음 결제일       2018.09.01</text>
			</g>
			<path class="st19" d="M40.5,91.5C40.5,91.5,40.4,91.4,40.5,91.5l-0.1-1.7c0-0.1,0-0.1,0.1-0.1c0.1,0,0.1,0,0.1,0.1L40.5,91.5
				C40.6,91.4,40.6,91.5,40.5,91.5z"/>
		</g>
		<g>
			<path class="st4" d="M28.8,132.6h-2.2v-2.6h1.4v0.5c0,0.1,0.1,0.2,0.2,0.2h0.6V132.6z"/>
			<path class="st4" d="M28.2,130.1l0.5,0.4h-0.4c0,0,0,0,0,0V130.1z"/>
			<path class="st4" d="M29.2,132.2H29v-1.6l0,0c0,0,0,0,0-0.1l-0.8-0.7h0c0,0,0,0-0.1,0h-1v-0.2c0,0,0-0.1,0.1-0.1h2
				c0,0,0.1,0,0.1,0.1L29.2,132.2L29.2,132.2C29.3,132.1,29.2,132.2,29.2,132.2z"/>
		</g>
		<g>
			<path class="st4" d="M28.8,141.4h-2.2v-2.6h1.4v0.5c0,0.1,0.1,0.2,0.2,0.2h0.6V141.4z"/>
			<path class="st4" d="M28.2,138.8l0.5,0.4h-0.4c0,0,0,0,0,0V138.8z"/>
			<path class="st4" d="M29.2,141H29v-1.6l0,0c0,0,0,0,0-0.1l-0.8-0.7h0c0,0,0,0-0.1,0h-1v-0.2c0,0,0-0.1,0.1-0.1h2
				c0,0,0.1,0,0.1,0.1L29.2,141L29.2,141C29.3,140.9,29.2,141,29.2,141z"/>
		</g>
		<g>
			<path class="st4" d="M28.8,150.1h-2.2v-2.6h1.4v0.5c0,0.1,0.1,0.2,0.2,0.2h0.6V150.1z"/>
			<path class="st4" d="M28.2,147.6l0.5,0.4h-0.4c0,0,0,0,0,0V147.6z"/>
			<path class="st4" d="M29.2,149.8H29v-1.6c0,0,0,0,0,0c0,0,0,0,0-0.1l-0.8-0.7h0c0,0,0,0-0.1,0h-1v-0.2c0,0,0-0.1,0.1-0.1h2
				c0,0,0.1,0,0.1,0.1L29.2,149.8L29.2,149.8C29.3,149.7,29.2,149.8,29.2,149.8z"/>
		</g>
		<g>
			<path class="st4" d="M28.8,158.9h-2.2v-2.6h1.4v0.5c0,0.1,0.1,0.2,0.2,0.2h0.6V158.9z"/>
			<path class="st4" d="M28.2,156.4l0.5,0.4h-0.4c0,0,0,0,0,0V156.4z"/>
			<path class="st4" d="M29.2,158.5H29v-1.6c0,0,0,0,0,0c0,0,0,0,0-0.1l-0.8-0.7h0c0,0,0,0-0.1,0h-1V156c0,0,0-0.1,0.1-0.1h2
				c0,0,0.1,0,0.1,0.1L29.2,158.5L29.2,158.5C29.3,158.5,29.2,158.5,29.2,158.5z"/>
		</g>
		<g>
			<path class="st20" d="M35.2,30.5c-0.4,0-0.8-0.2-1.1-0.4c-0.6-0.6-0.6-1.5,0-2.1c0.3-0.3,0.7-0.4,1.1-0.4c0.4,0,0.8,0.2,1.1,0.4
				c0.4,0.4,0.5,0.9,0.4,1.4c0,0-0.1,0.5-0.4,0.7c-0.1,0-0.1,0-0.2,0c0-0.1,0-0.1,0-0.2c0.3-0.2,0.3-0.5,0.3-0.5
				c0.1-0.4-0.1-0.8-0.3-1.1c-0.5-0.5-1.3-0.5-1.8,0c-0.5,0.5-0.5,1.3,0,1.8c0.3,0.3,0.7,0.4,1.1,0.3c0.1,0,0.1,0,0.2,0.1
				c0,0.1,0,0.1-0.1,0.2C35.4,30.5,35.3,30.5,35.2,30.5z"/>
			<g>
				<path class="st4" d="M30.1,30.3c-0.7,0-1.3-0.4-1.3-1.3v-1.5h1.3v-0.3h-1.3v-2.6h-0.3v2.6h-0.4v0.3h0.4v1.5
					c0,1.1,0.7,1.6,1.5,1.6c0.1,0,0.2,0,0.2,0l0-0.3C30.3,30.3,30.2,30.3,30.1,30.3z"/>
				<path class="st4" d="M48.3,30.3c-0.7,0-1.3-0.4-1.3-1.3v-1.5h1.3v-0.3H47v-2.6h-0.3v2.6h-0.4v0.3h0.4v1.5c0,1.1,0.7,1.6,1.5,1.6
					c0.1,0,0.2,0,0.2,0l0-0.3C48.4,30.3,48.4,30.3,48.3,30.3z"/>
				<path class="st4" d="M31.5,27.3c-0.1,0-0.1,0-0.2,0v-2.6h-0.3v5.9h0.3v-3c0.1,0,0.1,0,0.2,0c0.7,0,1.3,0.4,1.3,1.3v1.7h0.3v-1.7
					C33.1,27.8,32.4,27.3,31.5,27.3z"/>
				<path class="st4" d="M53.5,27.3c-0.5,0-1,0.2-1.3,0.6v-0.7l-0.3,0l0,1.7l0,0l0,1.7h0.3v-1.7c0-0.9,0.6-1.3,1.3-1.3
					c0.1,0,0.1,0,0.2,0l0-0.3C53.6,27.3,53.6,27.3,53.5,27.3z"/>
				<polygon class="st4" points="41.5,24.7 37.6,24.7 37.6,24.9 39.4,24.9 39.4,30.5 39.6,30.5 39.6,24.9 41.5,24.9 				"/>
				<path class="st4" d="M42,27.2c-0.7,0-1.3,0.7-1.3,1.5v0.1h0V29c0,1.1,0.7,1.6,1.5,1.6c0.1,0,0.2,0,0.2,0l0-0.3
					c-0.1,0-0.1,0-0.2,0c-0.7,0-1.3-0.4-1.3-1.3v-0.2h2.3v-0.1C43.3,27.9,42.7,27.2,42,27.2z M41,28.5c0.1-0.6,0.5-1.1,1-1.1
					c0.5,0,1,0.5,1,1.1H41z"/>
				<path class="st4" d="M51.4,28.7c0-0.8-0.6-1.5-1.3-1.5h0c-0.4,0-0.7,0.2-0.9,0.4c-0.2,0.3-0.4,0.6-0.4,1v0.1h0V29
					c0,1.1,0.7,1.6,1.5,1.6c0.1,0,0.2,0,0.2,0l0-0.3c-0.1,0-0.1,0-0.2,0c-0.7,0-1.3-0.4-1.3-1.3v-0.2l2.4,0V28.7z M49,28.5
					c0-0.3,0.1-0.5,0.3-0.7c0.2-0.2,0.5-0.3,0.7-0.3h0c0.5,0,1,0.5,1,1.1L49,28.5z"/>
				<path class="st4" d="M44.9,28.8c-0.4-0.1-0.9-0.2-0.9-0.6c0-0.4,0.4-0.7,1.1-0.7c0.2,0,0.4,0,0.5,0.1l0,0l0.1-0.2l0,0
					c-0.2-0.1-0.5-0.1-0.6-0.1c-0.8,0-1.3,0.4-1.3,0.9c0,0.4,0.4,0.7,1.1,0.8c0.4,0.1,0.9,0.2,0.9,0.6c0,0.4-0.4,0.7-1.1,0.7
					c-0.1,0-0.4,0-0.5-0.1l0,0l-0.1,0.2l0,0c0.2,0.1,0.5,0.1,0.6,0.1c0.8,0,1.3-0.4,1.3-0.9C45.9,29.2,45.6,28.9,44.9,28.8z"/>
				<path class="st4" d="M35.2,28.8c-0.1-0.1-0.1-0.1-0.2,0c-0.1,0.1-0.1,0.1,0,0.2l1.4,1.4c0,0,0.1,0,0.1,0s0.1,0,0.1,0
					c0.1-0.1,0.1-0.1,0-0.2L35.2,28.8z"/>
			</g>
		</g>
		<circle class="st4" cx="40.7" cy="58.4" r="10.9"/>
		<text transform="matrix(1 0 0 1 27.9339 85.9269)" class="st4 st21 st22">138,500P</text>
		<g>
			<text transform="matrix(1 0 0 1 323.6321 25.9728)" class="st9 st23 st16">메인으로 이동</text>
			<g>
				<g>
					<g>
						<path class="st9" d="M322.2,25C322.2,25,322.1,25,322.2,25l-0.1,1.3h-0.6v-0.5c0,0,0-0.1-0.1-0.1h-0.5c-0.1,0-0.1,0-0.1,0.1
							v0.5h-0.6v-1.2c0,0,0-0.1-0.1-0.1c0,0-0.1,0-0.1,0.1v1.3c0,0,0,0.1,0.1,0.1h0.8c0,0,0.1,0,0.1-0.1v-0.5h0.3v0.5
							c0,0,0,0.1,0.1,0.1h0.8c0,0,0.1,0,0.1-0.1L322.2,25C322.3,25,322.2,25,322.2,25z"/>
						<path class="st9" d="M321.8,24.2l-0.6-0.6c0,0,0,0-0.1,0c0,0,0,0-0.1,0l-1.5,1.5c0,0,0,0.1,0,0.1c0,0,0.1,0,0.1,0l1.4-1.4
							l1.4,1.4c0,0,0,0,0.1,0c0,0,0,0,0.1,0c0,0,0-0.1,0-0.1l-0.7-0.7L321.8,24.2z"/>
					</g>
				</g>
			</g>
			<g>
				<circle class="st9" cx="345.4" cy="25.2" r="0.9"/>
				<circle class="st9" cx="348.3" cy="25.2" r="0.9"/>
				<circle class="st9" cx="351.2" cy="25.2" r="0.9"/>
			</g>
		</g>
		<g>
			<rect x="81.7" y="34.8" class="st4" width="266.4" height="188.3"/>
			<g>
				<rect x="93.1" y="34.8" class="st24" width="30.9" height="2.4"/>
				<text transform="matrix(1 0 0 1 95.7259 45.943)" class="st25 st11 st26">세부 목표 결과</text>
			</g>
			<rect x="93.1" y="205.2" class="st27" width="243.7" height="9.1"/>
			<g>
				<text transform="matrix(1 0 0 1 179.5096 63.3776)" class="st4 st11 st26">(목표 달성 시간 : 3초)</text>
			</g>
			<rect x="81.8" y="54.7" class="st24" width="266.2" height="9.5"/>
			<rect x="81.8" y="64.2" class="st25" width="266.2" height="9.5"/>
			<g>
				<g>
					<text transform="matrix(1 0 0 1 91.2986 60.6632)" class="st4 st11 st28">목표 2.</text>
				</g>
				<g>
					<text transform="matrix(1 0 0 1 107.8734 60.6632)" class="st4 st11 st28">사용자가 관심있거나 흥미있는 기사를 자신의 SNS에(또는 모바일 메신저에) 공유한다.</text>
				</g>
			</g>
			<text transform="matrix(1 0 0 1 97.4212 211.2018)" class="st25 st29 st26">Comment</text>
			<text transform="matrix(1 0 0 1 185.2083 70.4122)"><tspan x="0" y="0" class="st4 st29 st26">목표 달성 성공   </tspan><tspan x="29.6" y="0" class="st30 st29 st26">/</tspan><tspan x="31.6" y="0" class="st4 st29 st26">  소요시간 : 17초</tspan></text>
			<text transform="matrix(1 0 0 1 125.0477 211.2018)" class="st25 st23 st31">라인도 되나요?</text>
			<g>
				<text transform="matrix(1 0 0 1 311.3162 60.6632)" class="st4 st29 st26">예상 시간 : 1분</text>
			</g>
			<text transform="matrix(1 0 0 1 309.2259 47.525)" class="st25 st29 st26">20-30대 여성 2</text>
			<g>
				<path class="st32" d="M304.6,46.8v-2.4c0-0.7-0.6-1.2-1.2-1.2l0,0c-0.7,0-1.2,0.6-1.2,1.2v2.4H304.6z"/>
				<rect x="302.1" y="44.8" class="st33" width="1.2" height="2"/>
				<path class="st34" d="M302.7,47.7v0.7h1.4v-0.7C303.7,48.1,303.1,48.1,302.7,47.7C302.7,47.7,302.7,47.7,302.7,47.7z"/>
				<path class="st35" d="M304,46.7c-0.1,0-0.2-0.1-0.2-0.2v-0.5h-0.9v0.5c0,0.1-0.1,0.2-0.2,0.2l-0.1,0v0.9
					c0.3,0.4,0.9,0.4,1.3,0.1c0,0,0.1-0.1,0.1-0.1v-0.9L304,46.7z"/>
				<path class="st36" d="M303,47.9c-0.1-0.1-0.3-0.1-0.4-0.2v0.7h0.4V47.9z"/>
				<path class="st37" d="M303.8,46.4v-0.3h-0.9v0.3C303.2,46.6,303.5,46.6,303.8,46.4z"/>
				<g>
					<path class="st38" d="M302,46.8c-0.3,0-0.5,0.3-0.5,0.5v1h1.1v-1.6L302,46.8z"/>
					<path class="st38" d="M305.2,47.4c0-0.3-0.2-0.5-0.5-0.5l-0.7-0.1v1.6h1.1V47.4L305.2,47.4z"/>
				</g>
				<g>
					<path class="st35" d="M302.4,44.5l0,0.8c0,0.5,0.5,0.9,1,0.9c0.5,0,0.9-0.4,0.9-0.9l0-0.8l-1-0.7L302.4,44.5z"/>
					<path class="st35" d="M304.4,44.6L304.4,44.6l-0.1,0.5h0.1c0.1,0,0.3-0.1,0.3-0.3C304.7,44.7,304.6,44.6,304.4,44.6z"/>
				</g>
				<path class="st37" d="M302,44.9c0,0.1,0.1,0.3,0.3,0.3h0.1v-0.5h-0.1C302.2,44.6,302,44.7,302,44.9z"/>
				<path class="st39" d="M301.5,47.3v1.1h0.4v-1.6C301.6,46.9,301.5,47.1,301.5,47.3z"/>
				<path class="st33" d="M303.4,43.6c-0.3,0.3-0.8,0.5-1.2,0.6c0,0.1,0,0.2,0,0.3v0.2h0.3l1-0.8V43.6L303.4,43.6z"/>
				<path class="st37" d="M302.9,44.9l0-0.6c-0.2,0.1-0.3,0.2-0.4,0.4l0.1,0.7c0,0.4,0.3,0.8,0.7,0.9l-0.1-0.2
					C302.9,45.6,302.9,45.3,302.9,44.9z"/>
				<circle cx="303.9" cy="44.8" r="0.2"/>
				<path d="M303.4,45.3l-0.3-0.1c0,0,0,0-0.1,0c0,0,0-0.1,0-0.1l0.2-0.4l0.2,0.1l-0.1,0.3l0.2,0.1L303.4,45.3z"/>
				<path d="M301.6,48.4h-0.2v-1c0-0.3,0.2-0.6,0.5-0.6l0.8-0.1c0,0,0.1,0,0.1-0.1v-0.5h0.2v0.5c0,0.1-0.1,0.2-0.2,0.3l-0.8,0.1
					c-0.2,0-0.4,0.2-0.4,0.4L301.6,48.4L301.6,48.4z"/>
				<path d="M305.3,48.4h-0.2v-1c0-0.2-0.2-0.4-0.4-0.4l-0.8-0.1c-0.1,0-0.2-0.1-0.2-0.3v-0.5h0.2v0.5c0,0,0,0.1,0.1,0.1l0.8,0.1
					c0.3,0,0.5,0.3,0.5,0.6V48.4L305.3,48.4z"/>
				<path d="M304.4,45.2L304.4,45.2l-0.1-0.2h0.1c0.1,0,0.2-0.1,0.2-0.2c0-0.1-0.1-0.2-0.2-0.2h-0.1v-0.2h0.1c0.2,0,0.4,0.2,0.4,0.4
					C304.8,45.1,304.6,45.2,304.4,45.2z"/>
				<path d="M303.4,46.3c-0.5,0-1-0.4-1-1l0-0.8l0.2,0l0,0.8c0,0.4,0.4,0.8,0.8,0.8c0.4,0,0.8-0.3,0.8-0.8l0-0.8l0.2,0l0,0.8
					C304.3,45.9,303.9,46.3,303.4,46.3z"/>
				<path d="M303.3,45.7L303.3,45.7L303.3,45.7l-0.1-0.2h0.1h0c0.1,0,0.2,0,0.3-0.1l0.1,0.2C303.5,45.6,303.4,45.7,303.3,45.7z"/>
				<circle cx="302.8" cy="44.8" r="0.2"/>
				<path d="M304.3,44.7l-0.9-0.7l-0.9,0.7l-0.1-0.1l1-0.8c0,0,0.1,0,0.1,0l1,0.8L304.3,44.7z"/>
				<path d="M302.4,45.2L302.4,45.2c-0.3,0-0.4-0.2-0.4-0.4c0-0.2,0.2-0.4,0.4-0.4h0.1v0.2h-0.1c-0.1,0-0.2,0.1-0.2,0.2
					c0,0.1,0.1,0.2,0.2,0.2h0.1V45.2z"/>
				<path d="M304.7,44.7h-0.2v-0.3c0-0.6-0.5-1.1-1.1-1.1c-0.6,0-1.1,0.5-1.1,1.1v0.3H302v-0.3c0-0.7,0.6-1.3,1.3-1.3
					c0.7,0,1.3,0.6,1.3,1.3V44.7z"/>
				<rect x="303.3" y="43.2" width="0.2" height="0.6"/>
				<rect x="302" y="45" width="0.2" height="1.8"/>
				<rect x="304.5" y="45" width="0.2" height="1.8"/>
				<rect x="302.6" y="46.7" width="0.2" height="1.7"/>
				<rect x="304" y="46.7" width="0.2" height="1.7"/>
				<path d="M303.4,48.1c-0.3,0-0.6-0.1-0.8-0.3l0.1-0.1c0.3,0.4,0.9,0.4,1.2,0.1c0,0,0,0,0.1-0.1l0.1,0.1c0,0-0.1,0.1-0.1,0.1
					C303.8,48,303.6,48.1,303.4,48.1z"/>
			</g>
			<line class="st27" x1="121.2" y1="205.2" x2="121.2" y2="214.3"/>
			
				<image style="overflow:visible;" width="536" height="952" xlink:href="F73020F09961EB7.jpg"  transform="matrix(9.441436e-02 0 0 9.441436e-02 97.3445 89.298)">
			</image>
			
				<image style="overflow:visible;" width="509" height="902" xlink:href="F73020F09961EB5.jpg"  transform="matrix(9.968916e-02 0 0 9.968916e-02 158.4459 89.261)">
			</image>
			
				<image style="overflow:visible;" width="509" height="902" xlink:href="F73020F09961EBB.jpg"  transform="matrix(9.968916e-02 0 0 9.968916e-02 219.5473 89.261)">
			</image>
			<g>
				<g>
					<path class="st25" d="M151.6,138v-3.8l2.9,1.9L151.6,138z"/>
				</g>
			</g>
			<g>
				<g>
					<path class="st25" d="M212.9,138v-3.8l2.9,1.9L212.9,138z"/>
				</g>
			</g>
			<g>
				<g>
					<path class="st25" d="M273.6,138v-3.8l2.9,1.9L273.6,138z"/>
				</g>
			</g>
			<text transform="matrix(1 0 0 1 97.345 87.4484)" class="st25 st23 st40">Flow1</text>
			<text transform="matrix(1 0 0 1 158.4451 87.4484)" class="st25 st23 st40">Flow2. 스크롤다운</text>
			<text transform="matrix(1 0 0 1 219.5467 87.4484)" class="st25 st23 st40">Flow3. 스크롤업</text>
			<text transform="matrix(1 0 0 1 279.8055 87.4484)" class="st25 st23 st40">Flow4</text>
			<text transform="matrix(1 0 0 1 289.3099 187.1671)"><tspan x="0" y="0" class="st25 st23 st41">*헤더에 생성되는 공유버튼이</tspan><tspan x="0" y="4.4" class="st25 st23 st41"> 아닌 기사제목 하단에 고정되어</tspan><tspan x="0" y="8.8" class="st25 st23 st41"> 있는 카카오톡 아이콘 클릭</tspan></text>
			<rect x="97.3" y="140.6" class="st42" width="50.6" height="25"/>
			<g>
				<circle class="st24" cx="184.1" cy="148.5" r="13.5"/>
				<g>
					<path class="st43" d="M177.8,146.2c0.1,0,0.2,0,0.3-0.1l1.5-1.5c0.1-0.1,0.1-0.4,0-0.5c-0.1-0.1-0.4-0.1-0.5,0l-0.9,0.9v-4.2
						c0-0.2-0.2-0.4-0.4-0.4c-0.2,0-0.4,0.2-0.4,0.4v4.2l-0.9-0.9c-0.1-0.1-0.4-0.1-0.5,0c-0.1,0.1-0.1,0.4,0,0.5l1.5,1.5
						C177.7,146.2,177.8,146.2,177.8,146.2z"/>
					<path class="st44" d="M189.7,148.9c-0.2-1.4-1.2-1.6-1.7-1.6c0,0,0,0,0,0c0,0,0,0,0,0c-0.1,0-0.3-0.1-0.3-0.2
						c-0.3-0.6-0.8-0.7-1.2-0.7c0,0,0,0-0.1,0c0,0,0,0,0,0c-0.2,0-0.3-0.1-0.3-0.3v-3.9c0-0.5-0.4-1-1-1c-0.5,0-1,0.4-1,1v3.9
						c0,0.2-0.1,0.4-0.3,0.4c0,0,0,0,0,0c-0.2,0-0.3-0.2-0.3-0.4l0-3.2c0-0.6-0.5-0.9-1-0.9c-0.5,0-1,0.3-1,0.9l0,4.8
						c0,0.4-0.4,0.7-0.8,0.7c-0.2,0-0.5-0.1-0.6-0.3l-0.1-0.1c-0.2-0.3-0.5-0.5-0.8-0.5c-0.6,0-1.3,0.7-0.8,1.4c0,0,0,0,0,0l3.5,6.5
						c0.1,0.1,0.2,0.2,0.4,0.2l4.9,0h0c0.2,0,0.3-0.1,0.4-0.3l0.5-1.5c0,0,0-0.1,0.1-0.1C189.4,151.7,189.9,150.2,189.7,148.9z"/>
					<path d="M190.4,148.7c-0.2-1-0.7-1.5-1.1-1.8c-0.4-0.3-0.9-0.4-1.2-0.4c-0.3-0.4-0.7-0.8-1.4-0.9v-3.5c0-1-0.7-1.7-1.7-1.7
						c-0.4,0-0.9,0.2-1.2,0.5c-0.2,0.2-0.3,0.4-0.4,0.6c-0.3-0.2-0.7-0.3-1-0.3c-1,0-1.7,0.7-1.7,1.6l0,4.7c0,0-0.1,0-0.1,0
						c0,0,0,0,0,0l0-0.1c-0.3-0.5-0.8-0.8-1.4-0.8c-0.6,0-1.2,0.3-1.5,0.9c-0.3,0.5-0.3,1.1,0,1.6c0,0,0,0,0,0l3.5,6.5
						c0.2,0.4,0.6,0.6,1,0.6l4.9,0c0.5,0,0.9-0.3,1.1-0.8l0.5-1.4c0,0,0,0,0,0C190.1,151.9,190.6,150.3,190.4,148.7z M188,153.9
						l-0.5,1.5c0,0.2-0.2,0.3-0.4,0.3h0l-4.9,0c-0.2,0-0.3-0.1-0.4-0.2l-3.5-6.5c0,0,0,0,0,0c-0.4-0.7,0.2-1.4,0.8-1.4
						c0.3,0,0.6,0.1,0.8,0.5l0.1,0.1c0.1,0.2,0.4,0.3,0.6,0.3c0.4,0,0.8-0.3,0.8-0.7l0-4.8c0-0.6,0.5-0.9,1-0.9c0.5,0,1,0.3,1,0.9
						l0,3.2c0,0.2,0.2,0.4,0.3,0.4c0,0,0,0,0,0c0.2,0,0.3-0.2,0.3-0.4v-3.9c0-0.5,0.4-1,1-1c0.6,0,1,0.5,1,1v3.9
						c0,0.2,0.1,0.3,0.3,0.3c0,0,0,0,0,0c0,0,0,0,0.1,0c0.4,0,0.9,0.1,1.2,0.7c0.1,0.1,0.2,0.2,0.3,0.2c0,0,0,0,0,0c0,0,0,0,0,0
						c0.5,0,1.5,0.2,1.7,1.6c0.2,1.4-0.3,2.8-1.7,4.9C188,153.8,188,153.8,188,153.9z"/>
				</g>
			</g>
			<g>
				<circle class="st24" cx="244.7" cy="148.5" r="13.5"/>
				<g>
					<path class="st43" d="M238.5,146.2c0.1,0,0.2,0,0.3-0.1l1.5-1.5c0.1-0.1,0.1-0.4,0-0.5c-0.1-0.1-0.4-0.1-0.5,0l-0.9,0.9v-4.2
						c0-0.2-0.2-0.4-0.4-0.4c-0.2,0-0.4,0.2-0.4,0.4v4.2l-0.9-0.9c-0.1-0.1-0.4-0.1-0.5,0c-0.1,0.1-0.1,0.4,0,0.5l1.5,1.5
						C238.3,146.2,238.4,146.2,238.5,146.2z"/>
					<path class="st44" d="M250.3,148.9c-0.2-1.4-1.2-1.6-1.7-1.6c0,0,0,0,0,0c0,0,0,0,0,0c-0.1,0-0.3-0.1-0.3-0.2
						c-0.3-0.6-0.8-0.7-1.2-0.7c0,0,0,0-0.1,0c0,0,0,0,0,0c-0.2,0-0.3-0.1-0.3-0.3v-3.9c0-0.5-0.4-1-1-1c-0.5,0-1,0.4-1,1v3.9
						c0,0.2-0.1,0.4-0.3,0.4c0,0,0,0,0,0c-0.2,0-0.3-0.2-0.3-0.4l0-3.2c0-0.6-0.5-0.9-1-0.9c-0.5,0-1,0.3-1,0.9l0,4.8
						c0,0.4-0.4,0.7-0.8,0.7c-0.2,0-0.5-0.1-0.6-0.3l-0.1-0.1c-0.2-0.3-0.5-0.5-0.8-0.5c-0.6,0-1.3,0.7-0.8,1.4c0,0,0,0,0,0l3.5,6.5
						c0.1,0.1,0.2,0.2,0.4,0.2l4.9,0h0c0.2,0,0.3-0.1,0.4-0.3l0.5-1.5c0,0,0-0.1,0.1-0.1C250.1,151.7,250.6,150.2,250.3,148.9z"/>
					<path d="M251,148.7c-0.2-1-0.7-1.5-1.1-1.8c-0.4-0.3-0.9-0.4-1.2-0.4c-0.3-0.4-0.7-0.8-1.4-0.9v-3.5c0-1-0.7-1.7-1.7-1.7
						c-0.4,0-0.9,0.2-1.2,0.5c-0.2,0.2-0.3,0.4-0.4,0.6c-0.3-0.2-0.7-0.3-1-0.3c-1,0-1.7,0.7-1.7,1.6l0,4.7c0,0-0.1,0-0.1,0
						c0,0,0,0,0,0l0-0.1c-0.3-0.5-0.8-0.8-1.4-0.8c-0.6,0-1.2,0.3-1.5,0.9c-0.3,0.5-0.3,1.1,0,1.6c0,0,0,0,0,0l3.5,6.5
						c0.2,0.4,0.6,0.6,1,0.6l4.9,0c0.5,0,0.9-0.3,1.1-0.8l0.5-1.4c0,0,0,0,0,0C250.8,151.9,251.3,150.3,251,148.7z M248.6,153.9
						l-0.5,1.5c0,0.2-0.2,0.3-0.4,0.3h0l-4.9,0c-0.2,0-0.3-0.1-0.4-0.2L239,149c0,0,0,0,0,0c-0.4-0.7,0.2-1.4,0.8-1.4
						c0.3,0,0.6,0.1,0.8,0.5l0.1,0.1c0.1,0.2,0.4,0.3,0.6,0.3c0.4,0,0.8-0.3,0.8-0.7l0-4.8c0-0.6,0.5-0.9,1-0.9c0.5,0,1,0.3,1,0.9
						l0,3.2c0,0.2,0.2,0.4,0.3,0.4c0,0,0,0,0,0c0.2,0,0.3-0.2,0.3-0.4v-3.9c0-0.5,0.4-1,1-1c0.6,0,1,0.5,1,1v3.9
						c0,0.2,0.1,0.3,0.3,0.3c0,0,0,0,0,0c0,0,0,0,0.1,0c0.4,0,0.9,0.1,1.2,0.7c0.1,0.1,0.2,0.2,0.3,0.2c0,0,0,0,0,0c0,0,0,0,0,0
						c0.5,0,1.5,0.2,1.7,1.6c0.2,1.4-0.3,2.8-1.7,4.9C248.7,153.8,248.6,153.8,248.6,153.9z"/>
				</g>
			</g>
			<g>
				
					<image style="overflow:visible;" width="509" height="902" xlink:href="F73020F09961EBD.jpg"  transform="matrix(9.968916e-02 0 0 9.968916e-02 279.8069 89.261)">
				</image>
				<g>
					<defs>
						<rect id="SVGID_1_" x="296.3" y="118.2" width="32.4" height="8.2"/>
					</defs>
					<use xlink:href="#SVGID_1_"  style="overflow:visible;fill:#010506;"/>
					<clipPath id="SVGID_2_">
						<use xlink:href="#SVGID_1_"  style="overflow:visible;"/>
					</clipPath>
					<g transform="matrix(1 0 0 1 0 -3.814697e-06)" style="clip-path:url(#SVGID_2_);">
						
							<image style="overflow:visible;" width="509" height="902" xlink:href="F73020F09961EBF.jpg"  transform="matrix(9.968916e-02 0 0 9.968916e-02 280.5158 62.1926)">
						</image>
					</g>
					<use xlink:href="#SVGID_1_"  style="overflow:visible;fill:none;stroke:#3BD2CF;stroke-miterlimit:10;"/>
				</g>
				<rect x="296.3" y="118.2" class="st42" width="32.4" height="8.2"/>
			</g>
		</g>
	</g>
</g>
</svg>
