<?xml version="1.0" encoding="utf-8"?>
<!-- Generator: Adobe Illustrator 16.0.0, SVG Export Plug-In . SVG Version: 6.00 Build 0)  -->
<!DOCTYPE svg PUBLIC "-//W3C//DTD SVG 1.1//EN" "http://www.w3.org/Graphics/SVG/1.1/DTD/svg11.dtd">
<svg version="1.1" id="Layer_1" xmlns="http://www.w3.org/2000/svg" xmlns:xlink="http://www.w3.org/1999/xlink" x="0px" y="0px"
	 width="135px" height="135px" viewBox="0 0 135 135" enable-background="new 0 0 135 135" xml:space="preserve">
<g>
	<circle fill="#E8454A" cx="55.613" cy="32.821" r="13"/>
	<g>
		<path d="M88.885,81.273c1.091,0,1.977-0.886,1.977-1.977c0-1.092-0.886-1.978-1.977-1.978s-1.977,0.886-1.977,1.978
			C86.908,80.388,87.793,81.273,88.885,81.273z"/>
		<path d="M35.879,80.119c1.226,5.206,3.164,10.213,5.762,14.878c2.6,4.668,5.834,8.952,9.616,12.733l0.063,0.063v8.275
			c0,1.092,0.885,1.978,1.977,1.978h35.587c1.092,0,1.977-0.886,1.977-1.978v-8.503c5.131-7.904,7.908-17.173,7.908-26.71V65.457
			c0-4.36-3.548-7.908-7.908-7.908c-1.627,0-3.141,0.494-4.4,1.341c-1.082-3.08-4.017-5.295-7.462-5.295
			c-1.627,0-3.141,0.494-4.4,1.341c-1.082-3.08-4.018-5.295-7.462-5.295c-1.411,0-2.765,0.369-3.954,1.059V32.638
			c0-4.369-3.539-7.908-7.908-7.908c-4.361,0-7.909,3.548-7.909,7.908v28.466l-5.403,3.603
			C36.944,68.052,34.499,74.246,35.879,80.119z M44.158,67.995l3.208-2.14v13.441c0,1.092,0.885,1.977,1.977,1.977
			c1.092,0,1.977-0.885,1.977-1.977c0-1.441,0-45.467,0-46.659c0-2.18,1.774-3.954,3.955-3.954c2.184,0,3.954,1.771,3.954,3.954
			v38.75c0,1.093,0.885,1.978,1.977,1.978c1.092,0,1.978-0.885,1.978-1.978V57.549c0-2.185,1.77-3.954,3.954-3.954
			c2.18,0,3.954,1.773,3.954,3.954v13.839c0,1.093,0.885,1.978,1.977,1.978c1.092,0,1.977-0.885,1.977-1.978v-9.885
			c0-2.18,1.774-3.954,3.954-3.954s3.954,1.774,3.954,3.954v9.885c0,1.093,0.885,1.978,1.977,1.978c1.092,0,1.977-0.885,1.977-1.978
			v-5.931c0-2.181,1.774-3.954,3.954-3.954s3.954,1.773,3.954,3.954v15.399c0,8.854-2.605,17.566-7.576,25.022
			c-0.216,0.325-0.332,0.706-0.332,1.097v7.117H55.275v-7.117c0-0.524-0.209-1.027-0.58-1.398c-0.418-0.477-5.36-4.889-9.6-12.504
			c-2.419-4.346-4.226-9.01-5.368-13.859C38.724,74.94,40.504,70.432,44.158,67.995z"/>
		<path d="M81.208,104.233c0.907,0.604,2.135,0.362,2.742-0.548c3.281-4.92,5.426-10.362,6.375-16.179
			c0.175-1.077-0.556-2.094-1.634-2.27s-2.093,0.556-2.27,1.633c-0.856,5.256-2.794,10.174-5.76,14.621
			C80.054,102.399,80.3,103.626,81.208,104.233z"/>
		<path d="M41.435,34.615c1.092,0,1.977-0.886,1.977-1.978c0-6.541,5.322-11.862,11.863-11.862c6.541,0,11.862,5.321,11.862,11.862
			c0,1.092,0.885,1.978,1.977,1.978c1.092,0,1.977-0.886,1.977-1.978c0-8.722-7.095-15.816-15.816-15.816
			c-8.722,0-15.817,7.095-15.817,15.816C39.458,33.729,40.343,34.615,41.435,34.615z"/>
	</g>
</g>
</svg>
