<?xml version="1.0" encoding="utf-8"?>
<!-- Generator: Adobe Illustrator 16.0.0, SVG Export Plug-In . SVG Version: 6.00 Build 0)  -->
<!DOCTYPE svg PUBLIC "-//W3C//DTD SVG 1.1//EN" "http://www.w3.org/Graphics/SVG/1.1/DTD/svg11.dtd">
<svg version="1.1" id="Layer_1" xmlns="http://www.w3.org/2000/svg" xmlns:xlink="http://www.w3.org/1999/xlink" x="0px" y="0px"
	 width="135px" height="135px" viewBox="0 0 135 135" enable-background="new 0 0 135 135" xml:space="preserve">
<g>
	<g>
		<path fill="#FFFFFF" d="M134.5,124.5c0,5.523-4.478,10-10,10h-114c-5.522,0-10-4.477-10-10v-114c0-5.523,4.478-10,10-10h114
			c5.522,0,10,4.477,10,10V124.5z"/>
		<path fill="#C8C8C8" d="M124.5,135h-114C4.71,135,0,130.29,0,124.5v-114C0,4.71,4.71,0,10.5,0h114c5.79,0,10.5,4.71,10.5,10.5v114
			C135,130.29,130.29,135,124.5,135z M10.5,1C5.262,1,1,5.262,1,10.5v114c0,5.238,4.262,9.5,9.5,9.5h114c5.238,0,9.5-4.262,9.5-9.5
			v-114c0-5.238-4.262-9.5-9.5-9.5H10.5z"/>
	</g>
	<polygon fill="#E8454A" points="36.5,0.5 0.5,34.656 0.5,81.334 83.167,0.5 	"/>
	<g>
		<path fill="#FFFFFF" d="M5.649,49.162l3.047-3.047l0.764,0.764l-3.047,3.047L5.649,49.162z M7.269,54.092
			c0.663-0.809,1.114-1.531,1.354-2.168c0.241-0.637,0.27-1.186,0.089-1.649l-2.256,2.257l-0.773-0.773l5.608-5.608l0.772,0.772
			l-2.248,2.249c0.424,0.187,0.951,0.163,1.582-0.072s1.365-0.675,2.202-1.32c0.007,0.12,0.017,0.239,0.029,0.361
			c0.015,0.122,0.03,0.243,0.048,0.36c0.011,0.113,0.023,0.223,0.037,0.326c0.014,0.105,0.027,0.197,0.038,0.276
			c-0.769,0.532-1.458,0.918-2.065,1.159c-0.607,0.24-1.143,0.334-1.6,0.284c0.039,0.503-0.061,1.062-0.302,1.676
			c-0.24,0.613-0.624,1.28-1.149,1.997L7.269,54.092z M16.001,49.451l-2.986,2.986l2.273,2.273l-0.977,0.977l-2.273-2.273L9,56.451
			l-0.806-0.807l7-7L16.001,49.451z"/>
		<path fill="#FFFFFF" d="M15.364,40.313c0.085-0.085,0.164-0.128,0.237-0.128c0.073,0.001,0.153,0.043,0.238,0.128
			c1.126,1.262,1.882,2.615,2.27,4.06c0.388,1.445,0.397,2.997,0.029,4.654l-1.435,0.161c0.414-1.43,0.51-2.75,0.285-3.957
			c-0.224-1.209-0.771-2.299-1.642-3.272l-2.512,2.512l-0.814-0.814L15.364,40.313z M23.833,46.168l-7.604-7.604l0.951-0.95
			l2.961,2.961l1.035-1.035l0.857,0.856l-1.035,1.035l3.784,3.785L23.833,46.168z"/>
		<path fill="#FFFFFF" d="M24.901,36.833l-3.258-3.258l0.941-0.942l1.018,1.018l1.715-1.713L24.3,30.92l0.951-0.951l0.738,0.738
			l1.349-1.35l-0.942-0.941l0.967-0.967l3.929,3.928l-0.967,0.967l-0.856-0.857l-1.35,1.35l0.391,0.391
			c0.09,0.09,0.135,0.172,0.131,0.242c-0.003,0.071-0.047,0.148-0.131,0.232l-3.141,3.141c-0.09,0.09-0.168,0.135-0.232,0.131
			C25.071,36.971,24.991,36.924,24.901,36.833z M27.04,33.66l-0.967-0.967l-1.715,1.713l0.968,0.968L27.04,33.66z M30.019,39.88
			c-0.09,0.091-0.17,0.135-0.238,0.136c-0.066,0-0.146-0.046-0.236-0.137l-1.527-1.527c-0.086-0.084-0.129-0.162-0.133-0.232
			c-0.002-0.07,0.041-0.152,0.132-0.242l3.87-3.87l-0.577-0.577l-4.107,4.107l-0.747-0.746l4.88-4.88
			c0.085-0.085,0.164-0.127,0.237-0.127s0.152,0.042,0.238,0.128l1.519,1.519c0.091,0.091,0.134,0.171,0.132,0.241
			c-0.004,0.07-0.047,0.148-0.131,0.234l-3.854,3.852l0.586,0.586l4.252-4.252l0.746,0.747L30.019,39.88z M26.727,31.444
			l0.661,0.661l1.35-1.349l-0.662-0.661L26.727,31.444z"/>
		<path fill="#FFFFFF" d="M29.789,25.7l5.065-5.065l0.807,0.807l-4.327,4.327l2.223,2.223l4.396-4.396l0.814,0.814l-2.256,2.258
			l1.756,1.756l3.012-3.013l0.814,0.815l-7.009,7.009l-0.815-0.815l3.004-3.004l-1.756-1.756l-1.892,1.893
			c-0.091,0.09-0.168,0.134-0.233,0.131c-0.065-0.002-0.143-0.049-0.232-0.139l-3.369-3.369c-0.085-0.085-0.129-0.162-0.133-0.234
			C29.655,25.871,29.698,25.791,29.789,25.7z"/>
		<path fill="#FFFFFF" d="M37.01,18.174l4.82-4.82c0.085-0.085,0.165-0.127,0.237-0.127c0.074,0,0.152,0.043,0.238,0.127
			l2.324,2.326c0.091,0.09,0.135,0.17,0.132,0.241s-0.046,0.147-0.132,0.233l-4.828,4.828c-0.09,0.09-0.166,0.136-0.229,0.136
			c-0.063,0.001-0.139-0.045-0.229-0.136l-2.333-2.334c-0.086-0.084-0.129-0.162-0.131-0.232
			C36.876,18.346,36.919,18.264,37.01,18.174z M43.12,16.053l-1.188-1.188l-3.403,3.402l1.188,1.188L43.12,16.053z M44.901,21.958
			l-1.502-1.502l-3.14,3.14l-0.813-0.814l7-7l0.814,0.814l-2.885,2.885l1.502,1.502L44.901,21.958z M44.292,25.42
			c-0.092,0.092-0.17,0.135-0.234,0.132c-0.065-0.002-0.143-0.05-0.233-0.14l-2.087-2.088l0.967-0.967l1.511,1.51l4.54-4.539
			l0.814,0.814L44.292,25.42z"/>
		<path fill="#FFFFFF" d="M49.892,13.15c-0.306,0.306-0.631,0.535-0.976,0.688c-0.347,0.152-0.696,0.232-1.053,0.237
			c-0.351,0.001-0.693-0.07-1.026-0.212c-0.334-0.142-0.643-0.354-0.926-0.637c-0.271-0.271-0.478-0.574-0.619-0.908
			c-0.142-0.333-0.213-0.676-0.212-1.026c0.006-0.355,0.083-0.708,0.233-1.057c0.15-0.347,0.377-0.675,0.683-0.979
			c0.3-0.3,0.624-0.524,0.972-0.675c0.348-0.149,0.7-0.227,1.057-0.233c0.351,0,0.693,0.07,1.031,0.207
			c0.336,0.14,0.641,0.345,0.912,0.615c0.283,0.283,0.493,0.594,0.633,0.93c0.137,0.338,0.207,0.681,0.207,1.031
			c-0.006,0.357-0.086,0.707-0.237,1.053C50.417,12.528,50.19,12.852,49.892,13.15z M46.803,10.063
			c-0.339,0.34-0.494,0.708-0.463,1.107c0.031,0.398,0.211,0.762,0.538,1.09c0.323,0.322,0.688,0.504,1.096,0.543
			c0.407,0.04,0.78-0.11,1.119-0.449c0.34-0.34,0.49-0.713,0.451-1.121c-0.04-0.406-0.221-0.771-0.544-1.095
			c-0.327-0.327-0.691-0.507-1.09-0.538C47.511,9.568,47.142,9.723,46.803,10.063z M48.618,16.63l2.283-2.334
			c0.13-0.13,0.302-0.316,0.518-0.56c0.215-0.244,0.443-0.51,0.687-0.798s0.483-0.585,0.722-0.89
			c0.237-0.308,0.443-0.587,0.619-0.841l0.789,0.789c-0.406,0.646-0.951,1.362-1.634,2.15c-0.682,0.789-1.44,1.603-2.278,2.44
			l-0.873,0.873L48.618,16.63z M49.679,5.133l7.594,7.594l-0.957,0.959l-7.595-7.595L49.679,5.133z"/>
	</g>
	<g>
		<path fill="#FFDE55" d="M90.597,46.262c-12.904-12.904-33.828-12.906-46.734,0c-12.904,12.904-12.904,33.828,0,46.732
			C56.768,105.9,77.691,105.9,90.597,92.996c6.197-6.197,9.679-14.604,9.679-23.367C100.287,60.863,96.805,52.453,90.597,46.262z
			 M67.229,92.102c-12.41,0-22.471-10.061-22.471-22.473c0-12.408,10.061-22.471,22.471-22.471s22.472,10.061,22.472,22.471
			C89.701,82.041,79.641,92.102,67.229,92.102z"/>
		<path fill="#FFC477" d="M83.12,53.74c-8.776-8.775-23.004-8.775-31.779,0s-8.776,23.002-0.001,31.777
			c8.776,8.775,23.004,8.775,31.779,0c4.214-4.213,6.582-9.928,6.582-15.889C89.708,63.668,87.34,57.951,83.12,53.74z
			 M67.229,80.203c-5.84,0-10.574-4.732-10.574-10.574c0-5.84,4.734-10.574,10.574-10.574c5.841,0,10.575,4.734,10.575,10.574
			C77.805,75.471,73.07,80.203,67.229,80.203z"/>
		<path fill="#FF6243" d="M74.707,62.152c-4.129-4.129-10.825-4.129-14.954,0c-4.13,4.129-4.13,10.824-0.001,14.955
			c4.13,4.129,10.825,4.129,14.955,0c1.983-1.984,3.098-4.674,3.098-7.479C77.808,66.824,76.693,64.133,74.707,62.152z"/>
		<path fill="#00DDC2" d="M101.426,35.434l-0.935-4.674l-7.477,7.477l0.934,4.676l4.674,0.934l7.478-7.477L101.426,35.434z"/>
		<path fill="#2D2D30" d="M98.361,45.143c0.087,0.016,0.176,0.025,0.265,0.025c0.351,0,0.687-0.141,0.935-0.387l7.478-7.479
			c0.516-0.518,0.515-1.354-0.002-1.869c-0.186-0.186-0.423-0.313-0.68-0.361l-3.807-0.762l-0.763-3.807
			c-0.143-0.717-0.839-1.18-1.554-1.039c-0.257,0.053-0.492,0.178-0.677,0.363l-7.478,7.475c-0.311,0.311-0.447,0.758-0.361,1.189
			l0.794,3.979l-1.952,1.951c-6.006-5.578-13.816-8.818-22.008-9.127v-5.32h-2.644v5.32c-17.931,0.711-32.302,15.084-33.014,33.014
			h-5.319v2.643h5.319c0.712,17.93,15.083,32.303,33.014,33.014v5.318h2.644v-5.318c17.93-0.711,32.302-15.084,33.013-33.014h5.321
			v-2.643h-5.321c-0.311-8.195-3.552-16.006-9.133-22.012l1.95-1.951L98.361,45.143z M99.684,33.441l0.451,2.248
			c0.104,0.523,0.513,0.932,1.035,1.037l2.248,0.449l-5.23,5.236L96.629,42.1l3.862-3.863l-1.869-1.867L94.76,40.23l-0.312-1.559
			L99.684,33.441z M98.921,68.309H96.31v2.643h2.611c-0.707,16.471-13.898,29.662-30.369,30.369v-2.609h-2.644v2.609
			c-16.471-0.707-29.662-13.898-30.369-30.369h2.61v-2.643h-2.61c0.707-16.471,13.898-29.662,30.369-30.371v2.611h2.644v-2.611
			c7.493,0.307,14.633,3.271,20.143,8.357l-5.627,5.629c-9.847-8.779-24.945-7.914-33.725,1.932s-7.914,24.945,1.932,33.725
			c9.847,8.777,24.944,7.912,33.725-1.932c8.098-9.082,8.073-22.803-0.057-31.855l5.629-5.629
			C95.655,53.676,98.616,60.816,98.921,68.309z M68.165,70.564l6.467-6.467c3.074,4.109,2.236,9.93-1.872,13.004
			c-4.106,3.074-9.929,2.236-13.003-1.869c-3.074-4.109-2.236-9.93,1.871-13.004c3.3-2.471,7.833-2.471,11.132,0l-6.465,6.463
			L68.165,70.564z M74.642,60.344c-5.146-4.113-12.65-3.277-16.764,1.869c-4.113,5.145-3.275,12.65,1.869,16.764
			c5.146,4.113,12.65,3.275,16.764-1.869c3.48-4.355,3.48-10.541,0-14.895l6.552-6.553c7.757,8.789,6.921,22.201-1.869,29.957
			c-8.788,7.758-22.201,6.922-29.957-1.867c-7.757-8.789-6.92-22.203,1.868-29.959c8.024-7.082,20.065-7.082,28.089,0L74.642,60.344
			z"/>
	</g>
</g>
</svg>
