<?xml version="1.0" encoding="utf-8"?>
<!-- Generator: Adobe Illustrator 16.0.0, SVG Export Plug-In . SVG Version: 6.00 Build 0)  -->
<!DOCTYPE svg PUBLIC "-//W3C//DTD SVG 1.1//EN" "http://www.w3.org/Graphics/SVG/1.1/DTD/svg11.dtd">
<svg version="1.1" id="Layer_1" xmlns="http://www.w3.org/2000/svg" xmlns:xlink="http://www.w3.org/1999/xlink" x="0px" y="0px"
	 width="251px" height="251px" viewBox="0 0 251 251" enable-background="new 0 0 251 251" xml:space="preserve">
<g>
	<path fill="#F0F0F0" d="M231.194,251H19.806C8.867,251,0,242.133,0,231.194V19.806C0,8.867,8.867,0,19.806,0h211.389
		C242.133,0,251,8.867,251,19.806v211.388C251,242.133,242.133,251,231.194,251z"/>
	<g>
		<path fill="#FFDE55" d="M168.754,82.968c-23.963-23.962-62.816-23.966-86.781,0c-23.963,23.962-23.963,62.815,0,86.777
			c23.963,23.966,62.816,23.966,86.779,0.004c11.508-11.508,17.974-27.118,17.974-43.391
			C186.748,110.081,180.279,94.465,168.754,82.968z M125.363,168.088c-23.046,0-41.728-18.682-41.728-41.729
			c0-23.041,18.682-41.726,41.728-41.726c23.044,0,41.727,18.681,41.727,41.726C167.09,149.406,148.408,168.088,125.363,168.088z"/>
		<path fill="#FFC477" d="M154.869,96.854c-16.296-16.295-42.715-16.295-59.011,0s-16.297,42.712-0.002,59.007
			c16.296,16.296,42.716,16.296,59.012,0c7.823-7.822,12.222-18.435,12.222-29.503C167.104,115.289,162.705,104.674,154.869,96.854z
			 M125.363,145.993c-10.846,0-19.637-8.787-19.637-19.635c0-10.845,8.791-19.636,19.637-19.636
			c10.844,0,19.636,8.791,19.636,19.636C144.999,137.206,136.207,145.993,125.363,145.993z"/>
		<path fill="#FF6243" d="M139.248,112.475c-7.668-7.667-20.102-7.667-27.77,0s-7.668,20.1-0.002,27.771
			c7.669,7.667,20.103,7.667,27.771,0c3.682-3.685,5.751-8.679,5.751-13.887C145.006,121.15,142.936,116.152,139.248,112.475z"/>
		<path fill="#00DDC2" d="M188.861,62.861l-1.734-8.68l-13.885,13.884l1.734,8.683l8.68,1.733l13.885-13.884L188.861,62.861z"/>
		<path fill="#2D2D30" d="M183.172,80.89c0.16,0.028,0.326,0.047,0.49,0.047c0.652,0,1.275-0.261,1.735-0.718l13.886-13.887
			c0.957-0.961,0.956-2.514-0.004-3.471c-0.346-0.345-0.785-0.581-1.263-0.672l-7.069-1.414l-1.414-7.068
			c-0.266-1.331-1.559-2.19-2.887-1.93c-0.475,0.098-0.914,0.33-1.257,0.675l-13.882,13.88c-0.578,0.576-0.832,1.406-0.673,2.208
			l1.474,7.388l-3.625,3.623c-11.152-10.357-25.654-16.374-40.865-16.947v-9.879h-4.91v9.879
			c-33.293,1.32-59.98,28.01-61.302,61.303h-9.878v4.907h9.878c1.321,33.294,28.009,59.982,61.302,61.302v9.877h4.91v-9.877
			c33.293-1.32,59.98-28.008,61.3-61.302h9.88v-4.907h-9.88c-0.575-15.218-6.593-29.721-16.958-40.873l3.623-3.623L183.172,80.89z
			 M185.627,59.162l0.837,4.174c0.193,0.973,0.952,1.73,1.923,1.926l4.174,0.834l-9.713,9.724l-2.895-0.58l7.174-7.174l-3.471-3.468
			l-7.172,7.171l-0.581-2.895L185.627,59.162z M184.209,123.906h-4.847v4.907h4.847c-1.312,30.585-25.807,55.08-56.391,56.392
			v-4.846h-4.91v4.846c-30.584-1.313-55.08-25.807-56.391-56.392h4.846v-4.907h-4.846c1.311-30.584,25.807-55.079,56.391-56.396
			v4.849h4.91v-4.849c13.914,0.569,27.172,6.074,37.403,15.519l-10.451,10.452c-18.283-16.302-46.32-14.695-62.622,3.587
			c-16.302,18.283-14.695,46.321,3.588,62.623c18.283,16.299,46.318,14.692,62.621-3.587c15.037-16.864,14.992-42.342-0.104-59.152
			L168.705,86.5C178.146,96.734,183.643,109.994,184.209,123.906z M127.098,128.096l12.01-12.009
			c5.709,7.631,4.152,18.438-3.476,24.147c-7.626,5.708-18.438,4.152-24.146-3.471c-5.708-7.631-4.153-18.438,3.475-24.147
			c6.128-4.588,14.545-4.588,20.671,0l-12.005,12.001L127.098,128.096z M139.125,109.116c-9.555-7.638-23.489-6.085-31.128,3.471
			c-7.636,9.554-6.083,23.491,3.471,31.129c9.555,7.638,23.491,6.082,31.128-3.471c6.465-8.088,6.465-19.574,0-27.658l12.168-12.167
			c14.402,16.32,12.85,41.225-3.471,55.627c-16.32,14.405-41.227,12.854-55.629-3.467c-14.403-16.321-12.85-41.229,3.471-55.631
			c14.898-13.151,37.258-13.151,52.158,0L139.125,109.116z"/>
	</g>
</g>
</svg>
