<?xml version="1.0" encoding="utf-8"?>
<!-- Generator: Adobe Illustrator 16.0.0, SVG Export Plug-In . SVG Version: 6.00 Build 0)  -->
<!DOCTYPE svg PUBLIC "-//W3C//DTD SVG 1.1//EN" "http://www.w3.org/Graphics/SVG/1.1/DTD/svg11.dtd">
<svg version="1.1" id="Layer_1" xmlns="http://www.w3.org/2000/svg" xmlns:xlink="http://www.w3.org/1999/xlink" x="0px" y="0px"
	 width="135px" height="135px" viewBox="0 0 135 135" enable-background="new 0 0 135 135" xml:space="preserve">
<g>
	<g>
		<path id="XMLID_324_" fill="#A7A9AC" d="M122.965,114.555v-4.084c0-0.863-0.373-1.68-1.05-2.217
			c-3.687-3.034-7.655-5.041-8.472-5.438c-0.094-0.047-0.141-0.141-0.141-0.234v-5.741c0.725-0.49,1.19-1.306,1.19-2.24V88.65
			c0-2.964-2.403-5.368-5.367-5.368h-0.63h-0.631c-2.963,0-5.367,2.404-5.367,5.368v5.951c0,0.934,0.467,1.75,1.189,2.24v5.741
			c0,0.093-0.045,0.187-0.139,0.234c-0.818,0.396-4.785,2.403-8.473,5.438c-0.676,0.537-1.049,1.377-1.049,2.217v4.084"/>
		<path id="XMLID_323_" fill="#E8454A" d="M82.404,114.555v-4.084c0-0.863-0.373-1.68-1.051-2.217
			c-3.688-3.034-7.654-5.041-8.471-5.438c-0.094-0.047-0.141-0.141-0.141-0.234v-5.741c0.725-0.49,1.19-1.306,1.19-2.24V88.65
			c0-2.964-2.403-5.368-5.367-5.368h-0.63h-0.654c-2.964,0-5.367,2.404-5.367,5.368v5.951c0,0.934,0.467,1.75,1.189,2.24v5.741
			c0,0.093-0.047,0.187-0.139,0.234c-0.817,0.396-4.785,2.403-8.473,5.438c-0.677,0.537-1.051,1.377-1.051,2.217v4.084"/>
		<path id="XMLID_322_" fill="#A7A9AC" d="M41.61,114.182v-4.038c0-0.84-0.374-1.657-1.026-2.194
			c-3.641-2.987-7.563-4.971-8.379-5.368c-0.094-0.046-0.141-0.14-0.141-0.233v-5.67c0.724-0.467,1.191-1.284,1.191-2.218V88.58
			c0-2.917-2.381-5.298-5.299-5.298h-0.629h-0.654c-2.917,0-5.297,2.381-5.297,5.298v5.881c0,0.911,0.467,1.728,1.189,2.218v5.67
			c0,0.094-0.047,0.187-0.141,0.233c-0.793,0.397-4.736,2.38-8.377,5.368c-0.654,0.537-1.027,1.354-1.027,2.194v4.038"/>
		<path d="M84.504,57.167c1.168,0,2.125-0.957,2.125-2.124v-4.645c0-1.633-0.725-3.15-1.961-4.177
			c-3.478-2.848-7.188-4.948-9.031-5.928v-4.458c0.863-0.933,1.354-2.193,1.354-3.5v-6.768c0-4.527-3.688-8.215-8.215-8.215h-1.447
			c-4.527,0-8.215,3.688-8.215,8.215v6.768c0,1.307,0.49,2.543,1.354,3.5v4.458c-1.844,0.958-5.555,3.058-9.031,5.928
			c-1.236,1.026-1.961,2.543-1.961,4.177v4.645c0,1.167,0.957,2.124,2.124,2.124s2.124-0.957,2.124-2.124v-4.645
			c0-0.35,0.163-0.676,0.42-0.91c4.014-3.314,8.379-5.508,9.219-5.905c0.816-0.396,1.354-1.26,1.354-2.17V34.88
			c0-0.7-0.351-1.376-0.934-1.75c-0.258-0.187-0.42-0.467-0.42-0.77v-6.769c0-2.194,1.773-3.967,3.967-3.967h1.447
			c2.193,0,3.967,1.773,3.967,3.967v6.769c0,0.303-0.163,0.606-0.42,0.77c-0.584,0.396-0.934,1.05-0.934,1.75v6.535
			c0,0.91,0.537,1.773,1.354,2.17c0.84,0.397,5.205,2.614,9.219,5.905c0.256,0.21,0.42,0.537,0.42,0.91v4.645
			C82.404,56.234,83.338,57.167,84.504,57.167z"/>
		<path d="M65.951,75.721c0,1.167,0.957,2.124,2.123,2.124c1.168,0,2.125-0.957,2.125-2.124v-6.487h36.196v6.487
			c0,1.167,0.957,2.124,2.124,2.124c1.166,0,2.123-0.957,2.123-2.124v-8.611c0-1.167-0.957-2.124-2.123-2.124H70.176v-6.487
			c0-1.167-0.957-2.124-2.124-2.124s-2.124,0.957-2.124,2.124v6.487H27.467c-1.166,0-2.123,0.957-2.123,2.124v8.611
			c0,1.167,0.957,2.124,2.123,2.124c1.168,0,2.125-0.957,2.125-2.124v-6.487h36.359V75.721z"/>
		<path d="M116.594,94.602V88.65c0-4.131-3.361-7.468-7.468-7.468h-1.284c-4.131,0-7.467,3.361-7.467,7.468v5.951
			c0,1.19,0.443,2.311,1.189,3.173v3.665c-1.657,0.887-4.854,2.707-7.842,5.157c-1.166,0.957-1.82,2.357-1.82,3.874v4.084
			c0,1.167,0.957,2.124,2.125,2.124c1.166,0,2.123-0.957,2.123-2.124v-4.084c0-0.233,0.094-0.443,0.279-0.583
			c3.525-2.894,7.328-4.807,8.053-5.157c0.816-0.397,1.33-1.237,1.33-2.147v-5.741c0-0.7-0.352-1.376-0.934-1.75
			c-0.07-0.046-0.258-0.21-0.258-0.466v-5.951c0-1.797,1.447-3.244,3.244-3.244h1.283c1.797,0,3.244,1.447,3.244,3.244v5.951
			c0,0.279-0.187,0.42-0.256,0.466c-0.584,0.397-0.934,1.05-0.934,1.75v5.741c0,0.911,0.514,1.75,1.33,2.147
			c0.724,0.35,4.551,2.287,8.051,5.157c0.188,0.14,0.281,0.351,0.281,0.583v4.084c0,1.167,0.956,2.124,2.123,2.124
			s2.124-0.957,2.124-2.124v-4.084c0-1.493-0.653-2.917-1.821-3.874c-2.986-2.45-6.184-4.294-7.841-5.157v-3.665
			C116.174,96.912,116.594,95.792,116.594,94.602z"/>
		<path d="M82.404,116.679c1.167,0,2.124-0.957,2.124-2.124v-4.084c0-1.493-0.653-2.917-1.82-3.874
			c-2.987-2.45-6.185-4.294-7.841-5.157v-3.665c0.77-0.863,1.189-1.983,1.189-3.173V88.65c0-4.131-3.361-7.468-7.469-7.468h-1.307
			c-4.131,0-7.468,3.361-7.468,7.468v5.951c0,1.19,0.443,2.311,1.19,3.173v3.665c-1.657,0.887-4.854,2.707-7.842,5.157
			c-1.166,0.957-1.82,2.357-1.82,3.874v4.084c0,1.167,0.957,2.124,2.124,2.124s2.124-0.957,2.124-2.124v-4.084
			c0-0.233,0.093-0.443,0.279-0.583c3.524-2.894,7.328-4.807,8.052-5.157c0.817-0.397,1.331-1.237,1.331-2.147v-5.741
			c0-0.7-0.352-1.376-0.935-1.75c-0.07-0.046-0.257-0.21-0.257-0.466v-5.951c0-1.797,1.447-3.244,3.244-3.244h1.283
			c1.797,0,3.244,1.447,3.244,3.244v5.951c0,0.279-0.186,0.42-0.256,0.466c-0.584,0.397-0.934,1.05-0.934,1.75v5.741
			c0,0.911,0.514,1.75,1.33,2.147c0.723,0.35,4.551,2.287,8.051,5.157c0.188,0.14,0.28,0.351,0.28,0.583v4.084
			C80.281,115.722,81.238,116.679,82.404,116.679z"/>
		<path d="M41.61,116.306c1.167,0,2.124-0.957,2.124-2.124v-4.038c0-1.494-0.654-2.894-1.821-3.827
			c-2.94-2.427-6.091-4.224-7.747-5.111v-3.594c0.746-0.864,1.189-1.961,1.189-3.151V88.58c0-4.084-3.314-7.421-7.421-7.421h-1.261
			c-4.084,0-7.421,3.313-7.421,7.421v5.881c0,1.167,0.42,2.287,1.19,3.151v3.594c-1.657,0.887-4.785,2.684-7.748,5.111
			c-1.145,0.934-1.82,2.333-1.82,3.827v4.038c0,1.167,0.956,2.124,2.123,2.124s2.124-0.957,2.124-2.124v-4.038
			c0-0.233,0.093-0.42,0.257-0.56c3.477-2.847,7.234-4.761,7.958-5.111c0.817-0.397,1.33-1.237,1.33-2.124v-5.67
			c0-0.701-0.35-1.377-0.933-1.75c-0.071-0.048-0.234-0.188-0.234-0.444v-5.881c0-1.75,1.424-3.174,3.174-3.174h1.261
			c1.75,0,3.174,1.424,3.174,3.174v5.881c0,0.257-0.163,0.396-0.233,0.444c-0.584,0.396-0.934,1.049-0.934,1.75v5.67
			c0,0.911,0.514,1.75,1.33,2.147c0.724,0.351,4.48,2.265,7.958,5.111c0.163,0.14,0.257,0.35,0.257,0.56v4.014
			C39.486,115.372,40.443,116.306,41.61,116.306z"/>
	</g>
</g>
</svg>
