<?xml version="1.0" encoding="utf-8"?>
<!-- Generator: Adobe Illustrator 16.0.0, SVG Export Plug-In . SVG Version: 6.00 Build 0)  -->
<!DOCTYPE svg PUBLIC "-//W3C//DTD SVG 1.1//EN" "http://www.w3.org/Graphics/SVG/1.1/DTD/svg11.dtd">
<svg version="1.1" id="Layer_1" xmlns="http://www.w3.org/2000/svg" xmlns:xlink="http://www.w3.org/1999/xlink" x="0px" y="0px"
	 width="170px" height="148px" viewBox="0 0 170 148" enable-background="new 0 0 170 148" xml:space="preserve">
<g>
	<g>
		<g>
			<path fill="#282828" d="M14.956,139.994c0,1.639-0.52,2.961-1.555,3.969c-1.036,1.008-2.366,1.512-3.99,1.512
				c-1.609,0-2.943-0.507-4-1.521c-1.058-1.016-1.586-2.335-1.586-3.959v-7.729c0-1.498,0.525-2.781,1.575-3.854
				c1.05-1.07,2.387-1.605,4.011-1.605s2.954,0.528,3.99,1.585c1.035,1.058,1.555,2.349,1.555,3.874V139.994z M10.86,132.329
				c0-0.784-0.133-1.379-0.398-1.785c-0.267-0.405-0.617-0.608-1.051-0.608s-0.787,0.207-1.061,0.619
				c-0.273,0.413-0.409,1.005-0.409,1.774v7.644c0,0.756,0.136,1.338,0.409,1.744s0.627,0.608,1.061,0.608
				c0.448,0,0.801-0.2,1.061-0.599s0.389-0.983,0.389-1.754V132.329z"/>
			<path fill="#282828" d="M20.856,145.244v-12.936c-0.406,0.308-0.924,0.633-1.555,0.977c-0.63,0.343-1.232,0.57-1.806,0.682v-3.57
				c0.573-0.223,1.235-0.64,1.984-1.249c0.749-0.608,1.249-1.319,1.501-2.132h3.97v16.759c0,0.434-0.169,0.787-0.505,1.06
				c-0.336,0.273-0.728,0.41-1.176,0.41H20.856z"/>
			<path fill="#282828" d="M40.071,139.994c0,1.639-0.519,2.961-1.555,3.969c-1.035,1.008-2.365,1.512-3.99,1.512
				c-1.609,0-2.943-0.507-4-1.521c-1.057-1.016-1.586-2.335-1.586-3.959v-7.729c0-1.498,0.525-2.781,1.576-3.854
				c1.049-1.07,2.387-1.605,4.01-1.605c1.625,0,2.955,0.528,3.99,1.585c1.036,1.058,1.555,2.349,1.555,3.874V139.994z
				 M35.976,132.329c0-0.784-0.133-1.379-0.398-1.785c-0.266-0.405-0.616-0.608-1.051-0.608c-0.434,0-0.787,0.207-1.061,0.619
				c-0.272,0.413-0.408,1.005-0.408,1.774v7.644c0,0.756,0.136,1.338,0.408,1.744c0.273,0.406,0.627,0.608,1.061,0.608
				c0.449,0,0.802-0.2,1.061-0.599c0.26-0.398,0.389-0.983,0.389-1.754V132.329z"/>
			<path fill="#282828" d="M46.35,145.916c-0.21,0.182-0.532,0.273-0.966,0.273h-3.15v-4.326h4.432v3.234
				C46.665,145.461,46.56,145.734,46.35,145.916z"/>
			<path fill="#282828" d="M60.44,145.244v-2.563h-6.846v-3.107l5.67-12.559h4.284l-5.565,12.369h2.457v-4.935h3.885v4.935h1.492
				v2.143c0,0.406-0.103,0.7-0.305,0.882c-0.203,0.182-0.508,0.272-0.914,0.272h-0.273v1.365c0,0.406-0.115,0.707-0.346,0.903
				c-0.231,0.196-0.55,0.294-0.955,0.294H60.44z"/>
			<path fill="#282828" d="M72.999,145.244v-2.563h-6.847v-3.107l5.67-12.559h4.284l-5.564,12.369h2.457v-4.935h3.885v4.935h1.49
				v2.143c0,0.406-0.102,0.7-0.305,0.882s-0.507,0.272-0.913,0.272h-0.272v1.365c0,0.406-0.115,0.707-0.347,0.903
				s-0.55,0.294-0.956,0.294H72.999z"/>
			<path fill="#282828" d="M85.557,145.244v-2.563H78.71v-3.107l5.67-12.559h4.285L83.1,139.385h2.457v-4.935h3.885v4.935h1.491
				v2.143c0,0.406-0.102,0.7-0.305,0.882s-0.508,0.272-0.914,0.272h-0.272v1.365c0,0.406-0.115,0.707-0.347,0.903
				c-0.23,0.196-0.549,0.294-0.955,0.294H85.557z"/>
			<path fill="#282828" d="M92.014,129.861c-0.203-0.188-0.305-0.486-0.305-0.893v-1.953h11.571v3.004
				c-1.358,2.912-2.454,5.593-3.287,8.043c-0.832,2.449-1.516,4.844-2.047,7.182h-4.389c0.783-2.828,1.658-5.46,2.625-7.896
				c0.965-2.436,2.002-4.836,3.107-7.203h-6.363C92.521,130.145,92.216,130.051,92.014,129.861z"/>
			<path fill="#282828" d="M109.223,145.916c-0.21,0.182-0.532,0.273-0.966,0.273h-3.15v-4.326h4.432v3.234
				C109.538,145.461,109.433,145.734,109.223,145.916z"/>
			<path fill="#282828" d="M117.214,129.861c-0.203-0.188-0.305-0.486-0.305-0.893v-1.953h11.57v3.004
				c-1.357,2.912-2.453,5.593-3.286,8.043c-0.833,2.449-1.516,4.844-2.048,7.182h-4.389c0.783-2.828,1.659-5.46,2.625-7.896
				c0.966-2.436,2.002-4.836,3.107-7.203h-6.362C117.721,130.145,117.416,130.051,117.214,129.861z"/>
			<path fill="#282828" d="M140.87,139.973c0,1.652-0.522,2.979-1.565,3.98c-1.043,1-2.446,1.501-4.21,1.501
				c-1.82,0-3.242-0.497-4.264-1.491s-1.54-2.457-1.554-4.389h4.116c0.014,0.938,0.175,1.627,0.482,2.068
				c0.309,0.441,0.715,0.662,1.219,0.662c0.434,0,0.818-0.2,1.154-0.6c0.336-0.398,0.504-1.004,0.504-1.816
				c0-0.783-0.171-1.389-0.514-1.816c-0.344-0.426-0.76-0.641-1.25-0.641h-0.986v-3.045h0.986c0.364,0,0.711-0.202,1.039-0.608
				c0.33-0.406,0.494-0.938,0.494-1.597c0-0.741-0.146-1.298-0.441-1.669c-0.293-0.37-0.615-0.557-0.966-0.557
				c-0.42,0-0.773,0.21-1.061,0.63s-0.451,1.071-0.493,1.953h-4.096c0.028-1.834,0.554-3.248,1.576-4.242
				c1.021-0.994,2.358-1.49,4.01-1.49c1.709,0,3.06,0.496,4.054,1.49c0.993,0.994,1.491,2.24,1.491,3.738
				c0,0.77-0.211,1.533-0.631,2.289s-0.959,1.253-1.616,1.49c0.714,0.309,1.313,0.865,1.796,1.67
				C140.628,138.29,140.87,139.119,140.87,139.973z"/>
			<path fill="#282828" d="M147.841,133.715c0.169-0.041,0.337-0.066,0.505-0.073s0.301-0.003,0.399,0.011
				c1.428,0.154,2.568,0.734,3.422,1.742c0.854,1.009,1.281,2.318,1.281,3.928c0,1.861-0.518,3.336-1.554,4.42
				c-1.036,1.086-2.408,1.628-4.116,1.628c-1.736,0-3.111-0.542-4.127-1.628c-1.015-1.084-1.516-2.502-1.501-4.252
				c0.015-0.938,0.108-1.764,0.284-2.479c0.174-0.713,0.521-1.623,1.039-2.729c0.56-1.204,1.211-2.499,1.953-3.886
				c0.742-1.385,1.371-2.512,1.89-3.381h4.263c-0.644,0.938-1.302,2.014-1.974,3.225S148.346,132.609,147.841,133.715z
				 M149.354,139.364c0-0.868-0.157-1.571-0.473-2.11s-0.683-0.809-1.103-0.809c-0.434,0-0.809,0.266-1.123,0.798
				c-0.315,0.532-0.473,1.239-0.473,2.121s0.157,1.593,0.473,2.132c0.314,0.539,0.689,0.809,1.123,0.809
				c0.42,0,0.787-0.27,1.103-0.809S149.354,140.246,149.354,139.364z"/>
			<path fill="#282828" d="M166.091,139.932c0,1.638-0.522,2.967-1.564,3.99c-1.044,1.021-2.461,1.532-4.254,1.532
				c-1.791,0-3.209-0.511-4.252-1.532c-1.043-1.023-1.564-2.353-1.564-3.99c0-0.77,0.207-1.523,0.619-2.258
				c0.413-0.735,0.977-1.34,1.691-1.816c-0.729-0.434-1.264-0.998-1.607-1.691c-0.343-0.692-0.514-1.396-0.514-2.109
				c0-1.471,0.527-2.713,1.585-3.729c1.058-1.014,2.405-1.521,4.042-1.521c1.75,0,3.119,0.508,4.105,1.521
				c0.988,1.016,1.481,2.258,1.481,3.729c0,0.713-0.187,1.414-0.557,2.1c-0.371,0.686-0.886,1.253-1.544,1.701
				c0.715,0.434,1.281,1.032,1.701,1.795C165.88,138.416,166.091,139.176,166.091,139.932z M161.995,139.889
				c0-0.699-0.176-1.283-0.525-1.753c-0.35-0.469-0.748-0.704-1.197-0.704c-0.434,0-0.828,0.231-1.186,0.693
				c-0.357,0.463-0.535,1.051-0.535,1.764c0,0.687,0.171,1.261,0.514,1.723c0.344,0.462,0.746,0.693,1.207,0.693
				c0.463,0,0.865-0.231,1.208-0.693S161.995,140.575,161.995,139.889z M161.765,132.182c0-0.657-0.137-1.193-0.41-1.605
				c-0.273-0.413-0.633-0.62-1.082-0.62c-0.42,0-0.776,0.207-1.07,0.62c-0.294,0.412-0.441,0.948-0.441,1.605
				c0,0.672,0.154,1.208,0.463,1.607c0.307,0.398,0.657,0.598,1.049,0.598c0.406,0,0.757-0.202,1.051-0.608
				S161.765,132.84,161.765,132.182z"/>
		</g>
	</g>
	<g>
		<path fill="#6E432C" d="M108.997,60.297c0.004-3.512-0.982-6.95-2.848-9.926l-1.02-1.639c-1.865-2.975-2.852-6.414-2.848-9.926
			v-17.46c0-9.644-7.816-17.46-17.459-17.46c-9.645,0-17.463,7.816-17.463,17.46v17.46c0.006,3.512-0.982,6.951-2.846,9.926
			l-1.021,1.639c-1.863,2.976-2.852,6.414-2.848,9.926c0,0,5.373,9.401,24.178,9.401C103.626,69.698,108.997,60.297,108.997,60.297
			L108.997,60.297z M108.997,60.297"/>
		<path fill="#5C3724" d="M70.478,11.395c-2.027,2.922-3.117,6.395-3.117,9.952v17.46c0.006,3.512-0.982,6.951-2.846,9.926
			l-1.021,1.639c-1.863,2.976-2.852,6.414-2.848,9.926c0,0,5.373,9.401,24.178,9.401V22.689
			C74.413,22.689,71.177,16.941,70.478,11.395L70.478,11.395z M70.478,11.395"/>
		<path fill="#777C81" d="M106.03,59.369l-9.336-1.249l-0.643,1.491c-2.668,6.201-9.855,9.067-16.057,6.401
			c-2.875-1.236-5.164-3.526-6.4-6.401l-0.646-1.491l-9.334,1.249c-4,0.532-6.992,3.943-6.996,7.979v14.438h56.408V67.348
			C113.022,63.313,110.03,59.901,106.03,59.369L106.03,59.369z M106.03,59.369"/>
		<path fill="#FAD6C3" d="M84.823,67.012c4.885,0.003,9.303-2.909,11.229-7.4l0.643-1.491l-1.477-0.2
			c-1.346-0.178-2.35-1.329-2.338-2.688v-5.682H76.763v5.764c0.012,1.356-0.99,2.509-2.336,2.685l-1.479,0.202l0.646,1.491
			C75.542,64.152,79.954,67.027,84.823,67.012L84.823,67.012z M84.823,67.012"/>
		<path fill="#EFC0AD" d="M93.042,56.146c-0.107-0.283-0.164-0.584-0.162-0.887v-5.707H76.763v5.762
			c0.002,0.301-0.053,0.602-0.16,0.886C81.778,58.803,87.882,58.781,93.042,56.146L93.042,56.146z M93.042,56.146"/>
		<path fill="#FAD6C3" d="M99.597,26.719h-1.344v8.059h1.344c2.225,0,4.029-1.804,4.029-4.029S101.821,26.719,99.597,26.719
			L99.597,26.719z M99.597,26.719"/>
		<path fill="#FAD6C3" d="M66.019,30.748c0,2.226,1.805,4.029,4.029,4.029h1.344v-8.059h-1.344
			C67.823,26.719,66.019,28.522,66.019,30.748L66.019,30.748z M66.019,30.748"/>
		<path d="M86.165,37.464h-4.029c-0.383,0-0.746-0.163-1-0.447c-0.256-0.284-0.377-0.665-0.336-1.043l1.344-12.089l2.67,0.297
			l-1.178,10.596h2.529V37.464z M86.165,37.464"/>
		<path fill="#FAD6C3" d="M98.253,20.003v14.198c0,3.893-1.059,7.714-3.063,11.053l-2.229,3.721
			c-1.717,2.857-4.807,4.606-8.139,4.606c-3.334,0-6.424-1.749-8.141-4.606l-2.229-3.721c-2.004-3.339-3.063-7.16-3.063-11.053
			V21.347c0,0,12.088-2.687,13.432-10.745C86.735,16.355,92.192,20.177,98.253,20.003L98.253,20.003z M98.253,20.003"/>
		<path fill="#EBEBEB" d="M71.392,24.033h10.744v4.029c0,2.967-2.406,5.372-5.373,5.372s-5.371-2.405-5.371-5.372V24.033z
			 M71.392,24.033"/>
		<path fill="#EBEBEB" d="M87.509,24.033h10.744v4.029c0,2.967-2.406,5.372-5.373,5.372s-5.371-2.405-5.371-5.372V24.033z
			 M87.509,24.033"/>
		<path fill="#6E432C" d="M92.976,38.538c-0.93-0.696-2.064-1.074-3.225-1.074h-9.859c-1.16,0-2.293,0.378-3.223,1.074l-3.934,2.955
			c0.469,1.294,1.063,2.54,1.771,3.721l2.23,3.72c2.701,4.496,8.533,5.95,13.031,3.248c1.332-0.801,2.447-1.916,3.246-3.248
			l2.23-3.72c0.67-1.185,1.229-2.43,1.664-3.721L92.976,38.538z M92.976,38.538"/>
		<path fill="#707478" d="M61.989,59.771c-3.211,1.136-5.363,4.168-5.371,7.576v14.438h5.371V59.771z M61.989,59.771"/>
		<path fill="#5C3724" d="M78.966,37.558c-0.834,0.137-1.621,0.474-2.297,0.98l-3.934,2.955c0.469,1.294,1.063,2.54,1.771,3.721
			l2.23,3.72c0.686,1.127,1.6,2.098,2.686,2.848C77.894,47.186,77.733,42.242,78.966,37.558L78.966,37.558z M78.966,37.558"/>
		<path d="M57.96,81.786h-2.688V67.348c0.029-4.716,3.57-8.703,8.242-9.283l10.732-1.45c0.676-0.087,1.178-0.663,1.174-1.343v-5.719
			h2.686v5.707c0.018,2.023-1.49,3.756-3.506,4.018l-10.74,1.449c-3.352,0.419-5.881,3.267-5.902,6.629v14.431H57.96z M57.96,81.786
			"/>
		<path d="M114.37,81.786h-2.686V67.348c-0.021-3.354-2.551-6.202-5.887-6.618l-10.76-1.452c-2.012-0.262-3.518-1.996-3.5-4.029
			v-5.695h2.686v5.707c-0.006,0.69,0.496,1.267,1.168,1.354l10.75,1.452c4.658,0.578,8.201,4.565,8.229,9.272V81.786z
			 M114.37,81.786"/>
		<path d="M99.597,36.121h-1.344v-2.687h1.344c1.48,0,2.686-1.206,2.686-2.687s-1.205-2.686-2.686-2.686h-1.344v-2.687h1.344
			c2.963,0,5.371,2.409,5.371,5.372S102.56,36.121,99.597,36.121L99.597,36.121z M99.597,36.121"/>
		<path d="M71.392,36.121h-1.344c-2.963,0-5.373-2.41-5.373-5.373s2.41-5.372,5.373-5.372h1.344v2.687h-1.344
			c-1.482,0-2.688,1.205-2.688,2.686s1.205,2.687,2.688,2.687h1.344V36.121z M71.392,36.121"/>
		<path d="M84.829,68.355h-0.016c-5.428,0-10.316-3.224-12.455-8.215l-0.859-2l2.469-1.06l0.859,2.001
			c1.715,4.002,5.635,6.587,9.988,6.587h0.012c4.354,0,8.273-2.585,9.99-6.587l0.859-2.001l2.469,1.06l-0.859,2.001
			C95.147,65.132,90.257,68.355,84.829,68.355L84.829,68.355z M84.829,68.355"/>
		<path d="M86.165,37.464h-4.029c-0.383,0-0.746-0.163-1-0.447c-0.256-0.284-0.377-0.665-0.336-1.043l1.344-12.089l2.67,0.297
			l-1.178,10.596h2.529V37.464z M86.165,37.464"/>
		<path d="M84.823,54.925c-3.785,0-7.344-2.015-9.291-5.259L73.3,45.944c-2.127-3.546-3.25-7.607-3.252-11.743V21.347
			c0-0.628,0.438-1.174,1.051-1.312c0.111-0.025,11.221-2.591,12.396-9.653c0.104-0.608,0.605-1.07,1.221-1.118
			c0.596-0.052,1.186,0.328,1.381,0.915c1.74,5.233,6.594,8.62,12.117,8.483c0.361-0.028,0.713,0.127,0.975,0.378
			c0.262,0.253,0.406,0.601,0.406,0.963v14.198c0,4.135-1.125,8.197-3.254,11.744l-2.229,3.721
			C92.167,52.91,88.606,54.925,84.823,54.925L84.823,54.925z M72.735,22.384v11.815c0,3.648,0.992,7.232,2.869,10.361l2.23,3.722
			c1.465,2.441,4.141,3.956,6.988,3.956c2.844,0,5.521-1.515,6.986-3.954l2.229-3.721c1.877-3.13,2.871-6.714,2.871-10.362V21.325
			c-4.979-0.302-9.395-3.007-11.93-7.19C82.12,19.26,75.36,21.633,72.735,22.384L72.735,22.384z M72.735,22.384"/>
		<path d="M76.763,34.777c-3.703,0-6.715-3.013-6.715-6.715v-4.029c0-0.742,0.602-1.344,1.344-1.344h10.744
			c0.742,0,1.344,0.602,1.344,1.344v4.029C83.479,31.766,80.466,34.777,76.763,34.777L76.763,34.777z M72.735,25.376v2.687
			c0,2.221,1.807,4.028,4.027,4.028c2.223,0,4.029-1.808,4.029-4.028v-2.687H72.735z M72.735,25.376"/>
		<path d="M92.88,34.777c-3.703,0-6.715-3.013-6.715-6.715v-4.029c0-0.742,0.6-1.344,1.344-1.344h10.744
			c0.742,0,1.344,0.602,1.344,1.344v4.029C99.597,31.766,96.583,34.777,92.88,34.777L92.88,34.777z M88.853,25.376v2.687
			c0,2.221,1.807,4.028,4.027,4.028c2.223,0,4.029-1.808,4.029-4.028v-2.687H88.853z M88.853,25.376"/>
		<rect x="82.136" y="22.689" width="5.373" height="2.687"/>
		<path d="M103.626,28.063h-2.688v-6.717c0-8.887-7.229-16.117-16.115-16.117c-8.889,0-16.119,7.23-16.119,16.118v6.716h-2.686
			v-6.716c0-10.368,8.434-18.804,18.805-18.804c10.367,0,18.803,8.436,18.803,18.804V28.063z M103.626,28.063"/>
		<path d="M59.304,60.298c-0.004-3.768,1.051-7.446,3.053-10.64l1.018-1.637c1.734-2.768,2.648-5.953,2.645-9.214v-5.374h2.686
			v5.373c0.004,3.766-1.051,7.445-3.053,10.639l-1.018,1.637c-1.734,2.768-2.648,5.952-2.645,9.213L59.304,60.298z M59.304,60.298"
			/>
		<path d="M110.341,60.298l-2.686-0.003c0.004-3.261-0.912-6.445-2.645-9.21l-1.021-1.644c-1.998-3.189-3.055-6.87-3.051-10.636
			v-5.371h2.688v5.372c-0.004,3.263,0.91,6.447,2.643,9.211l1.021,1.645C109.29,52.852,110.345,56.53,110.341,60.298L110.341,60.298
			z M110.341,60.298"/>
		<path d="M73.542,42.568l-1.613-2.15l3.936-2.954c1.156-0.866,2.586-1.343,4.027-1.343h9.859c1.443,0,2.875,0.477,4.029,1.343
			l3.938,2.956l-1.613,2.149l-3.936-2.956c-0.693-0.519-1.549-0.806-2.418-0.806h-9.857c-0.867,0-1.725,0.287-2.418,0.806
			L73.542,42.568z M73.542,42.568"/>
		<rect x="80.792" y="41.493" width="8.061" height="2.687"/>
	</g>
	<path fill="#282828" d="M144.84,109.359H24.805c-8.709,0-15.769-7.06-15.769-15.767l0,0c0-8.708,7.06-15.768,15.769-15.768H144.84
		c8.709,0,15.768,7.06,15.768,15.768l0,0C160.607,102.3,153.549,109.359,144.84,109.359z"/>
	<g>
		<g>
			<path fill="#FFFFFF" d="M46.112,86.936c0.113,0,0.195,0.029,0.247,0.086c0.051,0.057,0.076,0.136,0.076,0.238
				c-0.204,1.677-0.864,3.17-1.98,4.479c-1.116,1.31-2.763,2.332-4.938,3.068L38.7,93.975c1.938-0.59,3.457-1.395,4.557-2.414
				c1.1-1.021,1.779-2.256,2.04-3.707h-5.61v-0.918H46.112z M50.567,101.131h-8.959c-0.125,0-0.211-0.022-0.256-0.068
				c-0.045-0.045-0.068-0.13-0.068-0.254V95.93c0-0.113,0.023-0.196,0.068-0.247s0.131-0.077,0.256-0.077h8.959
				c0.112,0,0.195,0.026,0.246,0.077s0.076,0.134,0.076,0.247v4.879c0,0.124-0.025,0.209-0.076,0.254
				C50.763,101.108,50.68,101.131,50.567,101.131z M42.372,96.508v3.723h7.447v-3.723H42.372z M49.819,86.205h1.07v8.534h-1.07
				V86.205z"/>
			<path fill="#FFFFFF" d="M57.35,86.579c1.054,0,1.915,0.476,2.584,1.429c0.669,0.951,1.003,2.379,1.003,4.283
				c0,1.916-0.334,3.347-1.003,4.293s-1.53,1.419-2.584,1.419s-1.915-0.473-2.584-1.419s-1.003-2.377-1.003-4.293
				c0-1.904,0.334-3.332,1.003-4.283C55.435,87.055,56.296,86.579,57.35,86.579z M57.35,87.514c-0.782,0-1.399,0.434-1.853,1.301
				c-0.454,0.867-0.681,2.025-0.681,3.477c0,1.462,0.227,2.624,0.681,3.485c0.453,0.861,1.07,1.292,1.853,1.292
				s1.399-0.431,1.853-1.292s0.68-2.023,0.68-3.485c-0.011-1.451-0.24-2.609-0.688-3.477C58.746,87.947,58.132,87.514,57.35,87.514z
				 M63.843,86.205h1.123v5.423h2.346v0.952h-2.346v8.738h-1.123V86.205z"/>
			<path fill="#FFFFFF" d="M69.335,89.996h5.406v-2.295h-5.729v-0.885h6.426c0.113,0,0.196,0.029,0.247,0.086
				s0.076,0.136,0.076,0.238v3.416c0,0.113-0.025,0.195-0.076,0.247c-0.051,0.051-0.134,0.077-0.247,0.077h-5.405v2.328l2.787-0.033
				c0.352,0,0.776-0.018,1.275-0.052c0.498-0.034,1.009-0.079,1.529-0.136c0.521-0.057,1.023-0.119,1.506-0.188
				c0.48-0.068,0.875-0.136,1.181-0.203v0.918c-0.261,0.057-0.606,0.115-1.036,0.178c-0.432,0.063-0.896,0.122-1.395,0.179
				c-0.488,0.067-0.983,0.122-1.488,0.161c-0.504,0.04-0.954,0.066-1.352,0.077c-0.43,0.022-0.857,0.036-1.283,0.042
				c-0.425,0.006-0.813,0.009-1.164,0.009s-0.644,0-0.875,0c-0.232,0-0.36,0-0.383,0c-0.125,0-0.21-0.025-0.256-0.077
				c-0.045-0.051-0.067-0.133-0.067-0.246v-3.519c0-0.103,0.022-0.181,0.067-0.238C69.125,90.024,69.21,89.996,69.335,89.996z
				 M79.722,101.131h-8.822c-0.125,0-0.211-0.022-0.256-0.068c-0.045-0.045-0.068-0.13-0.068-0.254v-4.692
				c0-0.113,0.023-0.196,0.068-0.247s0.131-0.076,0.256-0.076h8.822c0.113,0,0.195,0.025,0.246,0.076s0.077,0.134,0.077,0.247v4.692
				c0,0.124-0.026,0.209-0.077,0.254C79.917,101.108,79.835,101.131,79.722,101.131z M71.646,96.694v3.536h7.345v-3.536H71.646z
				 M78.94,86.205h1.07v3.366h2.143v0.935h-2.143v4.42h-1.07V86.205z"/>
			<path fill="#FFFFFF" d="M94.29,97.051c0,0.137-0.023,0.225-0.068,0.264c-0.045,0.04-0.125,0.06-0.237,0.06h-4.726
				c-0.137,0-0.225-0.02-0.264-0.06c-0.041-0.039-0.061-0.127-0.061-0.264V87.6c0-0.125,0.02-0.21,0.061-0.256
				c0.039-0.045,0.127-0.067,0.264-0.067h4.726c0.112,0,0.192,0.022,0.237,0.067c0.045,0.046,0.068,0.131,0.068,0.256V97.051z
				 M89.955,88.178v8.278h3.315v-8.278H89.955z M96.058,86.46h1.088v5.101h2.211v-5.355h1.088v15.096h-1.088v-8.755h-2.211v8.041
				h-1.088V86.46z"/>
			<path fill="#FFFFFF" d="M104.304,97.307c-0.125,0-0.21-0.025-0.256-0.077c-0.045-0.051-0.067-0.133-0.067-0.247V86.885h1.104
				v9.418l3.35-0.033c0.362-0.012,0.765-0.04,1.207-0.086c0.441-0.045,0.878-0.102,1.309-0.17c0.442-0.057,0.859-0.119,1.25-0.187
				s0.717-0.13,0.977-0.187v1.002c-0.249,0.058-0.561,0.117-0.935,0.18s-0.776,0.121-1.207,0.178
				c-0.442,0.057-0.892,0.111-1.351,0.162c-0.46,0.051-0.893,0.082-1.301,0.094c-0.51,0.021-1.006,0.036-1.488,0.042
				c-0.481,0.006-0.909,0.009-1.283,0.009c-0.385,0.011-0.697,0.014-0.936,0.008C104.439,97.309,104.314,97.307,104.304,97.307z
				 M113.874,86.205h1.088v15.096h-1.088V86.205z"/>
			<path fill="#FFFFFF" d="M118.565,87.123h7.906v0.918h-3.451v1.547c0,1.53,0.342,2.907,1.027,4.131
				c0.687,1.225,1.811,2.301,3.375,3.23l-0.867,0.816c-0.906-0.602-1.72-1.338-2.439-2.211c-0.719-0.872-1.266-1.842-1.641-2.906
				c-0.316,1.11-0.841,2.142-1.572,3.094c-0.73,0.952-1.544,1.768-2.439,2.447l-1.02-0.748c1.428-0.918,2.529-2.064,3.307-3.441
				c0.775-1.377,1.164-2.961,1.164-4.752v-1.207h-3.35V87.123z M129.175,86.205h1.088v15.096h-1.088v-9.367h-3.451v-0.935h3.451
				V86.205z"/>
		</g>
	</g>
</g>
</svg>
