<?xml version="1.0" encoding="utf-8"?>
<!-- Generator: Adobe Illustrator 16.0.0, SVG Export Plug-In . SVG Version: 6.00 Build 0)  -->
<!DOCTYPE svg PUBLIC "-//W3C//DTD SVG 1.1//EN" "http://www.w3.org/Graphics/SVG/1.1/DTD/svg11.dtd">
<svg version="1.1" id="Layer_1" xmlns="http://www.w3.org/2000/svg" xmlns:xlink="http://www.w3.org/1999/xlink" x="0px" y="0px"
	 width="251px" height="251px" viewBox="0 0 251 251" enable-background="new 0 0 251 251" xml:space="preserve">
<g>
	<path fill="#F0F0F0" d="M231.194,251H19.806C8.867,251,0,242.133,0,231.194V19.806C0,8.867,8.867,0,19.806,0h211.389
		C242.133,0,251,8.867,251,19.806v211.389C251,242.133,242.133,251,231.194,251z"/>
	<g>
		<path fill="#FF9478" d="M166.253,64.879H84.749c-2.369,0-4.291,1.921-4.291,4.29v25.737h90.084V69.169
			C170.542,66.8,168.622,64.879,166.253,64.879z M99.763,86.327c-3.554,0-6.435-2.881-6.435-6.435c0-3.553,2.881-6.434,6.435-6.434
			s6.434,2.881,6.434,6.434C106.196,83.446,103.316,86.327,99.763,86.327z M125.501,86.327c-3.555,0-6.436-2.881-6.436-6.435
			c0-3.553,2.881-6.434,6.436-6.434c3.553,0,6.434,2.881,6.434,6.434C131.935,83.446,129.054,86.327,125.501,86.327z
			 M151.238,86.327c-3.554,0-6.435-2.881-6.435-6.435c0-3.553,2.881-6.434,6.435-6.434s6.435,2.881,6.435,6.434
			C157.673,83.446,154.792,86.327,151.238,86.327z"/>
		<path fill="#E6E7E8" d="M80.458,94.906v81.504c0,2.369,1.921,4.291,4.291,4.291h81.504c2.369,0,4.289-1.921,4.289-4.291V94.906
			H80.458z M93.328,112.065h17.158v17.159H93.328V112.065z M110.486,163.541H93.328v-17.158h17.158V163.541z"/>
		<path fill="#787680" d="M119.065,79.893c0,3.554,2.881,6.435,6.436,6.435c3.553,0,6.434-2.881,6.434-6.435
			c0-3.553-2.881-6.434-6.434-6.434C121.946,73.459,119.065,76.34,119.065,79.893z"/>
		<path fill="#787680" d="M93.328,79.893c0,3.554,2.881,6.435,6.435,6.435c3.553,0,6.434-2.881,6.434-6.435
			c0-3.553-2.881-6.434-6.434-6.434C96.209,73.459,93.328,76.34,93.328,79.893z"/>
		<path fill="#787680" d="M144.804,79.893c0,3.554,2.881,6.435,6.435,6.435s6.435-2.881,6.435-6.435
			c0-3.553-2.881-6.434-6.435-6.434S144.804,76.34,144.804,79.893z"/>
		<path fill="#FFC477" d="M93.328,112.065v17.159h17.158v-17.159H93.328z"/>
		<path fill="#FFC477" d="M93.328,163.541h17.158v-17.158H93.328V163.541z"/>
		<g>
			<path fill="#3E3D42" d="M166.253,62.734h-12.869V56.3c0-1.185-0.96-2.145-2.146-2.145c-1.185,0-2.146,0.96-2.146,2.145v6.435
				h-21.447V56.3c0-1.185-0.961-2.145-2.145-2.145c-1.186,0-2.145,0.96-2.145,2.145v6.435h-21.449V56.3
				c0-1.185-0.96-2.145-2.145-2.145s-2.145,0.96-2.145,2.145v6.435H84.749c-3.555,0-6.436,2.881-6.436,6.435V176.41
				c0,3.555,2.881,6.435,6.436,6.435h81.504c3.553,0,6.434-2.88,6.434-6.435V69.169C172.687,65.615,169.806,62.734,166.253,62.734z
				 M84.749,67.023h12.869v4.596c-4.588,1.184-7.348,5.863-6.162,10.451c1.184,4.587,5.863,7.346,10.451,6.162
				c4.588-1.186,7.348-5.865,6.162-10.452c-0.781-3.021-3.14-5.382-6.162-6.161v-4.596h21.449v4.596
				c-4.588,1.184-7.348,5.863-6.162,10.451c1.184,4.588,5.863,7.346,10.451,6.162c4.588-1.186,7.347-5.865,6.162-10.452
				c-0.779-3.021-3.141-5.382-6.162-6.161v-4.596h21.449v4.596c-4.589,1.184-7.348,5.863-6.162,10.451
				c1.184,4.588,5.863,7.346,10.451,6.162c4.587-1.186,7.346-5.865,6.162-10.452c-0.781-3.021-3.141-5.382-6.162-6.161v-4.596
				h12.869c1.185,0,2.145,0.961,2.145,2.146v23.594H82.604V69.169C82.604,67.984,83.563,67.023,84.749,67.023z M99.763,79.893
				c1.185,0,2.145-0.96,2.145-2.145V76.2c2.052,1.184,2.756,3.808,1.57,5.859c-1.185,2.051-3.809,2.754-5.859,1.569
				c-2.053-1.184-2.756-3.807-1.57-5.859c0.376-0.651,0.918-1.193,1.57-1.569v1.548C97.618,78.933,98.578,79.893,99.763,79.893z
				 M125.501,79.893c1.184,0,2.145-0.96,2.145-2.145V76.2c2.051,1.184,2.754,3.808,1.57,5.859c-1.186,2.051-3.809,2.754-5.859,1.569
				c-2.052-1.184-2.755-3.807-1.57-5.859c0.377-0.651,0.918-1.193,1.57-1.569v1.548C123.356,78.933,124.315,79.893,125.501,79.893z
				 M151.238,79.893c1.186,0,2.146-0.96,2.146-2.145V76.2c2.051,1.184,2.754,3.808,1.57,5.859c-1.186,2.051-3.809,2.754-5.859,1.569
				c-2.053-1.184-2.756-3.807-1.571-5.859c0.376-0.651,0.918-1.193,1.571-1.569v1.548C149.095,78.933,150.054,79.893,151.238,79.893
				z M166.253,178.556H84.749c-1.186,0-2.146-0.96-2.146-2.146V97.052h85.794v79.358
				C168.397,177.596,167.437,178.556,166.253,178.556z"/>
			<path fill="#3E3D42" d="M155.528,112.065h-30.027c-1.186,0-2.145,0.96-2.145,2.146c0,1.185,0.959,2.145,2.145,2.145h30.027
				c1.185,0,2.145-0.96,2.145-2.145C157.673,113.025,156.713,112.065,155.528,112.065z"/>
			<path fill="#3E3D42" d="M125.501,129.225h21.447c1.186,0,2.146-0.96,2.146-2.146c0-1.184-0.961-2.145-2.146-2.145h-21.447
				c-1.186,0-2.145,0.961-2.145,2.145C123.356,128.265,124.315,129.225,125.501,129.225z"/>
			<path fill="#3E3D42" d="M155.528,146.383h-30.027c-1.186,0-2.145,0.96-2.145,2.145s0.959,2.146,2.145,2.146h30.027
				c1.185,0,2.145-0.961,2.145-2.146S156.713,146.383,155.528,146.383z"/>
			<path fill="#3E3D42" d="M146.948,159.252h-21.447c-1.186,0-2.145,0.96-2.145,2.146c0,1.184,0.959,2.144,2.145,2.144h21.447
				c1.186,0,2.146-0.96,2.146-2.144C149.095,160.212,148.133,159.252,146.948,159.252z"/>
			<path fill="#3E3D42" d="M115.404,108.404l-2.923,2.924c-0.305-0.842-1.101-1.403-1.995-1.407H93.328
				c-1.185,0-2.146,0.96-2.146,2.145v17.159c0,1.184,0.961,2.145,2.146,2.145h17.158c1.185,0,2.146-0.961,2.146-2.145v-11.981
				l5.807-5.807c0.821-0.851,0.799-2.209-0.054-3.032C117.554,107.602,116.235,107.602,115.404,108.404z M108.341,127.079H95.473
				v-12.868h12.868v1.256l-4.289,4.29l-2.772-2.772c-0.853-0.824-2.21-0.801-3.033,0.052c-0.803,0.831-0.803,2.149,0,2.98l4.29,4.29
				c0.837,0.838,2.195,0.838,3.033,0l2.771-2.773V127.079z"/>
			<path fill="#3E3D42" d="M115.404,142.722l-2.923,2.924c-0.305-0.841-1.101-1.404-1.995-1.407H93.328
				c-1.185,0-2.146,0.961-2.146,2.145v17.158c0,1.186,0.961,2.146,2.146,2.146h17.158c1.185,0,2.146-0.96,2.146-2.146v-11.979
				l5.807-5.807c0.821-0.853,0.799-2.21-0.054-3.033C117.554,141.919,116.235,141.919,115.404,142.722z M108.341,161.397H95.473
				v-12.87h12.868v1.258l-4.289,4.289l-2.772-2.773c-0.853-0.822-2.21-0.799-3.033,0.053c-0.803,0.831-0.803,2.148,0,2.98
				l4.29,4.289c0.837,0.838,2.195,0.838,3.033,0l2.771-2.772V161.397z"/>
		</g>
	</g>
</g>
</svg>
