<?xml version="1.0" encoding="utf-8"?>
<!-- Generator: Adobe Illustrator 21.0.0, SVG Export Plug-In . SVG Version: 6.00 Build 0)  -->
<svg version="1.1" id="Layer_1" xmlns="http://www.w3.org/2000/svg" xmlns:xlink="http://www.w3.org/1999/xlink" x="0px" y="0px"
	 viewBox="0 0 174 40" style="enable-background:new 0 0 174 40;" xml:space="preserve">
<style type="text/css">
	.st0{fill:#4FBCBC;}
	.st1{fill:#282828;}
</style>
<g>
	<path class="st0" d="M49.4,39.1c-2.6,0-5.1-1-7-2.9c-3.8-3.8-3.8-10.1,0-14c1.9-1.9,4.3-2.9,7-2.9c2.6,0,5.1,1,7,2.9
		c2.3,2.3,3.3,5.6,2.7,8.9c0,0.2-0.7,3-2.9,4.6c-0.4,0.3-0.9,0.2-1.2-0.2c-0.3-0.4-0.2-0.9,0.2-1.2c1.6-1.1,2.2-3.5,2.2-3.5
		c0.5-2.6-0.3-5.4-2.2-7.3c-3.2-3.2-8.3-3.2-11.5,0c-3.2,3.2-3.2,8.3,0,11.5c1.9,1.9,4.6,2.8,7.3,2.2c0.5-0.1,0.9,0.2,1,0.7
		c0.1,0.5-0.2,0.9-0.7,1C50.7,39.1,50.1,39.1,49.4,39.1z"/>
	<g>
		<path class="st1" d="M16.3,37.5c-4.7,0-8.3-2.7-8.3-8.7v-9.7h8.6v-1.6H8V0.8H6.4v16.7H3.9v1.6h2.5v9.7c0,7,4.4,10.3,10,10.3
			c0.4,0,1,0,1.5-0.1l-0.2-1.6C17.1,37.5,16.7,37.5,16.3,37.5z"/>
		<path class="st1" d="M134.9,37.5c-4.7,0-8.3-2.7-8.3-8.7v-9.7h8.6v-1.6h-8.6V0.8h-1.6v16.7h-2.5v1.6h2.5v9.7c0,7,4.4,10.3,10,10.3
			c0.4,0,1,0,1.5-0.1l-0.2-1.6C135.6,37.5,135.2,37.5,134.9,37.5z"/>
		<path class="st1" d="M25.4,17.9c-0.4,0-0.8,0-1.2,0V0.9h-1.6v38.2h1.6V19.6c0.5-0.1,0.9-0.1,1.2-0.1c4.7,0,8.3,2.7,8.3,8.7v10.8
			h1.6V28.2C35.4,21.2,30.9,17.9,25.4,17.9z"/>
		<path class="st1" d="M168.6,17.9c-3.5,0-6.6,1.3-8.3,4l0-4.5l-1.6,0l0,10.8v0l0,10.8l1.6,0l0-10.8c0-5.9,3.7-8.7,8.3-8.7
			c0.3,0,0.8,0,1.3,0.1l0.2-1.6C169.6,17.9,169,17.9,168.6,17.9z"/>
		<polygon class="st1" points="90.1,0.9 64.7,0.9 64.7,2.5 76.6,2.5 76.6,39.1 78.2,39.1 78.2,2.5 90.1,2.5 		"/>
		<path class="st1" d="M93.7,17.4c-4.7,0-8.5,4.3-8.5,9.5v0.8h0v1.1c0,7,4.4,10.3,10,10.3c0.4,0,1,0,1.5-0.1l-0.2-1.6
			c-0.5,0.1-0.9,0.1-1.3,0.1c-4.7,0-8.3-2.7-8.3-8.7v-1.1h15.3V27C102.2,21.7,98.4,17.4,93.7,17.4z M86.9,26.2c0.4-4,3.3-7,6.8-7
			c3.5,0,6.4,3.1,6.8,7H86.9z"/>
		<path class="st1" d="M154.8,27c0-5.3-3.8-9.5-8.5-9.5c0,0,0,0,0,0c-2.3,0-4.4,1-6,2.8c-1.6,1.8-2.5,4.2-2.4,6.7l0,0.8h0l0,1.1
			c0,7,4.4,10.3,10,10.3c0.4,0,1,0,1.5-0.1l-0.2-1.6c-0.5,0.1-0.9,0.1-1.3,0.1c-4.7,0-8.3-2.7-8.3-8.7l0-1.1l15.3,0L154.8,27z
			 M139.5,26.2c0.2-1.8,0.9-3.5,2-4.8c1.3-1.5,3-2.3,4.8-2.3h0c3.5,0,6.4,3.1,6.8,7L139.5,26.2z"/>
		<path class="st1" d="M112.5,27.8c-2.5-0.4-5.6-1.4-5.6-3.7c0-2.6,2.9-4.4,7.1-4.4c1,0,2.6,0.3,3.6,0.7l0.2,0.1l0.6-1.5l-0.2-0.1
			c-1.1-0.5-2.9-0.8-4.2-0.8c-5,0-8.7,2.5-8.7,6c0,2.7,2.5,4.5,6.9,5.3c2.5,0.4,5.6,1.4,5.6,3.7c0,2.6-2.9,4.4-7.1,4.4
			c-1,0-2.6-0.3-3.6-0.7l-0.2-0.1l-0.6,1.5l0.2,0.1c1.1,0.5,2.9,0.8,4.2,0.8c5,0,8.7-2.5,8.7-6C119.4,30.4,117,28.5,112.5,27.8z"/>
		<path class="st1" d="M49.2,27.8c-0.3-0.3-0.9-0.3-1.2,0c-0.3,0.3-0.3,0.9,0,1.2l9.3,9.3c0.2,0.2,0.4,0.3,0.6,0.3
			c0.2,0,0.4-0.1,0.6-0.3c0.3-0.3,0.3-0.9,0-1.2L49.2,27.8z"/>
	</g>
</g>
</svg>
