<?xml version="1.0" encoding="utf-8"?>
<!-- Generator: Adobe Illustrator 16.0.0, SVG Export Plug-In . SVG Version: 6.00 Build 0)  -->
<!DOCTYPE svg PUBLIC "-//W3C//DTD SVG 1.1//EN" "http://www.w3.org/Graphics/SVG/1.1/DTD/svg11.dtd">
<svg version="1.1" id="Layer_1" xmlns="http://www.w3.org/2000/svg" xmlns:xlink="http://www.w3.org/1999/xlink" x="0px" y="0px"
	 width="135px" height="135px" viewBox="0 0 135 135" enable-background="new 0 0 135 135" xml:space="preserve">
<g>
	<g>
		<path fill="#FFFFFF" d="M134.5,124.5c0,5.523-4.478,10-10,10h-114c-5.522,0-10-4.477-10-10v-114c0-5.523,4.478-10,10-10h114
			c5.522,0,10,4.477,10,10V124.5z"/>
		<path fill="#C8C8C8" d="M124.5,135h-114C4.71,135,0,130.29,0,124.5v-114C0,4.71,4.71,0,10.5,0h114c5.79,0,10.5,4.71,10.5,10.5v114
			C135,130.29,130.29,135,124.5,135z M10.5,1C5.262,1,1,5.262,1,10.5v114c0,5.238,4.262,9.5,9.5,9.5h114c5.238,0,9.5-4.262,9.5-9.5
			v-114c0-5.238-4.262-9.5-9.5-9.5H10.5z"/>
	</g>
	<g>
		<path fill="#898890" d="M99.509,36.027h-8v5.332h8v37.338H32.838V41.359h8v-5.332h-8c-2.946,0-5.335,2.387-5.335,5.332v42.67
			c0,2.947,2.389,5.334,5.335,5.334h66.671c2.946,0,5.334-2.387,5.334-5.334v-42.67C104.843,38.414,102.455,36.027,99.509,36.027z"
			/>
		<path fill="#57565C" d="M52.839,102.697c-0.736,0-1.333,0.596-1.333,1.334v4h29.335v-4c0-0.738-0.598-1.334-1.334-1.334H52.839z"
			/>
		<path fill="#787680" d="M56.839,89.363h18.669v13.334H56.839V89.363z"/>
		<path fill="#FFEB99" d="M32.838,41.359h8v37.338h-8V41.359z"/>
		<path fill="#FFEB99" d="M91.509,41.359h8v37.338h-8V41.359z"/>
		<path fill="#E6E7E8" d="M90.176,30.693H42.171c-0.735,0-1.333,0.598-1.333,1.332v46.672h13.334V68.029h8.001v-5.334h8v-5.334
			h8.001v21.336h13.335V32.025C91.509,31.291,90.911,30.693,90.176,30.693z M54.172,52.027c-4.418,0-8-3.582-8-8c0-4.42,3.582-8,8-8
			c4.419,0,8.001,3.58,8.001,8C62.173,48.445,58.591,52.027,54.172,52.027z"/>
		<path fill="#FFDE55" d="M62.173,44.027c0-4.42-3.582-8-8.001-8v8H62.173z"/>
		<path fill="#FF7956" d="M54.172,52.027c4.419,0,8.001-3.582,8.001-8h-8.001l5.654,5.652l-5.654-5.652v-8c-4.418,0-8,3.58-8,8
			C46.172,48.445,49.754,52.027,54.172,52.027z"/>
		<path fill="#FFE477" d="M54.172,68.029h8.001v10.668h-8.001V68.029z"/>
		<path fill="#FFB655" d="M62.173,62.695v16.002h8.001V62.695H62.173z"/>
		<path fill="#44FFE8" d="M70.174,57.361v21.336h8V57.361H70.174z"/>
		<path fill="#2D2D30" d="M99.509,34.693h-6.667v-2.668c0-1.473-1.194-2.666-2.666-2.666H42.171c-1.473,0-2.666,1.193-2.666,2.666
			v2.668h-6.667c-3.681,0.004-6.663,2.986-6.668,6.666v42.67c0.005,3.68,2.987,6.664,6.668,6.668h22.668v10.668h-2.667
			c-1.473,0-2.666,1.193-2.666,2.666v2.666h-4.001v2.668h40.003v-2.668h-4.001v-2.666c0-1.473-1.193-2.666-2.667-2.666h-2.666
			V90.697H99.51c3.68-0.006,6.662-2.988,6.667-6.668v-42.67C106.172,37.68,103.189,34.697,99.509,34.693z M92.842,42.693h5.334
			v34.67h-5.334V42.693z M42.171,32.025h48.005v45.338H79.507V57.361c0-0.736-0.597-1.334-1.333-1.334h-8
			c-0.737,0-1.334,0.598-1.334,1.334v4h-6.667c-0.736,0-1.333,0.596-1.333,1.334v4h-6.668c-0.736,0-1.333,0.598-1.333,1.334v9.334
			H42.171V32.025z M63.506,77.363V64.027h5.334v13.336H63.506z M55.506,77.363v-8h5.334v8H55.506z M71.507,62.695v-4h5.334v18.668
			h-5.334V62.695z M34.171,77.363v-34.67h5.334v34.67H34.171z M79.507,106.697H52.839v-2.666h26.668V106.697z M74.174,101.365
			H58.173V90.697h16.001V101.365z M103.51,84.029c0,2.209-1.791,4.002-4.001,4.002H32.838c-2.21,0-4.001-1.793-4.001-4.002v-42.67
			c0-2.209,1.791-4,4.001-4h6.667v2.666h-6.667c-0.737,0-1.334,0.598-1.334,1.334v37.338c0,0.734,0.597,1.332,1.334,1.332h66.671
			c0.737,0,1.334-0.598,1.334-1.332V41.359c0-0.736-0.597-1.334-1.334-1.334h-6.667v-2.666h6.667c2.21,0,4.001,1.791,4.001,4V84.029
			z"/>
		<path fill="#2D2D30" d="M64.84,82.695h2.666v2.668H64.84V82.695z"/>
		<path fill="#2D2D30" d="M54.172,53.361c5.155,0,9.334-4.18,9.334-9.334c0-5.156-4.179-9.334-9.334-9.334
			c-5.154,0-9.334,4.178-9.334,9.334C44.844,49.18,49.02,53.355,54.172,53.361z M57.392,45.361h3.314
			c-0.172,0.834-0.503,1.627-0.977,2.336L57.392,45.361z M60.706,42.693h-5.2v-5.201C58.122,38.033,60.167,40.076,60.706,42.693z
			 M52.839,37.492v6.535c-0.001,0.354,0.141,0.695,0.393,0.943l4.611,4.613c-3.067,2.037-7.205,1.199-9.241-1.867
			c-2.037-3.066-1.202-7.205,1.866-9.242C51.187,37.996,51.992,37.664,52.839,37.492z"/>
		<path fill="#2D2D30" d="M66.173,37.359h13.334v2.666H66.173V37.359z"/>
		<path fill="#2D2D30" d="M66.173,42.693h13.334v2.666H66.173V42.693z"/>
		<path fill="#2D2D30" d="M66.173,48.027h13.334v2.666H66.173V48.027z"/>
	</g>
	<polygon fill="#E8454A" points="36.5,0.5 0.5,34.656 0.5,81.334 83.167,0.5 	"/>
	<g>
		<path fill="#FFFFFF" d="M5.649,49.162l3.047-3.047l0.764,0.764l-3.047,3.047L5.649,49.162z M7.269,54.092
			c0.663-0.809,1.114-1.531,1.354-2.168c0.241-0.637,0.27-1.186,0.089-1.649l-2.256,2.257l-0.773-0.773l5.608-5.608l0.772,0.772
			l-2.248,2.249c0.424,0.187,0.951,0.163,1.582-0.072s1.365-0.675,2.202-1.32c0.007,0.12,0.017,0.239,0.029,0.361
			c0.015,0.122,0.03,0.243,0.048,0.36c0.011,0.113,0.023,0.223,0.037,0.326c0.014,0.105,0.027,0.197,0.038,0.276
			c-0.769,0.532-1.458,0.918-2.065,1.159c-0.607,0.24-1.143,0.334-1.6,0.284c0.039,0.503-0.061,1.062-0.302,1.676
			c-0.24,0.613-0.624,1.28-1.149,1.997L7.269,54.092z M16.001,49.451l-2.986,2.986l2.273,2.273l-0.977,0.977l-2.273-2.273L9,56.451
			l-0.806-0.807l7-7L16.001,49.451z"/>
		<path fill="#FFFFFF" d="M15.364,40.313c0.085-0.085,0.164-0.128,0.237-0.128c0.073,0.001,0.153,0.043,0.238,0.128
			c1.126,1.262,1.882,2.615,2.27,4.06c0.388,1.445,0.397,2.997,0.029,4.654l-1.435,0.161c0.414-1.43,0.51-2.75,0.285-3.957
			c-0.224-1.209-0.771-2.299-1.642-3.272l-2.512,2.512l-0.814-0.814L15.364,40.313z M23.833,46.168l-7.604-7.604l0.951-0.95
			l2.961,2.961l1.035-1.035l0.857,0.856l-1.035,1.035l3.784,3.785L23.833,46.168z"/>
		<path fill="#FFFFFF" d="M24.901,36.833l-3.258-3.258l0.941-0.942l1.018,1.018l1.715-1.713L24.3,30.92l0.951-0.951l0.738,0.738
			l1.349-1.35l-0.942-0.941l0.967-0.967l3.929,3.928l-0.967,0.967l-0.856-0.857l-1.35,1.35l0.391,0.391
			c0.09,0.09,0.135,0.172,0.131,0.242c-0.003,0.071-0.047,0.148-0.131,0.232l-3.141,3.141c-0.09,0.09-0.168,0.135-0.232,0.131
			C25.071,36.971,24.991,36.924,24.901,36.833z M27.04,33.66l-0.967-0.967l-1.715,1.713l0.968,0.968L27.04,33.66z M30.019,39.88
			c-0.09,0.091-0.17,0.135-0.238,0.136c-0.066,0-0.146-0.046-0.236-0.137l-1.527-1.527c-0.086-0.084-0.129-0.162-0.133-0.232
			c-0.002-0.07,0.041-0.152,0.132-0.242l3.87-3.87l-0.577-0.577l-4.107,4.107l-0.747-0.746l4.88-4.88
			c0.085-0.085,0.164-0.127,0.237-0.127s0.152,0.042,0.238,0.128l1.519,1.519c0.091,0.091,0.134,0.171,0.132,0.241
			c-0.004,0.07-0.047,0.148-0.131,0.234l-3.854,3.852l0.586,0.586l4.252-4.252l0.746,0.747L30.019,39.88z M26.727,31.444
			l0.661,0.661l1.35-1.349l-0.662-0.661L26.727,31.444z"/>
		<path fill="#FFFFFF" d="M29.789,25.7l5.065-5.065l0.807,0.807l-4.327,4.327l2.223,2.223l4.396-4.396l0.814,0.814l-2.256,2.258
			l1.756,1.756l3.012-3.013l0.814,0.815l-7.009,7.009l-0.815-0.815l3.004-3.004l-1.756-1.756l-1.892,1.893
			c-0.091,0.09-0.168,0.134-0.233,0.131c-0.065-0.002-0.143-0.049-0.232-0.139l-3.369-3.369c-0.085-0.085-0.129-0.162-0.133-0.234
			C29.655,25.871,29.698,25.791,29.789,25.7z"/>
		<path fill="#FFFFFF" d="M37.01,18.174l4.82-4.82c0.085-0.085,0.165-0.127,0.237-0.127c0.074,0,0.152,0.043,0.238,0.127
			l2.324,2.326c0.091,0.09,0.135,0.17,0.132,0.241s-0.046,0.147-0.132,0.233l-4.828,4.828c-0.09,0.09-0.166,0.136-0.229,0.136
			c-0.063,0.001-0.139-0.045-0.229-0.136l-2.333-2.334c-0.086-0.084-0.129-0.162-0.131-0.232
			C36.876,18.346,36.919,18.264,37.01,18.174z M43.12,16.053l-1.188-1.188l-3.403,3.402l1.188,1.188L43.12,16.053z M44.901,21.958
			l-1.502-1.502l-3.14,3.14l-0.813-0.814l7-7l0.814,0.814l-2.885,2.885l1.502,1.502L44.901,21.958z M44.292,25.42
			c-0.092,0.092-0.17,0.135-0.234,0.132c-0.065-0.002-0.143-0.05-0.233-0.14l-2.087-2.088l0.967-0.967l1.511,1.51l4.54-4.539
			l0.814,0.814L44.292,25.42z"/>
		<path fill="#FFFFFF" d="M49.892,13.15c-0.306,0.306-0.631,0.535-0.976,0.688c-0.347,0.152-0.696,0.232-1.053,0.237
			c-0.351,0.001-0.693-0.07-1.026-0.212c-0.334-0.142-0.643-0.354-0.926-0.637c-0.271-0.271-0.478-0.574-0.619-0.908
			c-0.142-0.333-0.213-0.676-0.212-1.026c0.006-0.355,0.083-0.708,0.233-1.057c0.15-0.347,0.377-0.675,0.683-0.979
			c0.3-0.3,0.624-0.524,0.972-0.675c0.348-0.149,0.7-0.227,1.057-0.233c0.351,0,0.693,0.07,1.031,0.207
			c0.336,0.14,0.641,0.345,0.912,0.615c0.283,0.283,0.493,0.594,0.633,0.93c0.137,0.338,0.207,0.681,0.207,1.031
			c-0.006,0.357-0.086,0.707-0.237,1.053C50.417,12.528,50.19,12.852,49.892,13.15z M46.803,10.063
			c-0.339,0.34-0.494,0.708-0.463,1.107c0.031,0.398,0.211,0.762,0.538,1.09c0.323,0.322,0.688,0.504,1.096,0.543
			c0.407,0.04,0.78-0.11,1.119-0.449c0.34-0.34,0.49-0.713,0.451-1.121c-0.04-0.406-0.221-0.771-0.544-1.095
			c-0.327-0.327-0.691-0.507-1.09-0.538C47.511,9.568,47.142,9.723,46.803,10.063z M48.618,16.63l2.283-2.334
			c0.13-0.13,0.302-0.316,0.518-0.56c0.215-0.244,0.443-0.51,0.687-0.798s0.483-0.585,0.722-0.89
			c0.237-0.308,0.443-0.587,0.619-0.841l0.789,0.789c-0.406,0.646-0.951,1.362-1.634,2.15c-0.682,0.789-1.44,1.603-2.278,2.44
			l-0.873,0.873L48.618,16.63z M49.679,5.133l7.594,7.594l-0.957,0.959l-7.595-7.595L49.679,5.133z"/>
	</g>
</g>
</svg>
