<?xml version="1.0" encoding="utf-8"?>
<!-- Generator: Adobe Illustrator 16.0.0, SVG Export Plug-In . SVG Version: 6.00 Build 0)  -->
<!DOCTYPE svg PUBLIC "-//W3C//DTD SVG 1.1//EN" "http://www.w3.org/Graphics/SVG/1.1/DTD/svg11.dtd">
<svg version="1.1" id="Layer_1" xmlns="http://www.w3.org/2000/svg" xmlns:xlink="http://www.w3.org/1999/xlink" x="0px" y="0px"
	 width="135px" height="135px" viewBox="0 0 135 135" enable-background="new 0 0 135 135" xml:space="preserve">
<g>
	<g>
		<circle fill="#E8454A" cx="49.145" cy="48.134" r="31.94"/>
		<path d="M124.557,97.873c0-0.07,0-0.14-0.023-0.21c0-0.07-0.023-0.14-0.047-0.209c-0.023-0.07-0.023-0.14-0.047-0.187
			c-0.023-0.07-0.046-0.117-0.093-0.186c-0.022-0.07-0.046-0.117-0.093-0.187c-0.023-0.07-0.07-0.117-0.117-0.163
			c-0.047-0.047-0.07-0.117-0.115-0.163c-0.047-0.047-0.094-0.093-0.164-0.14c-0.047-0.046-0.093-0.093-0.14-0.139
			c-0.046-0.047-0.116-0.07-0.187-0.117c-0.047-0.023-0.094-0.07-0.163-0.093L97.672,83.406c-0.07-0.047-0.14-0.07-0.232-0.094
			c-0.443-0.163-11.043-3.867-19.709,0.024l-19.127,6.919c-0.047,0.023-0.117,0.046-0.164,0.07c-2.748,1.257-4.193,4.077-3.61,7.036
			c0.583,2.936,2.959,5.009,5.94,5.148c0.023,0,0.023,0,0.047,0c0.187,0,1.025-0.047,9.738-0.605
			c3.797-0.233,7.711-0.489,8.061-0.513c1.096-0.047,2.004-0.933,2.027-2.05c0.023-1.165-0.887-2.143-2.074-2.167
			c-0.116,0-0.116,0-8.27,0.513c-4.078,0.256-8.644,0.559-9.412,0.605c-1.469-0.116-1.818-1.351-1.91-1.724
			c-0.164-0.792,0.069-1.841,1.164-2.376l19.104-6.919c0.047-0.023,0.094-0.046,0.163-0.069c6.71-3.052,15.47-0.303,16.517,0.023
			l11.439,5.638l-6.29,14.839c-3.099-1.91-6.872-2.422-10.366-1.374l-25.674,7.711c-3.052,0.932-6.43,0.582-9.248-0.955
			L15.575,91.303c-1.444-0.792-0.979-2.167-0.861-2.445c0.139-0.373,0.744-1.538,2.213-1.142l31.24,10.413
			c1.096,0.373,2.307-0.233,2.68-1.328c0.373-1.118-0.233-2.307-1.328-2.68l-31.311-10.46c-0.047-0.023-0.07-0.023-0.117-0.023
			c-3.098-0.839-6.104,0.652-7.291,3.634c-1.212,3.005-0.07,6.174,2.771,7.735l40.234,21.853c3.797,2.073,8.34,2.539,12.463,1.281
			l25.674-7.711c2.353-0.699,4.893-0.373,6.965,0.955L112,119.632c0.069,0.047,0.116,0.07,0.186,0.093
			c0.023,0,0.023,0.024,0.047,0.024h0.023c0.023,0.022,0.047,0.022,0.094,0.022c0.047,0.023,0.115,0.047,0.162,0.07
			c0.023,0,0.07,0.022,0.094,0.022c0.047,0.024,0.116,0.024,0.163,0.047c0.022,0,0.069,0,0.093,0.023
			c0.094,0,0.164,0.023,0.256,0.023l0,0l0,0l0,0l0,0c0.094,0,0.188,0,0.28-0.023c0.022,0,0.069,0,0.093-0.023
			c0.07,0,0.117-0.022,0.187-0.047c0.023,0,0.069-0.022,0.093-0.022c0.047-0.023,0.117-0.047,0.164-0.07
			c0.023-0.022,0.07-0.022,0.093-0.046c0.047-0.023,0.093-0.046,0.163-0.093c0.023-0.023,0.07-0.046,0.094-0.046
			c0.046-0.023,0.092-0.07,0.139-0.093c0.023-0.023,0.07-0.047,0.094-0.07c0.047-0.046,0.07-0.069,0.117-0.116
			c0.022-0.023,0.046-0.046,0.092-0.093c0.047-0.047,0.07-0.093,0.094-0.14c0.023-0.023,0.047-0.07,0.07-0.093
			c0,0,0-0.022,0.023-0.022c0-0.024,0.023-0.047,0.023-0.047c0.023-0.046,0.069-0.117,0.093-0.186l9.319-19.85
			c0.022-0.069,0.046-0.116,0.068-0.186c0.023-0.07,0.047-0.14,0.07-0.187c0.023-0.069,0.023-0.14,0.023-0.21
			c0-0.069,0.023-0.14,0.023-0.21C124.557,98.013,124.557,97.943,124.557,97.873z M119.665,98.944l-7.432,15.818l-7.525-4.752
			l6.454-15.236L119.665,98.944z"/>
		<path fill="#FFFFFF" d="M46.163,50.254h5.918c2.424,0,4.38,1.957,4.38,4.38c0,2.422-1.956,4.379-4.38,4.379H41.434
			c-1.164,0-2.119,0.955-2.119,2.12s0.955,2.12,2.119,2.12h5.568v4.17c0,1.165,0.955,2.12,2.119,2.12
			c1.166,0,2.121-0.955,2.121-2.12v-4.17h0.861c4.752,0,8.619-3.868,8.619-8.62c0-4.752-3.867-8.62-8.619-8.62h-5.918
			c-2.422,0-4.379-1.958-4.379-4.381c0-2.422,1.957-4.379,4.379-4.379h10.461c1.164,0,2.12-0.955,2.12-2.12
			c0-1.165-0.956-2.12-2.12-2.12h-5.381v-4.077c0-1.165-0.955-2.12-2.121-2.12c-1.164,0-2.119,0.955-2.119,2.12v4.1h-0.863
			c-4.752,0-8.619,3.868-8.619,8.62C37.567,46.387,41.434,50.254,46.163,50.254z"/>
		<path d="M49.145,82.171c18.777,0,34.037-15.283,34.037-34.037c0-18.754-15.283-34.06-34.037-34.06s-34.06,15.283-34.06,34.06
			S30.368,82.171,49.145,82.171z M49.145,18.314c16.447,0,29.82,13.372,29.82,29.82c0,16.447-13.373,29.819-29.82,29.819
			S19.326,64.582,19.326,48.134C19.326,31.687,32.698,18.314,49.145,18.314z"/>
	</g>
</g>
</svg>
