<?xml version="1.0" encoding="utf-8"?>
<!-- Generator: Adobe Illustrator 16.0.0, SVG Export Plug-In . SVG Version: 6.00 Build 0)  -->
<!DOCTYPE svg PUBLIC "-//W3C//DTD SVG 1.1//EN" "http://www.w3.org/Graphics/SVG/1.1/DTD/svg11.dtd">
<svg version="1.1" id="Layer_1" xmlns="http://www.w3.org/2000/svg" xmlns:xlink="http://www.w3.org/1999/xlink" x="0px" y="0px"
	 width="266px" height="86px" viewBox="0 0 266 86" enable-background="new 0 0 266 86" xml:space="preserve">
<g>
	<g>
		<path fill="#FFFFFF" d="M69.816,59.964h-8.5v18.15h-3.049V41.313c0-0.332,0.057-0.566,0.174-0.699s0.357-0.2,0.725-0.2h10.65
			c3.5,0,6.342,0.792,8.525,2.375s3.275,4.024,3.275,7.325c0,2.1-0.609,3.85-1.826,5.25c-1.217,1.399-3.059,2.434-5.523,3.1
			c1.332,0.233,2.416,0.608,3.25,1.125c0.832,0.518,1.5,1.143,2,1.875c0.5,0.768,0.857,1.617,1.074,2.55
			c0.217,0.934,0.391,1.917,0.525,2.95c0.133,1.567,0.24,2.917,0.324,4.05c0.084,1.134,0.158,2.15,0.225,3.05
			c0.066,0.867,0.168,1.625,0.301,2.275s0.35,1.241,0.65,1.775h-3.551c-0.166-0.434-0.291-0.959-0.375-1.575
			s-0.143-1.258-0.174-1.925c-0.068-0.7-0.117-1.417-0.15-2.15c-0.033-0.732-0.068-1.45-0.1-2.15
			c-0.201-2.166-0.459-3.925-0.775-5.274c-0.318-1.351-0.775-2.408-1.375-3.175c-0.6-0.733-1.4-1.233-2.4-1.5
			S71.416,59.964,69.816,59.964z M78.268,50.063c0-2.433-0.793-4.183-2.375-5.25c-1.584-1.066-3.875-1.6-6.875-1.6h-7.701v13.9h7.4
			c2.9,0,5.217-0.559,6.949-1.676C77.4,54.322,78.268,52.531,78.268,50.063z"/>
		<path fill="#FFFFFF" d="M110.768,64.714c0,0.367-0.084,0.634-0.25,0.8c-0.168,0.167-0.4,0.25-0.701,0.25h-18.75
			c0,1.468,0.176,2.834,0.525,4.101s0.893,2.367,1.625,3.3c0.732,0.934,1.658,1.658,2.775,2.175
			c1.117,0.518,2.441,0.775,3.975,0.775c1.732,0,3.258-0.583,4.576-1.75c1.316-1.167,2.207-2.65,2.674-4.45h3.25
			c-0.768,3.067-2.092,5.3-3.975,6.7c-1.883,1.399-4.359,2.1-7.426,2.1c-1.898,0-3.549-0.358-4.949-1.075s-2.551-1.708-3.449-2.975
			c-0.9-1.233-1.568-2.667-2-4.3c-0.434-1.633-0.65-3.351-0.65-5.15c0-1.767,0.225-3.467,0.674-5.1
			c0.451-1.633,1.143-3.066,2.076-4.301c0.932-1.232,2.107-2.225,3.525-2.975c1.416-0.75,3.074-1.125,4.975-1.125
			c2,0,3.725,0.325,5.174,0.975c1.451,0.65,2.643,1.543,3.576,2.676c0.9,1.167,1.574,2.542,2.025,4.125
			C110.492,61.072,110.734,62.813,110.768,64.714z M91.117,63.214h16.6c-0.166-2.666-0.975-4.825-2.424-6.475
			c-1.451-1.65-3.459-2.476-6.025-2.476c-1.201,0-2.275,0.242-3.225,0.726c-0.951,0.483-1.775,1.125-2.477,1.925
			c-0.699,0.833-1.258,1.792-1.674,2.875C91.475,60.872,91.217,62.014,91.117,63.214z"/>
		<path fill="#FFFFFF" d="M137.018,60.364h-3.051c-0.1-2-0.809-3.508-2.125-4.525c-1.316-1.017-3.008-1.525-5.074-1.525
			c-1.135,0-2.184,0.284-3.15,0.851c-0.967,0.567-1.801,1.333-2.5,2.3c-0.701,0.967-1.25,2.117-1.65,3.45s-0.6,2.75-0.6,4.25
			c0,1.533,0.199,2.967,0.6,4.3c0.4,1.334,0.949,2.483,1.65,3.45c0.699,1,1.533,1.774,2.5,2.325c0.967,0.55,2.016,0.824,3.15,0.824
			c1.932,0,3.557-0.508,4.875-1.524c1.316-1.017,2.074-2.558,2.273-4.625h3.102c-0.434,2.934-1.559,5.134-3.375,6.6
			c-1.818,1.467-4.076,2.2-6.775,2.2c-1.9,0-3.543-0.358-4.926-1.075s-2.525-1.708-3.424-2.975c-0.934-1.233-1.617-2.667-2.051-4.3
			s-0.65-3.351-0.65-5.15c0-1.767,0.232-3.467,0.701-5.1c0.465-1.633,1.166-3.066,2.1-4.301c0.967-1.232,2.15-2.225,3.549-2.975
			c1.4-0.75,3.051-1.125,4.951-1.125c2.633,0,4.9,0.768,6.799,2.3C135.816,55.548,136.85,57.664,137.018,60.364z"/>
		<path fill="#FFFFFF" d="M153.416,54.964c-0.9,0-1.791,0.158-2.674,0.475c-0.885,0.317-1.676,0.793-2.375,1.426
			c-0.701,0.633-1.26,1.449-1.676,2.449c-0.418,1-0.625,2.184-0.625,3.551v15.25h-3V52.514h3.15l-0.15,3.7
			c0.9-1.633,2-2.791,3.301-3.475c1.299-0.684,2.6-1.025,3.898-1.025c0.4,0,0.801,0.018,1.201,0.05
			c0.4,0.034,0.666,0.067,0.799,0.101v3.3c-0.133-0.033-0.35-0.075-0.648-0.125C154.316,54.989,153.916,54.964,153.416,54.964z"/>
		<path fill="#FFFFFF" d="M177.117,78.114l0.148-4.301c-0.867,1.7-2.023,2.941-3.475,3.726c-1.449,0.782-3.074,1.175-4.875,1.175
			c-2.768,0-4.883-0.792-6.35-2.375s-2.199-3.908-2.199-6.975v-16.9h3v16.05c0,2.534,0.482,4.442,1.449,5.726s2.6,1.925,4.9,1.925
			c0.9,0,1.799-0.183,2.699-0.55s1.701-0.917,2.4-1.65c0.699-0.732,1.275-1.642,1.725-2.725c0.451-1.083,0.676-2.325,0.676-3.726
			v-15.05h2.699v25.65H177.117z"/>
		<path fill="#FFFFFF" d="M191.717,41.014v3.65h-3.451v-3.65H191.717z M188.467,52.114h3.049v26h-3.049V52.114z"/>
		<path fill="#FFFFFF" d="M205.066,45.063v7.45h5.75v2.65h-5.75v17.25c0,1.7,0.332,2.783,1,3.25c0.666,0.467,1.5,0.7,2.5,0.7
			c0.299,0,0.59-0.009,0.875-0.025c0.281-0.018,0.523-0.042,0.725-0.075c0.232-0.033,0.432-0.075,0.6-0.125
			c0.166-0.05,0.301-0.091,0.4-0.125v2.4c-0.4,0.1-0.859,0.191-1.375,0.274c-0.518,0.083-1.043,0.125-1.576,0.125
			c-0.898,0-1.732-0.092-2.5-0.274c-0.766-0.184-1.416-0.525-1.949-1.025s-0.949-1.192-1.25-2.075s-0.449-2.024-0.449-3.425v-16.85
			h-5.051v-2.65h5.051v-7.45H205.066z"/>
	</g>
	<path fill="#4FBCBC" d="M47.158,58.042c-0.248,0-0.5-0.062-0.732-0.191C37.83,53.027,32.49,43.915,32.49,34.069
		c0-15.025,12.225-27.25,27.25-27.25s27.25,12.225,27.25,27.25c0,0.828-0.672,1.5-1.5,1.5s-1.5-0.672-1.5-1.5
		c0-13.371-10.879-24.25-24.25-24.25s-24.25,10.879-24.25,24.25c0,8.763,4.752,16.872,12.404,21.164
		c0.721,0.405,0.979,1.32,0.574,2.043C48.193,57.767,47.684,58.042,47.158,58.042z"/>
</g>
</svg>
