<?xml version="1.0" encoding="utf-8"?>
<!-- Generator: Adobe Illustrator 16.0.0, SVG Export Plug-In . SVG Version: 6.00 Build 0)  -->
<!DOCTYPE svg PUBLIC "-//W3C//DTD SVG 1.1//EN" "http://www.w3.org/Graphics/SVG/1.1/DTD/svg11.dtd">
<svg version="1.1" id="Layer_1" xmlns="http://www.w3.org/2000/svg" xmlns:xlink="http://www.w3.org/1999/xlink" x="0px" y="0px"
	 width="251px" height="251px" viewBox="0 0 251 251" enable-background="new 0 0 251 251" xml:space="preserve">
<g>
	<path fill="#F0F0F0" d="M231.194,251H19.806C8.867,251,0,242.133,0,231.193V19.805C0,8.867,8.867,0,19.806,0h211.389
		C242.133,0,251,8.867,251,19.805v211.389C251,242.133,242.133,251,231.194,251z"/>
	<g>
		<path fill="#FFC477" d="M83.957,152.725c-5.667,1.658-9.563,6.855-9.563,12.76v22.189h26.627v-15.531
			c-0.006-4.178,1.172-8.271,3.396-11.807c-1.55-3.691-4.681-6.484-8.521-7.611c-0.923-0.283-1.547-1.145-1.531-2.105v-2.863
			c-0.018-0.705,0.294-1.379,0.844-1.82c2.258-1.652,3.594-4.281,3.594-7.078v-4.061c0.074-4.668-3.379-8.639-8.01-9.209
			c-4.881-0.479-9.221,3.088-9.699,7.969c-0.028,0.285-0.043,0.574-0.043,0.861v4.439c0,2.797,1.338,5.426,3.594,7.078
			c0.551,0.441,0.861,1.115,0.845,1.82v2.863C85.504,151.58,84.88,152.441,83.957,152.725z"/>
		<path fill="#FFC477" d="M149.84,187.674h26.627v-22.189c0-5.904-3.895-11.102-9.563-12.76c-0.923-0.283-1.545-1.145-1.53-2.105
			v-2.863c-0.02-0.705,0.293-1.379,0.843-1.82c2.259-1.652,3.593-4.281,3.595-7.078v-4.439c-0.002-4.9-3.975-8.875-8.878-8.873
			c-0.288,0-0.577,0.016-0.863,0.043c-4.631,0.57-8.085,4.541-8.009,9.209v4.061c0,2.797,1.334,5.426,3.594,7.078
			c0.547,0.441,0.859,1.115,0.843,1.82v2.863c0.015,0.961-0.609,1.822-1.532,2.105c-3.84,1.127-6.97,3.92-8.52,7.611
			c2.225,3.535,3.4,7.629,3.395,11.807V187.674z"/>
		<path fill="#FF7956" d="M101.021,187.674h48.818v-15.531c0.002-10.547-7.42-19.639-17.752-21.746v-6.682
			c4.114-2.373,6.651-6.764,6.656-11.516v-8.875c0-7.354-5.961-13.314-13.314-13.314c-7.352,0-13.313,5.961-13.313,13.314v8.875
			c0.005,4.752,2.541,9.143,6.657,11.516v6.682c-10.333,2.107-17.755,11.199-17.753,21.746V187.674z"/>
		<path fill="#46F8FF" d="M89.926,63.412c-15.931,0-28.846,7.947-28.846,17.75s12.915,17.752,28.846,17.752l8.877,8.879v-9.744
			c11.585-2.305,19.971-8.988,19.971-16.887C118.773,71.359,105.859,63.412,89.926,63.412z"/>
		<path fill="#FFE477" d="M160.934,70.068c-15.932,0-28.846,7.947-28.846,17.752c0,7.896,8.385,14.582,19.971,16.887v9.74
			l8.875-8.875c15.933,0,28.848-7.949,28.848-17.752C189.781,78.016,176.866,70.068,160.934,70.068z"/>
		<g>
			<path fill="#2D2D30" d="M167.591,150.619l-0.062-2.887c2.822-2.076,4.493-5.371,4.5-8.875v-4.439
				c0-6.127-4.969-11.094-11.096-11.094c-0.359,0-0.719,0.018-1.078,0.053c-5.758,0.703-10.07,5.617-10.016,11.42v4.061
				c0.021,3.492,1.659,6.781,4.438,8.898l0.063,2.842c-3.273,0.951-6.138,2.961-8.148,5.713c-3.124-3.666-7.258-6.328-11.887-7.656
				v-3.723c4.158-2.91,6.64-7.658,6.658-12.732v-8.875c0-8.578-6.956-15.531-15.535-15.531c-8.578,0-15.532,6.953-15.532,15.531
				v8.875c0.017,5.074,2.499,9.822,6.657,12.732v3.723c-4.629,1.326-8.764,3.99-11.888,7.656c-1.99-2.74-4.833-4.74-8.083-5.691
				l-0.063-2.887c2.824-2.076,4.493-5.371,4.5-8.875v-4.061c0.055-5.801-4.258-10.717-10.017-11.42
				c-6.099-0.596-11.524,3.865-12.121,9.963c-0.034,0.359-0.052,0.719-0.052,1.078v4.439c0.021,3.492,1.66,6.781,4.438,8.898
				l0.063,2.842c-6.596,1.959-11.13,8.006-11.158,14.887v22.189c0,1.227,0.992,2.219,2.217,2.219h102.074
				c1.225,0,2.219-0.992,2.219-2.219v-22.189C178.664,158.627,174.16,152.592,167.591,150.619z M76.612,165.484
				c0.021-4.906,3.253-9.223,7.956-10.625c1.871-0.563,3.15-2.289,3.139-4.24v-2.863c0.014-1.412-0.634-2.746-1.748-3.609
				c-1.694-1.229-2.695-3.195-2.688-5.289v-4.439c0.002-1.875,0.794-3.666,2.183-4.93c1.389-1.27,3.254-1.885,5.126-1.693
				c3.491,0.467,6.075,3.48,6.005,7.002v4.061c0.002,2.105-1.01,4.082-2.718,5.311c-1.1,0.865-1.735,2.189-1.721,3.588v2.863
				c-0.013,1.947,1.261,3.672,3.126,4.234c2.844,0.822,5.236,2.758,6.639,5.367c-0.205,0.367-0.358,0.756-0.544,1.131
				c-0.187,0.375-0.407,0.805-0.585,1.223c-0.262,0.609-0.475,1.238-0.684,1.869c-0.135,0.402-0.286,0.801-0.398,1.209
				c-0.195,0.707-0.328,1.426-0.457,2.15c-0.064,0.352-0.158,0.697-0.204,1.051c-0.151,1.09-0.231,2.189-0.235,3.289v13.313h-22.19
				V165.484z M103.241,172.143c0-0.941,0.065-1.879,0.195-2.809c0.39-2.775,1.364-5.439,2.857-7.816
				c2.911-4.617,7.577-7.848,12.923-8.947c1.034-0.211,1.775-1.119,1.775-2.174v-6.682c0-0.791-0.424-1.521-1.109-1.918
				c-3.422-1.988-5.533-5.643-5.548-9.598v-8.875c0-6.125,4.968-11.094,11.095-11.094c6.129,0,11.096,4.969,11.096,11.094v8.875
				c-0.016,3.957-2.127,7.609-5.547,9.598c-0.687,0.396-1.109,1.127-1.109,1.918v6.682c0,1.055,0.74,1.963,1.773,2.174
				c9.301,1.898,15.979,10.08,15.978,19.572v13.313h-44.379V172.143z M174.248,185.455h-22.189v-13.313
				c0-1.1-0.074-2.199-0.223-3.287c-0.047-0.355-0.14-0.701-0.203-1.053c-0.13-0.725-0.262-1.443-0.457-2.15
				c-0.113-0.408-0.264-0.803-0.397-1.207c-0.212-0.631-0.424-1.262-0.687-1.873c-0.175-0.412-0.381-0.809-0.58-1.213
				c-0.2-0.404-0.34-0.771-0.547-1.139c1.396-2.604,3.782-4.537,6.619-5.361c1.869-0.566,3.144-2.291,3.131-4.24v-2.863
				c0.013-1.412-0.635-2.746-1.748-3.609c-1.695-1.229-2.695-3.195-2.688-5.289v-4.061c-0.072-3.521,2.513-6.535,6.004-7.002
				c1.871-0.195,3.738,0.422,5.126,1.693c1.389,1.264,2.181,3.053,2.183,4.93v4.439c0.003,2.105-1.009,4.082-2.718,5.311
				c-1.098,0.865-1.734,2.189-1.721,3.586v2.861c-0.012,1.951,1.262,3.676,3.128,4.238c4.709,1.398,7.945,5.719,7.968,10.631
				V185.455z"/>
			<path fill="#2D2D30" d="M97.233,109.359c0.868,0.869,2.272,0.869,3.139,0c0.416-0.416,0.649-0.98,0.649-1.566v-7.961
				c12.021-2.914,19.971-10.266,19.971-18.67c0-11.197-13.645-19.971-31.064-19.971c-17.422,0-31.066,8.773-31.066,19.971
				c0,11.002,13.165,19.66,30.137,19.973L97.233,109.359z M63.299,81.162c0-8.418,12.193-15.531,26.627-15.531
				c14.436,0,26.629,7.113,26.629,15.531c0,6.531-7.478,12.58-18.185,14.711c-1.034,0.211-1.776,1.121-1.775,2.176v4.387
				l-5.089-5.088c-0.419-0.42-0.986-0.654-1.58-0.652C75.492,96.695,63.299,89.582,63.299,81.162z"/>
			<path fill="#2D2D30" d="M72.176,74.506h35.503v4.438H72.176V74.506z"/>
			<path fill="#2D2D30" d="M72.176,83.383h35.503v4.438H72.176V83.383z"/>
			<path fill="#2D2D30" d="M160.934,67.85c-17.42,0-31.064,8.771-31.064,19.971c0,8.402,7.949,15.756,19.971,18.67v7.957
				c0,1.227,0.992,2.219,2.221,2.219c0.586,0,1.15-0.232,1.566-0.648l8.235-8.225C178.836,107.479,192,98.818,192,87.82
				C192,76.621,178.354,67.85,160.934,67.85z M160.934,103.354c-0.588,0-1.151,0.234-1.568,0.648l-5.087,5.088v-4.383
				c0.001-1.057-0.743-1.965-1.776-2.176c-10.717-2.131-18.195-8.18-18.195-14.711c0-8.418,12.192-15.531,26.627-15.531
				c14.436,0,26.628,7.113,26.628,15.531C187.562,96.24,175.369,103.354,160.934,103.354z"/>
			<path fill="#2D2D30" d="M143.182,81.162h35.505v4.439h-35.505V81.162z"/>
			<path fill="#2D2D30" d="M143.182,90.037h35.505v4.439h-35.505V90.037z"/>
		</g>
	</g>
</g>
</svg>
