<?xml version="1.0" encoding="utf-8"?>
<!-- Generator: Adobe Illustrator 16.0.0, SVG Export Plug-In . SVG Version: 6.00 Build 0)  -->
<!DOCTYPE svg PUBLIC "-//W3C//DTD SVG 1.1//EN" "http://www.w3.org/Graphics/SVG/1.1/DTD/svg11.dtd">
<svg version="1.1" id="Layer_1" xmlns="http://www.w3.org/2000/svg" xmlns:xlink="http://www.w3.org/1999/xlink" x="0px" y="0px"
	 width="134.999px" height="135px" viewBox="0 0 134.999 135" enable-background="new 0 0 134.999 135" xml:space="preserve">
<g>
	<g>
		<path fill="#FFFFFF" d="M134.499,124.5c0,5.523-4.477,10-10,10H10.5c-5.522,0-10-4.477-10-10v-114c0-5.523,4.478-10,10-10h113.999
			c5.523,0,10,4.477,10,10V124.5z"/>
		<path fill="#C8C8C8" d="M124.499,135H10.5C4.71,135,0,130.29,0,124.5v-114C0,4.71,4.71,0,10.5,0h113.999
			c5.79,0,10.5,4.71,10.5,10.5v114C134.999,130.29,130.289,135,124.499,135z M10.5,1C5.262,1,1,5.262,1,10.5v114
			c0,5.238,4.262,9.5,9.5,9.5h113.999c5.238,0,9.5-4.262,9.5-9.5v-114c0-5.238-4.262-9.5-9.5-9.5H10.5z"/>
	</g>
	<g>
		<path fill="#FFC477" d="M42.578,84.696c-3.406,0.996-5.747,4.119-5.747,7.668v13.334h16v-9.334
			c-0.002-2.51,0.705-4.97,2.041-7.094c-0.932-2.219-2.813-3.897-5.12-4.574c-0.554-0.171-0.929-0.688-0.921-1.266V81.71
			c-0.01-0.424,0.178-0.828,0.508-1.094c1.357-0.992,2.159-2.572,2.16-4.253v-2.44c0.045-2.805-2.031-5.19-4.814-5.533
			c-2.932-0.288-5.54,1.855-5.828,4.788c-0.017,0.171-0.025,0.345-0.025,0.518v2.668c0,1.681,0.803,3.261,2.16,4.253
			c0.33,0.266,0.518,0.67,0.507,1.094v1.721C43.507,84.009,43.132,84.525,42.578,84.696z"/>
		<path fill="#FFC477" d="M82.167,105.698h16.002V92.364c0-3.549-2.342-6.672-5.747-7.668c-0.554-0.171-0.929-0.688-0.921-1.266
			V81.71c-0.011-0.424,0.178-0.828,0.508-1.094c1.356-0.992,2.158-2.572,2.16-4.253v-2.668c-0.002-2.944-2.389-5.333-5.336-5.332
			c-0.172,0-0.346,0.01-0.518,0.026c-2.783,0.343-4.858,2.729-4.814,5.533v2.44c0,1.681,0.803,3.261,2.161,4.253
			c0.329,0.266,0.517,0.67,0.507,1.094v1.721c0.008,0.578-0.367,1.095-0.922,1.266c-2.307,0.677-4.188,2.355-5.119,4.574
			c1.336,2.124,2.043,4.584,2.039,7.094V105.698z"/>
		<path fill="#FF7956" d="M52.831,105.698h29.336v-9.334c0.002-6.338-4.457-11.801-10.666-13.067v-4.015
			c2.472-1.427,3.996-4.064,4-6.92v-5.333c0-4.419-3.582-8.001-8.002-8.001c-4.418,0-8,3.582-8,8.001v5.333
			c0.004,2.855,1.527,5.493,4,6.92v4.015c-6.209,1.267-10.668,6.729-10.668,13.067V105.698z"/>
		<path fill="#46F8FF" d="M46.165,31.026c-9.574,0-17.335,4.776-17.335,10.667S36.591,52.36,46.165,52.36l5.334,5.335v-5.854
			c6.961-1.386,12-5.401,12-10.147C63.499,35.803,55.739,31.026,46.165,31.026z"/>
		<path fill="#FFE477" d="M88.835,35.026c-9.574,0-17.334,4.775-17.334,10.668c0,4.744,5.038,8.762,12,10.147v5.853l5.334-5.333
			c9.573,0,17.335-4.776,17.335-10.667C106.17,39.802,98.408,35.026,88.835,35.026z"/>
		<g>
			<path fill="#2D2D30" d="M92.835,83.431l-0.037-1.734c1.696-1.248,2.699-3.228,2.703-5.333v-2.668
				c0-3.682-2.984-6.666-6.667-6.666c-0.216,0-0.433,0.011-0.647,0.031c-3.46,0.423-6.051,3.375-6.02,6.862v2.44
				c0.014,2.099,0.998,4.074,2.668,5.347l0.038,1.708c-1.967,0.572-3.688,1.779-4.896,3.434c-1.879-2.203-4.363-3.803-7.145-4.602
				v-2.237c2.498-1.748,3.99-4.602,4.001-7.65v-5.333c0-5.155-4.18-9.334-9.335-9.334c-5.154,0-9.334,4.179-9.334,9.334v5.333
				c0.012,3.049,1.502,5.902,4.001,7.65v2.237c-2.782,0.797-5.267,2.398-7.144,4.601c-1.195-1.646-2.904-2.848-4.857-3.42
				l-0.037-1.734c1.696-1.248,2.699-3.228,2.703-5.333v-2.44c0.033-3.485-2.558-6.439-6.018-6.862
				c-3.666-0.358-6.926,2.323-7.284,5.987c-0.021,0.216-0.032,0.432-0.032,0.647v2.668c0.014,2.099,0.998,4.074,2.668,5.347
				l0.038,1.708c-3.964,1.177-6.688,4.812-6.706,8.946v13.334c0,0.736,0.598,1.333,1.334,1.333h61.338
				c0.735,0,1.332-0.597,1.332-1.333V92.364C99.489,88.243,96.782,84.616,92.835,83.431z M38.163,92.364
				c0.014-2.949,1.955-5.543,4.782-6.386c1.124-0.337,1.893-1.375,1.886-2.548V81.71c0.008-0.848-0.381-1.649-1.051-2.169
				c-1.018-0.738-1.619-1.92-1.615-3.178v-2.668c0-1.127,0.477-2.203,1.312-2.962c0.835-0.764,1.955-1.133,3.08-1.018
				c2.098,0.28,3.651,2.091,3.608,4.207v2.44c0.002,1.265-0.605,2.453-1.633,3.191c-0.661,0.52-1.043,1.315-1.034,2.155v1.721
				c-0.007,1.17,0.758,2.207,1.879,2.545c1.708,0.494,3.146,1.657,3.988,3.225c-0.122,0.221-0.214,0.455-0.326,0.681
				c-0.112,0.225-0.244,0.483-0.352,0.734c-0.157,0.366-0.285,0.744-0.41,1.123c-0.081,0.242-0.173,0.481-0.24,0.727
				c-0.117,0.425-0.197,0.856-0.274,1.292c-0.039,0.211-0.096,0.419-0.123,0.632c-0.09,0.654-0.139,1.315-0.142,1.976v8H38.163
				V92.364z M54.165,96.364c0-0.565,0.04-1.128,0.117-1.687c0.234-1.669,0.82-3.27,1.719-4.697c1.748-2.774,4.553-4.716,7.766-5.377
				c0.621-0.127,1.066-0.673,1.066-1.307v-4.015c0-0.476-0.254-0.914-0.667-1.152c-2.056-1.195-3.324-3.391-3.333-5.768v-5.333
				c0-3.682,2.984-6.667,6.666-6.667c3.684,0,6.668,2.985,6.668,6.667v5.333c-0.009,2.378-1.278,4.572-3.334,5.768
				c-0.412,0.238-0.666,0.677-0.666,1.152v4.015c0,0.634,0.445,1.18,1.066,1.307c5.588,1.141,9.602,6.057,9.6,11.761v8H54.165
				V96.364z M96.835,104.364H83.501v-8c0-0.66-0.045-1.32-0.133-1.975c-0.028-0.214-0.084-0.422-0.123-0.633
				c-0.078-0.436-0.157-0.867-0.275-1.292c-0.067-0.245-0.158-0.482-0.238-0.726c-0.127-0.379-0.254-0.758-0.412-1.125
				c-0.105-0.248-0.229-0.486-0.35-0.729c-0.119-0.242-0.203-0.464-0.327-0.685c0.839-1.564,2.272-2.726,3.978-3.222
				c1.123-0.34,1.889-1.376,1.881-2.548V81.71c0.008-0.848-0.381-1.649-1.051-2.169c-1.019-0.738-1.619-1.92-1.615-3.178v-2.44
				c-0.043-2.116,1.51-3.927,3.607-4.207c1.125-0.118,2.247,0.253,3.081,1.018c0.835,0.759,1.31,1.834,1.312,2.962v2.668
				c0.002,1.265-0.605,2.453-1.634,3.191c-0.659,0.52-1.042,1.315-1.034,2.154v1.72c-0.006,1.172,0.759,2.209,1.881,2.547
				c2.829,0.841,4.773,3.437,4.787,6.389V104.364z"/>
			<path fill="#2D2D30" d="M50.556,58.638c0.521,0.521,1.365,0.521,1.887-0.001c0.25-0.249,0.389-0.589,0.389-0.941v-4.783
				c7.225-1.751,12.002-6.169,12.002-11.219c0-6.729-8.199-12.001-18.668-12.001s-18.668,5.271-18.668,12.001
				c0,6.61,7.911,11.813,18.11,12.001L50.556,58.638z M30.163,41.693c0-5.06,7.328-9.334,16.002-9.334s16.001,4.274,16.001,9.334
				c0,3.925-4.493,7.559-10.928,8.84c-0.621,0.126-1.067,0.673-1.066,1.308v2.636l-3.058-3.058
				c-0.252-0.252-0.594-0.393-0.949-0.392C37.491,51.027,30.163,46.753,30.163,41.693z"/>
			<path fill="#2D2D30" d="M35.497,37.692h21.336v2.667H35.497V37.692z"/>
			<path fill="#2D2D30" d="M35.497,43.027h21.336v2.667H35.497V43.027z"/>
			<path fill="#2D2D30" d="M88.835,33.693c-10.469,0-18.668,5.271-18.668,12.001c0,5.049,4.777,9.468,12,11.219v4.781
				c0,0.737,0.598,1.334,1.334,1.334c0.354,0,0.692-0.141,0.943-0.391l4.948-4.942c10.199-0.188,18.11-5.393,18.11-12.001
				C107.503,38.964,99.303,33.693,88.835,33.693z M88.835,55.028c-0.354,0-0.692,0.141-0.943,0.39l-3.057,3.058v-2.634
				c0-0.635-0.446-1.182-1.068-1.308c-6.439-1.281-10.934-4.916-10.934-8.84c0-5.06,7.328-9.334,16.002-9.334
				s16.001,4.274,16.001,9.334S97.509,55.028,88.835,55.028z"/>
			<path fill="#2D2D30" d="M78.167,41.693h21.335v2.667H78.167V41.693z"/>
			<path fill="#2D2D30" d="M78.167,47.026h21.335v2.667H78.167V47.026z"/>
		</g>
	</g>
</g>
</svg>
