<?xml version="1.0" encoding="utf-8"?>
<!-- Generator: Adobe Illustrator 16.0.0, SVG Export Plug-In . SVG Version: 6.00 Build 0)  -->
<!DOCTYPE svg PUBLIC "-//W3C//DTD SVG 1.1//EN" "http://www.w3.org/Graphics/SVG/1.1/DTD/svg11.dtd">
<svg version="1.1" id="Layer_1" xmlns="http://www.w3.org/2000/svg" xmlns:xlink="http://www.w3.org/1999/xlink" x="0px" y="0px"
	 width="135px" height="135px" viewBox="0 0 135 135" enable-background="new 0 0 135 135" xml:space="preserve">
<g>
	<g>
		<path fill="#FFFFFF" d="M134.5,124.5c0,5.523-4.478,10-10,10h-114c-5.522,0-10-4.477-10-10v-114c0-5.523,4.478-10,10-10h114
			c5.522,0,10,4.477,10,10V124.5z"/>
		<path fill="#C8C8C8" d="M124.5,135h-114C4.71,135,0,130.29,0,124.5v-114C0,4.71,4.71,0,10.5,0h114c5.79,0,10.5,4.71,10.5,10.5v114
			C135,130.29,130.29,135,124.5,135z M10.5,1C5.262,1,1,5.262,1,10.5v114c0,5.238,4.262,9.5,9.5,9.5h114c5.238,0,9.5-4.262,9.5-9.5
			v-114c0-5.238-4.262-9.5-9.5-9.5H10.5z"/>
	</g>
	<g>
		<path fill="#FF9478" d="M93.467,34.084H43.434c-1.455,0-2.634,1.179-2.634,2.633v15.8h55.3v-15.8
			C96.1,35.263,94.921,34.084,93.467,34.084z M52.649,47.25c-2.182,0-3.949-1.769-3.949-3.95s1.768-3.95,3.949-3.95
			s3.95,1.769,3.95,3.95S54.831,47.25,52.649,47.25z M68.45,47.25c-2.183,0-3.95-1.769-3.95-3.95s1.768-3.95,3.95-3.95
			c2.181,0,3.949,1.769,3.949,3.95S70.631,47.25,68.45,47.25z M84.25,47.25c-2.182,0-3.95-1.769-3.95-3.95s1.769-3.95,3.95-3.95
			c2.181,0,3.95,1.769,3.95,3.95S86.431,47.25,84.25,47.25z"/>
		<path fill="#E6E7E8" d="M40.8,52.517v50.033c0,1.454,1.178,2.634,2.634,2.634h50.033c1.454,0,2.633-1.179,2.633-2.634V52.517H40.8
			z M48.7,63.05h10.533v10.534H48.7V63.05z M59.233,94.65H48.7V84.117h10.533V94.65z"/>
		<path fill="#787680" d="M64.5,43.3c0,2.182,1.768,3.95,3.95,3.95c2.181,0,3.949-1.769,3.949-3.95s-1.769-3.95-3.949-3.95
			C66.268,39.35,64.5,41.118,64.5,43.3z"/>
		<path fill="#787680" d="M48.7,43.3c0,2.182,1.768,3.95,3.949,3.95s3.95-1.769,3.95-3.95s-1.769-3.95-3.95-3.95
			S48.7,41.118,48.7,43.3z"/>
		<path fill="#787680" d="M80.3,43.3c0,2.182,1.769,3.95,3.95,3.95c2.181,0,3.95-1.769,3.95-3.95s-1.77-3.95-3.95-3.95
			C82.068,39.35,80.3,41.118,80.3,43.3z"/>
		<path fill="#FFC477" d="M48.7,63.05v10.534h10.533V63.05H48.7z"/>
		<path fill="#FFC477" d="M48.7,94.65h10.533V84.117H48.7V94.65z"/>
		<g>
			<path fill="#3E3D42" d="M93.467,32.767h-7.9v-3.95c0-0.727-0.59-1.316-1.316-1.316c-0.728,0-1.317,0.59-1.317,1.316v3.95H69.767
				v-3.95c0-0.727-0.59-1.316-1.316-1.316c-0.729,0-1.317,0.59-1.317,1.316v3.95H53.967v-3.95c0-0.727-0.59-1.316-1.317-1.316
				c-0.727,0-1.316,0.59-1.316,1.316v3.95h-7.899c-2.183,0-3.95,1.769-3.95,3.95v65.833c0,2.182,1.768,3.95,3.95,3.95h50.033
				c2.181,0,3.949-1.769,3.949-3.95V36.717C97.416,34.535,95.647,32.767,93.467,32.767z M43.434,35.4h7.899v2.82
				c-2.816,0.727-4.51,3.6-3.782,6.416c0.727,2.815,3.6,4.51,6.416,3.782c2.815-0.728,4.51-3.6,3.782-6.416
				c-0.479-1.854-1.928-3.304-3.782-3.782V35.4h13.166v2.82c-2.815,0.727-4.51,3.6-3.782,6.416s3.6,4.51,6.416,3.782
				s4.51-3.6,3.782-6.416c-0.479-1.854-1.928-3.304-3.782-3.782V35.4h13.167v2.82c-2.816,0.727-4.511,3.6-3.783,6.416
				c0.727,2.816,3.6,4.51,6.416,3.782s4.51-3.6,3.783-6.416c-0.479-1.854-1.928-3.304-3.783-3.782V35.4h7.9
				c0.728,0,1.316,0.589,1.316,1.316V51.2H42.116V36.717C42.116,35.989,42.706,35.4,43.434,35.4z M52.649,43.3
				c0.728,0,1.317-0.59,1.317-1.316v-0.95c1.259,0.727,1.69,2.337,0.963,3.597c-0.727,1.259-2.337,1.69-3.597,0.964
				s-1.691-2.338-0.964-3.597c0.231-0.4,0.563-0.733,0.964-0.964v0.95C51.333,42.71,51.923,43.3,52.649,43.3z M68.45,43.3
				c0.727,0,1.316-0.59,1.316-1.316v-0.95c1.259,0.727,1.69,2.337,0.964,3.597c-0.728,1.259-2.338,1.69-3.598,0.964
				c-1.259-0.727-1.69-2.338-0.964-3.597c0.231-0.4,0.563-0.733,0.964-0.964v0.95C67.133,42.71,67.722,43.3,68.45,43.3z M84.25,43.3
				c0.727,0,1.316-0.59,1.316-1.316v-0.95c1.259,0.727,1.69,2.337,0.964,3.597c-0.728,1.259-2.338,1.69-3.597,0.964
				c-1.261-0.727-1.691-2.338-0.965-3.597c0.231-0.4,0.563-0.733,0.965-0.964v0.95C82.934,42.71,83.522,43.3,84.25,43.3z
				 M93.467,103.867H43.434c-0.728,0-1.317-0.59-1.317-1.317V53.834h52.667v48.716C94.783,103.277,94.193,103.867,93.467,103.867z"
				/>
			<path fill="#3E3D42" d="M86.883,63.05H68.45c-0.729,0-1.317,0.589-1.317,1.317c0,0.727,0.589,1.316,1.317,1.316h18.433
				c0.728,0,1.317-0.59,1.317-1.316C88.2,63.639,87.61,63.05,86.883,63.05z"/>
			<path fill="#3E3D42" d="M68.45,73.584h13.166c0.728,0,1.317-0.59,1.317-1.317c0-0.727-0.59-1.316-1.317-1.316H68.45
				c-0.729,0-1.317,0.59-1.317,1.316C67.133,72.994,67.722,73.584,68.45,73.584z"/>
			<path fill="#3E3D42" d="M86.883,84.117H68.45c-0.729,0-1.317,0.589-1.317,1.316c0,0.727,0.589,1.316,1.317,1.316h18.433
				c0.728,0,1.317-0.59,1.317-1.316C88.2,84.706,87.61,84.117,86.883,84.117z"/>
			<path fill="#3E3D42" d="M81.616,92.017H68.45c-0.729,0-1.317,0.59-1.317,1.317c0,0.727,0.589,1.316,1.317,1.316h13.166
				c0.728,0,1.317-0.59,1.317-1.316C82.934,92.606,82.343,92.017,81.616,92.017z"/>
			<path fill="#3E3D42" d="M62.252,60.803l-1.795,1.794c-0.187-0.517-0.675-0.86-1.224-0.863H48.7c-0.728,0-1.317,0.59-1.317,1.316
				v10.534c0,0.727,0.59,1.316,1.317,1.316h10.533c0.727,0,1.316-0.59,1.316-1.316v-7.355l3.564-3.564
				c0.505-0.522,0.49-1.356-0.033-1.861C63.571,60.31,62.763,60.31,62.252,60.803z M57.916,72.267h-7.899v-7.899h7.899v0.771
				l-2.633,2.633l-1.702-1.702c-0.523-0.506-1.357-0.491-1.862,0.032c-0.493,0.51-0.493,1.319,0,1.83l2.634,2.633
				c0.514,0.514,1.348,0.514,1.861,0l1.702-1.703V72.267z"/>
			<path fill="#3E3D42" d="M62.252,81.869l-1.795,1.795c-0.187-0.517-0.675-0.861-1.224-0.863H48.7
				c-0.728,0-1.317,0.589-1.317,1.316V94.65c0,0.727,0.59,1.316,1.317,1.316h10.533c0.727,0,1.316-0.59,1.316-1.316v-7.354
				l3.564-3.564c0.505-0.523,0.49-1.357-0.033-1.862C63.571,81.376,62.763,81.376,62.252,81.869z M57.916,93.334h-7.899v-7.9h7.899
				v0.771l-2.633,2.633l-1.702-1.702c-0.523-0.505-1.357-0.49-1.862,0.032c-0.493,0.51-0.493,1.319,0,1.83l2.634,2.633
				c0.514,0.514,1.348,0.514,1.861,0l1.702-1.702V93.334z"/>
		</g>
	</g>
	<polygon fill="#E8454A" points="36.5,0.5 0.5,34.656 0.5,81.334 83.167,0.5 	"/>
	<g>
		<path fill="#FFFFFF" d="M5.649,49.162l3.047-3.047l0.764,0.764l-3.047,3.047L5.649,49.162z M7.269,54.092
			c0.663-0.809,1.114-1.531,1.354-2.168c0.241-0.637,0.27-1.186,0.089-1.649l-2.256,2.257l-0.773-0.773l5.608-5.608l0.772,0.772
			l-2.248,2.249c0.424,0.187,0.951,0.163,1.582-0.072s1.365-0.675,2.202-1.32c0.007,0.12,0.017,0.239,0.029,0.361
			c0.015,0.122,0.03,0.243,0.048,0.36c0.011,0.113,0.023,0.223,0.037,0.326c0.014,0.105,0.027,0.197,0.038,0.276
			c-0.769,0.532-1.458,0.918-2.065,1.159c-0.607,0.24-1.143,0.334-1.6,0.284c0.039,0.503-0.061,1.062-0.302,1.676
			c-0.24,0.613-0.624,1.28-1.149,1.997L7.269,54.092z M16.001,49.451l-2.986,2.986l2.273,2.273l-0.977,0.977l-2.273-2.273L9,56.451
			l-0.806-0.807l7-7L16.001,49.451z"/>
		<path fill="#FFFFFF" d="M15.364,40.313c0.085-0.085,0.164-0.128,0.237-0.128c0.073,0.001,0.153,0.043,0.238,0.128
			c1.126,1.262,1.882,2.615,2.27,4.06c0.388,1.445,0.397,2.997,0.029,4.654l-1.435,0.161c0.414-1.43,0.51-2.75,0.285-3.957
			c-0.224-1.209-0.771-2.299-1.642-3.272l-2.512,2.512l-0.814-0.814L15.364,40.313z M23.833,46.168l-7.604-7.604l0.951-0.95
			l2.961,2.961l1.035-1.035l0.857,0.856l-1.035,1.035l3.784,3.785L23.833,46.168z"/>
		<path fill="#FFFFFF" d="M24.901,36.833l-3.258-3.258l0.941-0.942l1.018,1.018l1.715-1.713L24.3,30.92l0.951-0.951l0.738,0.738
			l1.349-1.35l-0.942-0.941l0.967-0.967l3.929,3.928l-0.967,0.967l-0.856-0.857l-1.35,1.35l0.391,0.391
			c0.09,0.09,0.135,0.172,0.131,0.242c-0.003,0.071-0.047,0.148-0.131,0.232l-3.141,3.141c-0.09,0.09-0.168,0.135-0.232,0.131
			C25.071,36.971,24.991,36.924,24.901,36.833z M27.04,33.66l-0.967-0.967l-1.715,1.713l0.968,0.968L27.04,33.66z M30.019,39.88
			c-0.09,0.091-0.17,0.135-0.238,0.136c-0.066,0-0.146-0.046-0.236-0.137l-1.527-1.527c-0.086-0.084-0.129-0.162-0.133-0.232
			c-0.002-0.07,0.041-0.152,0.132-0.242l3.87-3.87l-0.577-0.577l-4.107,4.107l-0.747-0.746l4.88-4.88
			c0.085-0.085,0.164-0.127,0.237-0.127s0.152,0.042,0.238,0.128l1.519,1.519c0.091,0.091,0.134,0.171,0.132,0.241
			c-0.004,0.07-0.047,0.148-0.131,0.234l-3.854,3.852l0.586,0.586l4.252-4.252l0.746,0.747L30.019,39.88z M26.727,31.444
			l0.661,0.661l1.35-1.349l-0.662-0.661L26.727,31.444z"/>
		<path fill="#FFFFFF" d="M29.789,25.7l5.065-5.065l0.807,0.807l-4.327,4.327l2.223,2.223l4.396-4.396l0.814,0.814l-2.256,2.258
			l1.756,1.756l3.012-3.013l0.814,0.815l-7.009,7.009l-0.815-0.815l3.004-3.004l-1.756-1.756l-1.892,1.893
			c-0.091,0.09-0.168,0.134-0.233,0.131c-0.065-0.002-0.143-0.049-0.232-0.139l-3.369-3.369c-0.085-0.085-0.129-0.162-0.133-0.234
			C29.655,25.871,29.698,25.791,29.789,25.7z"/>
		<path fill="#FFFFFF" d="M37.01,18.174l4.82-4.82c0.085-0.085,0.165-0.127,0.237-0.127c0.074,0,0.152,0.043,0.238,0.127
			l2.324,2.326c0.091,0.09,0.135,0.17,0.132,0.241s-0.046,0.147-0.132,0.233l-4.828,4.828c-0.09,0.09-0.166,0.136-0.229,0.136
			c-0.063,0.001-0.139-0.045-0.229-0.136l-2.333-2.334c-0.086-0.084-0.129-0.162-0.131-0.232
			C36.876,18.346,36.919,18.264,37.01,18.174z M43.12,16.053l-1.188-1.188l-3.403,3.402l1.188,1.188L43.12,16.053z M44.901,21.958
			l-1.502-1.502l-3.14,3.14l-0.813-0.814l7-7l0.814,0.814l-2.885,2.885l1.502,1.502L44.901,21.958z M44.292,25.42
			c-0.092,0.092-0.17,0.135-0.234,0.132c-0.065-0.002-0.143-0.05-0.233-0.14l-2.087-2.088l0.967-0.967l1.511,1.51l4.54-4.539
			l0.814,0.814L44.292,25.42z"/>
		<path fill="#FFFFFF" d="M49.892,13.15c-0.306,0.306-0.631,0.535-0.976,0.688c-0.347,0.152-0.696,0.232-1.053,0.237
			c-0.351,0.001-0.693-0.07-1.026-0.212c-0.334-0.142-0.643-0.354-0.926-0.637c-0.271-0.271-0.478-0.574-0.619-0.908
			c-0.142-0.333-0.213-0.676-0.212-1.026c0.006-0.355,0.083-0.708,0.233-1.057c0.15-0.347,0.377-0.675,0.683-0.979
			c0.3-0.3,0.624-0.524,0.972-0.675c0.348-0.149,0.7-0.227,1.057-0.233c0.351,0,0.693,0.07,1.031,0.207
			c0.336,0.14,0.641,0.345,0.912,0.615c0.283,0.283,0.493,0.594,0.633,0.93c0.137,0.338,0.207,0.681,0.207,1.031
			c-0.006,0.357-0.086,0.707-0.237,1.053C50.417,12.528,50.19,12.852,49.892,13.15z M46.803,10.063
			c-0.339,0.34-0.494,0.708-0.463,1.107c0.031,0.398,0.211,0.762,0.538,1.09c0.323,0.322,0.688,0.504,1.096,0.543
			c0.407,0.04,0.78-0.11,1.119-0.449c0.34-0.34,0.49-0.713,0.451-1.121c-0.04-0.406-0.221-0.771-0.544-1.095
			c-0.327-0.327-0.691-0.507-1.09-0.538C47.511,9.568,47.142,9.723,46.803,10.063z M48.618,16.63l2.283-2.334
			c0.13-0.13,0.302-0.316,0.518-0.56c0.215-0.244,0.443-0.51,0.687-0.798s0.483-0.585,0.722-0.89
			c0.237-0.308,0.443-0.587,0.619-0.841l0.789,0.789c-0.406,0.646-0.951,1.362-1.634,2.15c-0.682,0.789-1.44,1.603-2.278,2.44
			l-0.873,0.873L48.618,16.63z M49.679,5.133l7.594,7.594l-0.957,0.959l-7.595-7.595L49.679,5.133z"/>
	</g>
</g>
</svg>
